<?xml version="1.0" encoding="UTF-8"?><svg id="dots" xmlns="http://www.w3.org/2000/svg" viewBox="0 0 1504 260"><defs><style>.cls-1{fill:#ed7360;}.cls-2{fill:#00b382;}.cls-3{fill:none;stroke:#969696;stroke-miterlimit:10;stroke-width:.79px;}.cls-4{fill:#8e65a9;}.cls-5{opacity:.4;}.cls-6{fill:#d5c0e3;}.cls-7{fill:#aa80c6;}.cls-8{fill:#0fbac1;}</style></defs><g class="cls-5"><line class="cls-3" x1="1428.32" y1="70.45" x2="1474.08" y2="37.84"/><line class="cls-3" x1="1412.93" y1="152.41" x2="1427.97" y2="70.75"/><line class="cls-3" x1="1369.49" y1="20.1" x2="1428.23" y2="71.75"/><circle class="cls-6" cx="1472.76" cy="37.23" r="8.47"/><circle class="cls-8" cx="1428.45" cy="70.63" r="15.79"/><line class="cls-3" x1="105.37" y1="141.92" x2="246.51" y2="144.77"/><line class="cls-3" x1="207.19" y1="41.42" x2="368.65" y2="70.29"/><line class="cls-3" x1="245.36" y1="143.68" x2="207.19" y2="40.44"/><line class="cls-3" x1="192.19" y1="183.15" x2="244.7" y2="143.35"/><line class="cls-3" x1="178.49" y1="108.78" x2="245.03" y2="143.35"/><line class="cls-3" x1="300.48" y1="227.51" x2="198.71" y2="241.21"/><line class="cls-3" x1="245.36" y1="143.35" x2="198.06" y2="241.21"/><line class="cls-3" x1="369.3" y1="70.29" x2="335.05" y2="149.22"/><line class="cls-3" x1="336.36" y1="19.4" x2="369.63" y2="70.29"/><line class="cls-3" x1="410.24" y1="153.95" x2="369.63" y2="69.8"/><line class="cls-3" x1="520" y1="128.02" x2="410.73" y2="154.77"/><line class="cls-3" x1="450.85" y1="84.15" x2="520.81" y2="127.7"/><line class="cls-3" x1="511.03" y1="26.25" x2="520.81" y2="128.02"/><line class="cls-3" x1="586.86" y1="38" x2="511.03" y2="25.77"/><line class="cls-3" x1="619.64" y1="81.54" x2="614.92" y2="153.46"/><line class="cls-3" x1="557.18" y1="78.12" x2="586.86" y2="38.49"/><line class="cls-3" x1="696.13" y1="88.88" x2="712.44" y2="132.91"/><line class="cls-3" x1="786" y1="39.46" x2="712.61" y2="132.91"/><line class="cls-3" x1="842.75" y1="140.74" x2="786" y2="38.49"/><line class="cls-3" x1="776.21" y1="109.43" x2="841.77" y2="141.23"/><line class="cls-3" x1="788.44" y1="186.73" x2="841.77" y2="142.21"/><line class="cls-3" x1="779.64" y1="234.03" x2="840.96" y2="142.7"/><line class="cls-3" x1="929.84" y1="147.59" x2="966.54" y2="67.35"/><line class="cls-3" x1="880.91" y1="82.52" x2="966.54" y2="68.33"/><line class="cls-3" x1="1008.29" y1="153.46" x2="967.02" y2="67.84"/><line class="cls-3" x1="1118.82" y1="129.05" x2="1008.29" y2="153.46"/><line class="cls-3" x1="1088.85" y1="239.25" x2="1118.7" y2="129.49"/><line class="cls-3" x1="1049.71" y1="85.46" x2="1119.19" y2="129"/><line class="cls-3" x1="1092.28" y1="26.74" x2="1118.7" y2="128.51"/><line class="cls-3" x1="1199.92" y1="149.55" x2="1117.23" y2="128.51"/><line class="cls-3" x1="1191.11" y1="63.67" x2="1154.9" y2="97.43"/><line class="cls-3" x1="1092.44" y1="27.23" x2="1192.09" y2="63.67"/><line class="cls-3" x1="894.78" y1="229.46" x2="842.91" y2="141.07"/><line class="cls-3" x1="487.05" y1="224.24" x2="520.32" y2="129"/><line class="cls-3" x1="261.99" y1="75.18" x2="245.03" y2="143.68"/><line class="cls-3" x1="393.11" y1="216.42" x2="487.05" y2="223.92"/><line class="cls-3" x1="615.57" y1="153.79" x2="520.65" y2="128.02"/><line class="cls-3" x1="661.23" y1="216.09" x2="598.61" y2="232.73"/><line class="cls-3" x1="486.73" y1="223.59" x2="557.51" y2="223.92"/><line class="cls-3" x1="712.77" y1="133.24" x2="788.44" y2="186.73"/><line class="cls-3" x1="850.09" y1="65.4" x2="881.73" y2="83.01"/><line class="cls-3" x1="988.39" y1="214.46" x2="1007.63" y2="153.46"/><line class="cls-3" x1="1088.85" y1="238.6" x2="1153.44" y2="222.61"/><line class="cls-3" x1="744.08" y1="206.63" x2="661.56" y2="215.76"/><line class="cls-3" x1="615.24" y1="153.79" x2="662.54" y2="216.09"/><line class="cls-3" x1="737.24" y1="13.92" x2="784.51" y2="39.81"/><line class="cls-3" x1="1026.23" y1="248.38" x2="987.74" y2="214.13"/><line class="cls-3" x1="929.68" y1="147.59" x2="987.08" y2="214.13"/><line class="cls-3" x1="1197.47" y1="237.62" x2="1118.86" y2="129.33"/><line class="cls-3" x1="842.26" y1="141.4" x2="881.4" y2="83.01"/><line class="cls-3" x1="712.77" y1="133.24" x2="619.48" y2="82.03"/><line class="cls-3" x1="1117.69" y1="129.86" x2="1258.4" y2="221.03"/><line class="cls-3" x1="1247.14" y1="172.63" x2="1257.27" y2="221.03"/><line class="cls-3" x1="1322.56" y1="201.9" x2="1257.27" y2="221.03"/><line class="cls-3" x1="1312.99" y1="136.05" x2="1258.49" y2="220.37"/><line class="cls-3" x1="1273.03" y1="92.71" x2="1312.99" y2="136.05"/><line class="cls-3" x1="1332.69" y1="67.38" x2="1311.86" y2="136.05"/><line class="cls-3" x1="1189.73" y1="64.57" x2="1256.15" y2="30.8"/><circle class="cls-1" cx="192.19" cy="182.88" r="8.47"/><circle class="cls-7" cx="178.22" cy="108.88" r="8.47"/><circle class="cls-6" cx="262.05" cy="76.39" r="8.47"/><circle class="cls-7" cx="334.46" cy="149.78" r="8.47"/><circle class="cls-6" cx="337.07" cy="18.66" r="8.47"/><circle class="cls-6" cx="557.24" cy="223.9" r="8.24"/><circle class="cls-6" cx="451.07" cy="84.29" r="8.47"/><circle class="cls-7" cx="556.59" cy="78.03" r="8.24"/><circle class="cls-6" cx="587.41" cy="39.05" r="8.47"/><circle class="cls-6" cx="695.38" cy="88.46" r="8.47"/><circle class="cls-6" cx="743.76" cy="206.15" r="8.47"/><circle class="cls-7" cx="598.73" cy="231.74" r="8.47"/><circle class="cls-6" cx="775.62" cy="109.18" r="8.47"/><circle class="cls-6" cx="850.4" cy="65.96" r="8.24"/><circle class="cls-7" cx="930.09" cy="147.98" r="8.24"/><circle class="cls-7" cx="1023.68" cy="244.7" r="8.44"/><circle class="cls-7" cx="1155.78" cy="97.92" r="8.44"/><circle class="cls-6" cx="1153.09" cy="222.96" r="8.24"/><circle class="cls-6" cx="1196.71" cy="237.13" r="8.24"/><circle class="cls-6" cx="1322.64" cy="202.82" r="7.8"/><circle class="cls-6" cx="1275.18" cy="93.63" r="7.8"/><circle class="cls-6" cx="1254" cy="32.2" r="7.8"/><circle class="cls-6" cx="1199.07" cy="148.87" r="8.24"/><circle class="cls-6" cx="1049.19" cy="85.62" r="8.24"/><circle class="cls-6" cx="736.82" cy="13.04" r="8.47"/><circle class="cls-8" cx="244.54" cy="143.03" r="25.74"/><circle class="cls-2" cx="300.32" cy="227.19" r="21.53"/><circle class="cls-2" cx="133.51" cy="218.63" r="21.53"/><circle class="cls-8" cx="614.99" cy="153.67" r="21.53"/><circle class="cls-2" cx="207.47" cy="41.28" r="18.19"/><circle class="cls-4" cx="369.14" cy="70.05" r="32.29"/><circle class="cls-2" cx="519.87" cy="127.41" r="23.33"/><circle class="cls-8" cx="511.03" cy="26.01" r="17.84"/><circle class="cls-1" cx="410.57" cy="152.82" r="14.58"/><line class="cls-3" x1="1314.39" y1="137.64" x2="1412.77" y2="153.32"/><line class="cls-3" x1="1410.08" y1="152.13" x2="1375.83" y2="231.07"/><line class="cls-3" x1="1377.13" y1="101.25" x2="1410.4" y2="152.13"/><line class="cls-3" x1="1451.01" y1="235.8" x2="1410.4" y2="151.64"/><circle class="cls-7" cx="1375.24" cy="231.63" r="8.47"/><circle class="cls-6" cx="1377.84" cy="100.51" r="8.47"/><circle class="cls-4" cx="1409.92" cy="151.9" r="32.29"/><circle class="cls-8" cx="1451.34" cy="234.66" r="14.58"/><circle class="cls-8" cx="393.46" cy="216.77" r="14.58"/><circle class="cls-4" cx="1248.75" cy="173.32" r="9.22"/><circle class="cls-8" cx="1257.72" cy="220.59" r="22.41"/><circle class="cls-4" cx="198.42" cy="240.39" r="14.58"/><circle class="cls-8" cx="1088.02" cy="238.8" r="14.41"/><circle class="cls-6" cx="787.92" cy="186.16" r="10.64"/><circle class="cls-8" cx="661.4" cy="216.23" r="15.79"/><circle class="cls-6" cx="894.88" cy="229.6" r="12.35"/><circle class="cls-8" cx="785.52" cy="39.45" r="22.84"/><circle class="cls-1" cx="619.68" cy="82.11" r="24.36"/><circle class="cls-1" cx="842.24" cy="141.14" r="27.45"/><circle class="cls-1" cx="779.29" cy="234.21" r="21.28"/><circle class="cls-1" cx="966.28" cy="67.93" r="32.29"/><circle class="cls-8" cx="1008.13" cy="153.6" r="14.41"/><circle class="cls-4" cx="881.14" cy="83.08" r="21.53"/><line class="cls-3" x1="104.45" y1="141.51" x2="47.7" y2="39.26"/><line class="cls-3" x1="37.91" y1="110.2" x2="103.47" y2="142"/><line class="cls-3" x1="50.14" y1="187.5" x2="103.47" y2="142.98"/><line class="cls-3" x1="41.34" y1="234.8" x2="102.66" y2="143.47"/><line class="cls-3" x1="126.75" y1="206.07" x2="104.62" y2="141.84"/><line class="cls-3" x1="103.96" y1="142.17" x2="122.47" y2="76.33"/><circle class="cls-6" cx="37.32" cy="109.95" r="8.47"/><circle class="cls-6" cx="47.94" cy="39.64" r="8.24"/><circle class="cls-6" cx="49.62" cy="186.93" r="10.64"/><circle class="cls-1" cx="103.94" cy="141.92" r="27.45"/><circle class="cls-4" cx="120.9" cy="71.9" r="18.52"/><circle class="cls-2" cx="712.09" cy="132.77" r="21.53"/><circle class="cls-2" cx="1311.91" cy="135.96" r="19.83"/><circle class="cls-2" cx="987.25" cy="214.3" r="14.62"/><circle class="cls-2" cx="1371.42" cy="23.58" r="14.62"/><circle class="cls-1" cx="1191.32" cy="63.84" r="15.98"/><circle class="cls-4" cx="1117.72" cy="129.66" r="21.28"/><circle class="cls-2" cx="1092.61" cy="26.53" r="14.41"/><circle class="cls-4" cx="487.55" cy="223.63" r="32.29"/><circle class="cls-1" cx="1332.13" cy="67.77" r="15.17"/><circle class="cls-1" cx="42.15" cy="236.94" r="14.58"/></g></svg>