<svg id="Group_3699" data-name="Group 3699" xmlns="http://www.w3.org/2000/svg" xmlns:xlink="http://www.w3.org/1999/xlink" width="160" height="101.734" viewBox="0 0 160 101.734">
  <defs>
    <clipPath id="clip-path">
      <rect id="Rectangle_4021" data-name="Rectangle 4021" width="160" height="101.734" fill="none"/>
    </clipPath>
  </defs>
  <g id="Group_3698" data-name="Group 3698" clip-path="url(#clip-path)">
    <path id="Path_10531" data-name="Path 10531" d="M159.967,57.8c.047,1.434-3.94,9.9-11.33,12-3.9,1.108-9.934,1.183-20.315,1.17-5.569-.007-19.6-.111-29.988,0C84.966,71.12,81,81.693,80.012,86.081c-.99-4.387-4.978-14.956-18.345-15.106-10.385-.111-24.419-.007-29.988,0-10.381.013-16.415-.062-20.315-1.17C3.976,67.705-.011,59.236.037,57.8c-.554,16.866,5.148,24.182,21.271,24.84H64.735c7.135-.1,13.26,6.35,15.277,12.859,2.016-6.507,8.117-12.955,15.253-12.859h43.428c16.121-.658,21.825-7.977,21.271-24.84" transform="translate(0 6.234)" fill="#fff"/>
    <path id="Path_10532" data-name="Path 10532" d="M13.6,6.191A5.459,5.459,0,0,1,18.636.338h.428A5.271,5.271,0,0,1,24.533,5.4v.013a4.665,4.665,0,0,1,0,.584,5.458,5.458,0,0,1-5.266,5.643h-.2a5.272,5.272,0,0,1-5.458-5.079v-.38M8.338,61.927c5.458,0,6.965-.943,6.965-3.207V29.166c0-2.828-1.315-4.707-6.779-4.707V21.424l14.687-.378V58.713c0,2.263,1.322,3.207,6.972,3.207v3H8.331Z" transform="translate(0.898 0.036)" fill="#fff"/>
    <path id="Path_10533" data-name="Path 10533" d="M37.738,6.191A5.471,5.471,0,0,1,42.8.337H43.2A5.273,5.273,0,0,1,48.674,5.4v.583a5.452,5.452,0,0,1-5.252,5.644H43.2a5.273,5.273,0,0,1-5.464-5.073V6.172M32.477,61.934c5.464,0,6.965-.943,6.965-3.207V29.166c0-2.828-1.315-4.708-6.965-4.708V21.424l14.886-.379V58.712c0,2.264,1.314,3.207,6.965,3.207v3.009H32.477Z" transform="translate(3.503 0.036)" fill="#fff"/>
    <path id="Path_10534" data-name="Path 10534" d="M63.062,36.992l20.531-.372c.943-8.1-2.618-15.067-9.44-15.067S63.794,26.069,63.037,36.991m-8.684,4.522c0-13.025,8.063-22.949,20.338-22.949S92.957,29.486,92.014,39.845H63.062v.564c0,10.545,5.086,18.08,14.5,18.08,5.272,0,9.608-3.392,13.373-8.1l1.861,1.86c-3.578,5.836-8.479,11.3-18.081,11.3-13.183,0-20.338-9.6-20.338-22.218" transform="translate(5.862 2.002)" fill="#fff"/>
    <path id="Path_10535" data-name="Path 10535" d="M125.432,57.071V29.01a10.712,10.712,0,0,0-9.787-5.458c-6.779,0-12.623,6.965-12.623,19.774s4.9,17.888,13.373,17.888a13.341,13.341,0,0,0,9.037-4.143M94.172,43.887c0-13.183,8.287-23.352,21.089-23.352a18.27,18.27,0,0,1,10.166,2.636V8.107c0-2.823-1.694-4.522-7.344-4.707V.373L133.527,0V58.751c0,2.264,1.321,3.207,6.779,3.393v2.823l-14.688.378V60.258a16.932,16.932,0,0,1-12.808,5.465c-11.673,0-18.645-9.608-18.645-21.846" transform="translate(10.156)" fill="#fff"/>
  </g>
</svg>
