    <svg xmlns="http://www.w3.org/2000/svg" width="87" height="53" viewBox="0 0 87 53" fill="none">
        <path d="M0.771729 1.13397H6.22277V15.7473H15.7463V20.5014H0.771729V1.13397Z" fill="#1D1D1B"></path>
        <path
            d="M68.21 1.13397H73.1476L81.0017 11.3718V1.13397H86.2394V20.5014H81.6019L73.4477 9.87794V20.5014H68.21V1.13397Z"
            fill="#1D1D1B"></path>
        <path
            d="M0.715576 24.5259H8.30015C15.3244 24.5259 19.3968 28.5088 19.3968 34.0988V34.1542C19.3968 39.7441 15.2681 43.8933 8.18761 43.8933H0.715576V24.5259ZM8.38455 39.1323C11.6435 39.1323 13.8075 37.3613 13.8075 34.235V34.1796C13.8075 31.081 11.6435 29.2823 8.38455 29.2823H6.16428V39.1323H8.38455Z"
            fill="#1D1D1B"></path>
        <path
            d="M68.4563 24.5698H73.3939L81.2481 34.8053V24.5698H86.4858V43.9372H81.8483L73.694 33.3137V43.9372H68.4563V24.5698Z"
            fill="#1D1D1B"></path>
        <path
            d="M3.71432 51.7599C3.74011 51.7599 3.7659 51.7645 3.79169 51.7737C3.81748 51.7829 3.84092 51.7991 3.86437 51.8222L4.29342 52.2655C4.10586 52.5056 3.8714 52.6881 3.59006 52.8104C3.30872 52.9328 2.97345 52.9951 2.58894 52.9951C2.23492 52.9951 1.91841 52.9351 1.63941 52.8174C1.36041 52.6996 1.12126 52.5357 0.926668 52.3255C0.732071 52.1177 0.582021 51.8684 0.478862 51.5821C0.373358 51.2958 0.321777 50.984 0.321777 50.6493C0.321777 50.3145 0.378046 49.9935 0.490584 49.7072C0.603122 49.4209 0.76255 49.1738 0.966524 48.966C1.1705 48.7582 1.41668 48.5966 1.70036 48.4812C1.9864 48.3657 2.30057 48.308 2.64287 48.308C2.81871 48.308 2.98283 48.3241 3.13756 48.3542C3.2923 48.3842 3.43532 48.4257 3.5713 48.4812C3.70494 48.5343 3.8292 48.5989 3.94174 48.6751C4.05428 48.7513 4.15509 48.8321 4.24184 48.9199L3.87844 49.4001C3.85499 49.4301 3.82686 49.4555 3.79638 49.4809C3.7659 49.5063 3.71901 49.5179 3.66274 49.5179C3.62523 49.5179 3.58771 49.5086 3.55489 49.4925C3.51972 49.4763 3.48456 49.4555 3.44704 49.4301C3.40953 49.4047 3.36733 49.3793 3.32044 49.3516C3.27355 49.3239 3.21962 49.2962 3.15867 49.2731C3.09536 49.25 3.02268 49.2293 2.93828 49.2108C2.85388 49.1946 2.7554 49.1854 2.64287 49.1854C2.46468 49.1854 2.30057 49.2177 2.15286 49.2824C2.00515 49.347 1.8762 49.4417 1.76836 49.5664C1.66051 49.691 1.57845 49.8434 1.51983 50.0258C1.46122 50.2082 1.43309 50.4137 1.43309 50.6469C1.43309 50.8801 1.46591 51.0903 1.53156 51.2727C1.5972 51.4551 1.68395 51.6098 1.79649 51.7345C1.90903 51.8591 2.03798 51.9538 2.18803 52.0185C2.33808 52.0831 2.49751 52.1154 2.66631 52.1154C2.76478 52.1154 2.85388 52.1108 2.93359 52.1016C3.0133 52.0923 3.09067 52.0762 3.16101 52.0554C3.23135 52.0346 3.29699 52.0046 3.35795 51.9677C3.41891 51.9307 3.48221 51.8845 3.54551 51.8268C3.5713 51.806 3.59944 51.7876 3.62757 51.776C3.65805 51.7622 3.68853 51.7552 3.72135 51.7552L3.71432 51.7599Z"
            fill="#1D1D1B"></path>
        <path d="M8.27208 52.097V52.9467H5.46802V48.3634H6.54885V52.097H8.27443H8.27208Z"
            fill="#1D1D1B"></path>
        <path d="M10.5557 52.9467H9.47021V48.3634H10.5557V52.9467Z" fill="#1D1D1B"></path>
        <path
            d="M17.4299 48.3611V52.9443H16.478V50.3075C16.478 50.2475 16.478 50.1805 16.4827 50.109C16.485 50.0374 16.4921 49.9658 16.5014 49.8919L15.2659 52.2493C15.2284 52.3232 15.1768 52.3786 15.1111 52.4156C15.0455 52.4525 14.9728 52.4733 14.8884 52.4733H14.7407C14.6586 52.4733 14.5836 52.4548 14.518 52.4156C14.4523 52.3786 14.4007 52.3232 14.3632 52.2493L13.1277 49.8873C13.1347 49.9635 13.1394 50.0374 13.1441 50.109C13.1488 50.1805 13.1511 50.2475 13.1511 50.3098V52.9466H12.1992V48.3634H13.0245C13.0714 48.3634 13.1136 48.3634 13.1464 48.3657C13.1816 48.3657 13.2121 48.3749 13.2402 48.3842C13.2683 48.3957 13.2918 48.4119 13.3152 48.4327C13.3387 48.4558 13.3598 48.4858 13.3809 48.525L14.5789 50.8501C14.6211 50.9286 14.6633 51.0118 14.7008 51.0995C14.7407 51.1849 14.7782 51.2727 14.8134 51.3627C14.8485 51.2704 14.8884 51.1803 14.9259 51.0926C14.9634 51.0048 15.008 50.9217 15.0525 50.8409L16.2482 48.525C16.2693 48.4858 16.2904 48.4534 16.3139 48.4327C16.3373 48.4119 16.3608 48.3934 16.3889 48.3842C16.417 48.3749 16.4475 48.368 16.4827 48.3657C16.5179 48.3657 16.5577 48.3634 16.6046 48.3634H17.4299V48.3611Z"
            fill="#1D1D1B"></path>
        <path
            d="M23.2443 52.9467H22.4074C22.3136 52.9467 22.2385 52.9259 22.1799 52.882C22.1213 52.8381 22.0791 52.785 22.0486 52.7158L21.7743 51.9169H20.0042L19.7299 52.7158C19.7064 52.7735 19.6642 52.8266 19.6033 52.8751C19.5423 52.9213 19.4673 52.9467 19.3782 52.9467H18.5342L20.3371 48.3634H21.4414L23.2443 52.9467ZM21.5282 51.1942L21.0968 49.9381C21.0639 49.8596 21.0311 49.7649 20.9936 49.6564C20.9584 49.5479 20.9209 49.4324 20.8857 49.3055C20.8529 49.4324 20.8201 49.5525 20.7826 49.661C20.7474 49.7695 20.7123 49.8642 20.6794 49.945L20.2504 51.1942H21.5258H21.5282Z"
            fill="#1D1D1B"></path>
        <path
            d="M27.2067 49.2062H25.8961V52.9467H24.8152V49.2062H23.5046V48.3634H27.2043V49.2062H27.2067Z"
            fill="#1D1D1B"></path>
        <path
            d="M29.4901 49.1808V50.2498H30.9531V51.0372H29.4901V52.1293H31.4009V52.9467H28.4045V48.3634H31.4009V49.1808H29.4901Z"
            fill="#1D1D1B"></path>
        <path
            d="M39.2505 52.9467H38.4135C38.3197 52.9467 38.2446 52.9259 38.186 52.882C38.1274 52.8381 38.0852 52.785 38.0547 52.7158L37.7804 51.9169H36.0103L35.736 52.7158C35.7125 52.7735 35.6703 52.8266 35.6094 52.8751C35.5484 52.9213 35.4734 52.9467 35.3843 52.9467H34.5403L36.3432 48.3634H37.4475L39.2505 52.9467ZM37.5343 51.1942L37.1029 49.9381C37.07 49.8596 37.0372 49.7649 36.9997 49.6564C36.9645 49.5479 36.927 49.4324 36.8919 49.3055C36.859 49.4324 36.8262 49.5525 36.7887 49.661C36.7535 49.7695 36.7184 49.8642 36.6855 49.945L36.2565 51.1942H37.5319H37.5343Z"
            fill="#1D1D1B"></path>
        <path
            d="M43.323 51.7599C43.3488 51.7599 43.3745 51.7645 43.4003 51.7737C43.4261 51.7829 43.4496 51.7991 43.473 51.8222L43.9021 52.2655C43.7145 52.5056 43.48 52.6881 43.1987 52.8104C42.9174 52.9328 42.5821 52.9951 42.1976 52.9951C41.8436 52.9951 41.5271 52.9351 41.2481 52.8174C40.9691 52.6996 40.7299 52.5357 40.5353 52.3255C40.3407 52.1177 40.1907 51.8684 40.0875 51.5821C39.982 51.2958 39.9304 50.984 39.9304 50.6493C39.9304 50.3145 39.9867 49.9935 40.0992 49.7072C40.2118 49.4209 40.3712 49.1738 40.5752 48.966C40.7791 48.7582 41.0253 48.5966 41.309 48.4812C41.595 48.3657 41.9092 48.308 42.2515 48.308C42.4274 48.308 42.5915 48.3241 42.7462 48.3542C42.9009 48.3842 43.044 48.4257 43.1799 48.4812C43.3136 48.5343 43.4378 48.5989 43.5504 48.6751C43.6629 48.7513 43.7637 48.8321 43.8505 48.9199L43.4871 49.4001C43.4636 49.4301 43.4355 49.4555 43.405 49.4809C43.3745 49.5063 43.3277 49.5179 43.2714 49.5179C43.2339 49.5179 43.1964 49.5086 43.1635 49.4925C43.1284 49.4763 43.0932 49.4555 43.0557 49.4301C43.0182 49.4047 42.976 49.3793 42.9291 49.3516C42.8822 49.3239 42.8283 49.2962 42.7673 49.2731C42.704 49.25 42.6313 49.2293 42.5469 49.2108C42.4625 49.1946 42.364 49.1854 42.2515 49.1854C42.0733 49.1854 41.9092 49.2177 41.7615 49.2824C41.6138 49.347 41.4848 49.4417 41.377 49.5664C41.2691 49.691 41.1871 49.8434 41.1285 50.0258C41.0699 50.2082 41.0417 50.4137 41.0417 50.6469C41.0417 50.8801 41.0746 51.0903 41.1402 51.2727C41.2058 51.4551 41.2926 51.6098 41.4051 51.7345C41.5177 51.8591 41.6466 51.9538 41.7967 52.0185C41.9467 52.0831 42.1061 52.1154 42.275 52.1154C42.3734 52.1154 42.4625 52.1108 42.5422 52.1016C42.6219 52.0923 42.6993 52.0762 42.7697 52.0554C42.84 52.0346 42.9056 52.0046 42.9666 51.9677C43.0275 51.9307 43.0909 51.8845 43.1542 51.8268C43.1799 51.806 43.2081 51.7876 43.2362 51.776C43.2667 51.7622 43.2972 51.7552 43.33 51.7552L43.323 51.7599Z"
            fill="#1D1D1B"></path>
        <path
            d="M48.5582 49.2062H47.2476V52.9467H46.1668V49.2062H44.8562V48.3634H48.5559V49.2062H48.5582Z"
            fill="#1D1D1B"></path>
        <path d="M50.8419 52.9467H49.7563V48.3634H50.8419V52.9467Z" fill="#1D1D1B"></path>
        <path
            d="M57.0688 50.6516C57.0688 50.9841 57.0102 51.2911 56.8953 51.5774C56.7804 51.8638 56.6163 52.1108 56.4053 52.3209C56.1943 52.531 55.9411 52.6973 55.6433 52.8174C55.3456 52.9374 55.0173 52.9974 54.6539 52.9974C54.2905 52.9974 53.9623 52.9374 53.6645 52.8174C53.3668 52.6973 53.1112 52.5333 52.9002 52.3209C52.6892 52.1108 52.5251 51.8614 52.4079 51.5774C52.2906 51.2911 52.2344 50.9841 52.2344 50.6516C52.2344 50.3191 52.293 50.012 52.4079 49.7257C52.5251 49.4394 52.6869 49.1923 52.9002 48.9822C53.1112 48.7721 53.3668 48.6081 53.6645 48.4881C53.9623 48.368 54.2929 48.308 54.6539 48.308C55.015 48.308 55.3456 48.368 55.6433 48.4881C55.9411 48.6081 56.1943 48.7744 56.4053 48.9845C56.6163 49.1946 56.7804 49.4417 56.8953 49.728C57.0102 50.0143 57.0688 50.3214 57.0688 50.6493V50.6516ZM55.9622 50.6516C55.9622 50.4253 55.9317 50.2198 55.8731 50.0397C55.8145 49.8573 55.7277 49.7049 55.6152 49.5779C55.5027 49.4532 55.3667 49.3562 55.2049 49.2893C55.0431 49.2223 54.8579 49.1877 54.6516 49.1877C54.4453 49.1877 54.2577 49.2223 54.0936 49.2893C53.9318 49.3562 53.7935 49.4532 53.681 49.5779C53.5684 49.7049 53.484 49.8573 53.4231 50.0397C53.3644 50.2221 53.334 50.4253 53.334 50.6516C53.334 50.8778 53.3644 51.0856 53.4231 51.2657C53.4817 51.4481 53.5684 51.6005 53.681 51.7275C53.7935 51.8545 53.9295 51.9492 54.0936 52.0161C54.2577 52.0831 54.4429 52.1154 54.6516 52.1154C54.8603 52.1154 55.0431 52.0831 55.2049 52.0161C55.3667 51.9492 55.5027 51.8545 55.6152 51.7275C55.7277 51.6005 55.8121 51.4481 55.8731 51.2657C55.9317 51.0833 55.9622 50.8801 55.9622 50.6516Z"
            fill="#1D1D1B"></path>
        <path
            d="M62.5152 48.3611V52.9443H61.9525C61.8705 52.9443 61.8001 52.9305 61.7439 52.9051C61.6876 52.8797 61.6313 52.8335 61.5751 52.7689L59.3806 50.0351C59.39 50.1159 59.3946 50.1967 59.3993 50.2729C59.4017 50.3491 59.404 50.4207 59.404 50.4876V52.9443H58.4521V48.3611H59.0219C59.0688 48.3611 59.1086 48.3611 59.1391 48.368C59.1719 48.3726 59.2001 48.3796 59.2258 48.3911C59.2516 48.4026 59.2751 48.4188 59.2985 48.4396C59.322 48.4604 59.3478 48.4881 59.3782 48.525L61.5915 51.2773C61.5798 51.1895 61.5727 51.1041 61.568 51.021C61.5633 50.9379 61.561 50.8594 61.561 50.7878V48.3611H62.5129H62.5152Z"
            fill="#1D1D1B"></path>
        <path
            d="M72.7679 48.3611L71.3307 52.9443H70.353L69.4785 50.1043C69.4621 50.0605 69.4457 50.012 69.4316 49.9589C69.4176 49.9058 69.4011 49.8503 69.3871 49.7903C69.373 49.848 69.3566 49.9058 69.3425 49.9589C69.3285 50.012 69.3121 50.0605 69.2956 50.1043L68.4071 52.9443H67.4294L65.9922 48.3611H66.8995C66.9933 48.3611 67.0707 48.3819 67.134 48.4234C67.1973 48.465 67.2371 48.5204 67.2559 48.5897L67.896 50.9817C67.9147 51.0579 67.9335 51.1387 67.9546 51.2288C67.9733 51.3188 67.9921 51.4112 68.0132 51.5082C68.0507 51.3119 68.0976 51.1364 68.1538 50.9817L68.9088 48.5897C68.9275 48.5319 68.9698 48.4788 69.0307 48.4303C69.094 48.3842 69.169 48.3588 69.2581 48.3588H69.577C69.6708 48.3588 69.7458 48.3795 69.8044 48.4234C69.863 48.4673 69.9052 48.5204 69.9357 48.5897L70.6836 50.9817C70.7399 51.1295 70.7868 51.2957 70.8243 51.4828C70.8407 51.3881 70.8594 51.3004 70.8759 51.2172C70.8946 51.1341 70.9134 51.0556 70.9321 50.984L71.5722 48.592C71.5886 48.5319 71.6308 48.4765 71.6941 48.4303C71.7574 48.3842 71.8348 48.3611 71.9239 48.3611H72.7726H72.7679Z"
            fill="#1D1D1B"></path>
        <path
            d="M75.0093 49.1808V50.2498H76.4723V51.0372H75.0093V52.1293H76.9201V52.9467H73.9238V48.3634H76.9201V49.1808H75.0093Z"
            fill="#1D1D1B"></path>
        <path
            d="M79.4381 49.1808V50.2498H80.9011V51.0372H79.4381V52.1293H81.3489V52.9467H78.3525V48.3634H81.3489V49.1808H79.4381Z"
            fill="#1D1D1B"></path>
        <path
            d="M83.8623 50.2175H84.0358C84.1953 50.2175 84.3101 50.169 84.3805 50.0697L85.4285 48.5712C85.4894 48.4927 85.5574 48.4373 85.6278 48.4073C85.6981 48.3772 85.7872 48.3611 85.895 48.3611H86.8352L85.4543 50.2152C85.3558 50.3422 85.2503 50.4345 85.1377 50.4922C85.2175 50.5223 85.2925 50.5615 85.3581 50.6146C85.4238 50.6677 85.4847 50.7347 85.5434 50.8201L86.9501 52.9466H85.9841C85.9232 52.9466 85.8692 52.942 85.827 52.9351C85.7825 52.9259 85.745 52.9143 85.7145 52.8982C85.6817 52.882 85.6559 52.8612 85.6324 52.8358C85.609 52.8127 85.5856 52.7827 85.5645 52.7527L84.5094 51.1572C84.4719 51.0995 84.4227 51.0579 84.3641 51.0325C84.3054 51.0071 84.2257 50.9956 84.1249 50.9956H83.8623V52.9466H82.7815V48.3634H83.8623V50.2198V50.2175Z"
            fill="#1D1D1B"></path>
        <path
            d="M31.5039 16.0636C32.0666 15.1215 32.7488 14.258 33.5319 13.4937L26.8805 6.31293C25.2065 7.88763 23.781 9.714 22.658 11.7251L31.5015 16.0636H31.5039Z"
            fill="#62B134"></path>
        <path
            d="M47.8079 10.9909C48.8137 11.4457 49.7515 12.0253 50.5955 12.711L57.2657 5.53944C55.5097 4.04786 53.5168 2.81719 51.3551 1.90747L47.8079 10.9885V10.9909Z"
            fill="#E4B634"></path>
        <path
            d="M63.0801 13.1497L54.2412 17.4882C54.6632 18.458 54.9633 19.4901 55.1251 20.5637L64.9581 19.6494C64.6674 17.3566 64.0226 15.17 63.0801 13.1474"
            fill="#C41B2D"></path>
        <path
            d="M53.6084 16.2298L62.4473 11.8913C61.3524 9.88718 59.955 8.06773 58.3162 6.49072L51.646 13.66C52.4056 14.4289 53.0668 15.2924 53.606 16.2298"
            fill="#4B9E37"></path>
        <path
            d="M29.7479 22.4178C29.7479 22.2215 29.755 22.0252 29.762 21.8313L19.9267 20.9631C19.8962 21.4434 19.8774 21.9283 19.8774 22.4155C19.8774 24.2742 20.1119 26.0774 20.548 27.8022L30.0457 25.1192C29.8511 24.2465 29.7456 23.3437 29.7456 22.4155"
            fill="#3E7E45"></path>
        <path
            d="M52.3704 30.3767C51.6717 31.2149 50.8652 31.9606 49.9719 32.5979L55.1651 40.8778C57.0923 39.5917 58.8085 38.0216 60.2504 36.2276L52.3704 30.3767Z"
            fill="#FBC10D"></path>
        <path
            d="M55.2635 22.4178C55.2635 23.3345 55.1627 24.228 54.9705 25.0892L64.4682 27.7769C64.9019 26.059 65.1317 24.265 65.1317 22.4178C65.1317 21.9583 65.1153 21.5035 65.0871 21.0509L55.2541 21.9652C55.2588 22.1176 55.2635 22.2677 55.2635 22.4178Z"
            fill="#E7412E"></path>
        <path
            d="M32.8029 30.5637L24.9417 36.4469C26.4046 38.2202 28.1349 39.7649 30.0762 41.0278L35.267 32.7572C34.3526 32.1338 33.5226 31.3972 32.8029 30.5637Z"
            fill="#F49C2C"></path>
        <path
            d="M29.9074 20.4321C30.0833 19.3376 30.4045 18.2917 30.85 17.3127L22.0134 12.9765C21.0381 15.0222 20.3675 17.2365 20.0627 19.5616L29.9074 20.4321Z"
            fill="#1595D3"></path>
        <path
            d="M53.9553 41.6282L48.7692 33.3599C47.8267 33.884 46.8115 34.295 45.7424 34.5697L47.5735 44.1357C49.8501 43.6208 51.9976 42.7665 53.9553 41.6282Z"
            fill="#A21A43"></path>
        <path
            d="M54.5931 26.4446C54.2484 27.4397 53.7842 28.3772 53.2122 29.243L61.0968 35.1008C62.3769 33.2883 63.3898 31.2795 64.0814 29.1299L54.5907 26.4446H54.5931Z"
            fill="#2CBADF"></path>
        <path
            d="M44.3474 34.8491C43.7472 34.9346 43.1329 34.9807 42.5069 34.9807C42.0052 34.9807 41.5081 34.9507 41.0228 34.893L39.1941 44.4589C40.2773 44.6159 41.3815 44.6991 42.5093 44.6991C43.7589 44.6991 44.9828 44.5975 46.1785 44.4058L44.3497 34.8491H44.3474Z"
            fill="#EC692F"></path>
        <path
            d="M43.3228 9.87791C44.4177 9.94718 45.4774 10.1527 46.4808 10.4782L50.0281 1.39947C47.918 0.665224 45.6673 0.231143 43.3228 0.15033V9.87791Z"
            fill="#E5233B"></path>
        <path
            d="M39.6161 34.6552C38.5095 34.4012 37.4591 34.0064 36.4838 33.4892L31.2883 41.7644C33.2859 42.8912 35.471 43.7247 37.7874 44.2119L39.6138 34.6575L39.6161 34.6552Z"
            fill="#DC1668"></path>
        <path
            d="M38.6713 10.4321C39.6959 10.1134 40.7767 9.91948 41.895 9.86637V0.138794C39.52 0.201135 37.2388 0.625981 35.1006 1.35792L38.6713 10.4298V10.4321Z"
            fill="#18486A"></path>
        <path
            d="M31.9377 29.4439C31.3117 28.5319 30.8006 27.5344 30.4325 26.4723L20.9395 29.1553C21.6592 31.3857 22.7236 33.4615 24.0741 35.3271L31.9353 29.4439H31.9377Z"
            fill="#C7982C"></path>
        <path
            d="M34.6011 12.5609C35.4357 11.9098 36.3524 11.3626 37.3371 10.9308L33.7687 1.86359C31.6423 2.74329 29.6846 3.9324 27.9473 5.37549L34.6034 12.5632L34.6011 12.5609Z"
            fill="#00689D"></path>
    </svg>
