<svg id="Group_3697" data-name="Group 3697" xmlns="http://www.w3.org/2000/svg" xmlns:xlink="http://www.w3.org/1999/xlink" width="160" height="97.628" viewBox="0 0 160 97.628">
  <defs>
    <clipPath id="clip-path">
      <rect id="Rectangle_4020" data-name="Rectangle 4020" width="160" height="97.628" fill="none"/>
    </clipPath>
  </defs>
  <path id="Path_10495" data-name="Path 10495" d="M1.132,2.5H11.574V30.5H29.819v9.107H1.132Z" transform="translate(-0.27 -0.597)" fill="#fff"/>
  <path id="Path_10496" data-name="Path 10496" d="M170.789,2.5h9.459l15.046,19.613V2.5h10.033v37.1h-8.884L180.823,19.255V39.606H170.789Z" transform="translate(-46.69 -0.597)" fill="#fff"/>
  <g id="Group_3696" data-name="Group 3696">
    <g id="Group_3695" data-name="Group 3695" clip-path="url(#clip-path)">
      <path id="Path_10497" data-name="Path 10497" d="M.991,61.351H15c12.973,0,20.495,7.356,20.495,17.681v.1c0,10.325-7.626,17.988-20.7,17.988H.991ZM15.155,88.329c6.019,0,10.016-3.271,10.016-9.045v-.1c0-5.723-4-9.045-10.016-9.045h-4.1V88.329Z" transform="translate(-0.263 -16.309)" fill="#fff"/>
      <path id="Path_10498" data-name="Path 10498" d="M171.408,61.462h9.12l14.506,18.9v-18.9h9.673V97.233h-8.565L181.083,77.611V97.233h-9.674Z" transform="translate(-45.566 -16.339)" fill="#fff"/>
      <path id="Path_10499" data-name="Path 10499" d="M6.266,127.556a.428.428,0,0,1,.143.026.366.366,0,0,1,.134.09l.793.819a3.293,3.293,0,0,1-1.3,1.007,4.616,4.616,0,0,1-1.849.341,4.476,4.476,0,0,1-1.754-.328,3.762,3.762,0,0,1-1.316-.908,3.946,3.946,0,0,1-.827-1.373A4.962,4.962,0,0,1,0,125.505a4.767,4.767,0,0,1,.312-1.74,4.047,4.047,0,0,1,.879-1.369,3.983,3.983,0,0,1,1.355-.895,4.6,4.6,0,0,1,1.741-.32,4.748,4.748,0,0,1,.913.085,4.25,4.25,0,0,1,.8.235,3.573,3.573,0,0,1,.684.358,3.661,3.661,0,0,1,.554.452l-.671.887a.979.979,0,0,1-.152.15.383.383,0,0,1-.247.068.461.461,0,0,1-.2-.047,1.377,1.377,0,0,1-.2-.115c-.07-.047-.148-.094-.234-.145a1.987,1.987,0,0,0-.3-.145,3.234,3.234,0,0,0-.407-.115,2.9,2.9,0,0,0-.545-.047,2.244,2.244,0,0,0-.905.179,1.984,1.984,0,0,0-.711.525,2.4,2.4,0,0,0-.459.848,3.746,3.746,0,0,0-.16,1.147,3.415,3.415,0,0,0,.182,1.156,2.536,2.536,0,0,0,.489.853,2.068,2.068,0,0,0,.723.525,2.219,2.219,0,0,0,.883.178,4.375,4.375,0,0,0,.494-.025,2.527,2.527,0,0,0,.42-.086,1.528,1.528,0,0,0,.363-.161,2.216,2.216,0,0,0,.347-.261.637.637,0,0,1,.152-.093.406.406,0,0,1,.173-.039Z" transform="translate(0 -32.214)" fill="#fff"/>
      <path id="Path_10500" data-name="Path 10500" d="M18.126,128.216v1.57H12.947V121.32h2v6.9h3.183Z" transform="translate(-3.442 -32.251)" fill="#fff"/>
      <rect id="Rectangle_4018" data-name="Rectangle 4018" width="2.005" height="8.465" transform="translate(16.897 89.069)" fill="#fff"/>
      <path id="Path_10501" data-name="Path 10501" d="M39.542,121.314v8.465H37.784v-4.87c0-.111,0-.235.009-.367s.018-.264.035-.4L35.545,128.5a.707.707,0,0,1-.286.307.821.821,0,0,1-.412.106h-.272a.787.787,0,0,1-.412-.106.707.707,0,0,1-.286-.307L31.6,124.133c.013.14.022.277.03.409s.014.256.014.371v4.87H29.881v-8.465h1.524c.087,0,.164,0,.225,0a.551.551,0,0,1,.173.034.47.47,0,0,1,.138.09.707.707,0,0,1,.122.17l2.213,4.295c.078.145.156.3.225.46s.142.32.209.486c.065-.17.138-.337.208-.5a5.077,5.077,0,0,1,.233-.465l2.208-4.278a.612.612,0,0,1,.121-.17.405.405,0,0,1,.139-.09.678.678,0,0,1,.173-.034c.065,0,.139,0,.225,0h1.524Z" transform="translate(-7.943 -32.249)" fill="#fff"/>
      <path id="Path_10502" data-name="Path 10502" d="M54.517,129.786H52.972a.679.679,0,0,1-.421-.12.747.747,0,0,1-.242-.307l-.507-1.476H48.533l-.507,1.476a.735.735,0,0,1-.234.294.671.671,0,0,1-.416.132H45.818l3.329-8.466h2.04Zm-3.169-3.237-.8-2.32c-.061-.145-.122-.32-.191-.521s-.134-.413-.2-.648c-.061.234-.121.456-.191.656s-.13.375-.19.524l-.793,2.308h2.36Z" transform="translate(-12.18 -32.251)" fill="#fff"/>
      <path id="Path_10503" data-name="Path 10503" d="M65.159,122.877H62.739v6.908h-2v-6.908H58.321V121.32h6.834v1.556Z" transform="translate(-15.504 -32.251)" fill="#fff"/>
      <path id="Path_10504" data-name="Path 10504" d="M72.654,122.83V124.8h2.7v1.454h-2.7v2.017h3.529v1.509H70.649v-8.465h5.534v1.509Z" transform="translate(-18.781 -32.251)" fill="#fff"/>
      <path id="Path_10505" data-name="Path 10505" d="M94.785,129.786H93.239a.675.675,0,0,1-.42-.12.743.743,0,0,1-.243-.307l-.507-1.476H88.8l-.507,1.476a.734.734,0,0,1-.234.294.671.671,0,0,1-.416.132H86.085l3.33-8.466h2.04Zm-3.17-3.237-.8-2.32c-.061-.145-.122-.32-.191-.521s-.134-.413-.2-.648c-.061.234-.121.456-.191.656s-.13.375-.19.524l-.793,2.308h2.36Z" transform="translate(-22.884 -32.251)" fill="#fff"/>
      <path id="Path_10506" data-name="Path 10506" d="M105.911,127.556a.42.42,0,0,1,.142.026.369.369,0,0,1,.134.09l.793.819a3.293,3.293,0,0,1-1.3,1.007,4.616,4.616,0,0,1-1.849.341,4.476,4.476,0,0,1-1.754-.328,3.755,3.755,0,0,1-1.316-.908,3.946,3.946,0,0,1-.827-1.373,4.962,4.962,0,0,1-.29-1.723,4.767,4.767,0,0,1,.312-1.74,4.047,4.047,0,0,1,.879-1.369,3.984,3.984,0,0,1,1.355-.895,4.6,4.6,0,0,1,1.741-.32,4.75,4.75,0,0,1,.914.085,4.25,4.25,0,0,1,.8.235,3.573,3.573,0,0,1,.684.358,3.66,3.66,0,0,1,.554.452l-.671.887a.979.979,0,0,1-.152.15.382.382,0,0,1-.247.068.463.463,0,0,1-.2-.047,1.376,1.376,0,0,1-.2-.115c-.07-.047-.148-.094-.234-.145a1.988,1.988,0,0,0-.3-.145,3.234,3.234,0,0,0-.407-.115,2.907,2.907,0,0,0-.546-.047,2.243,2.243,0,0,0-.9.179,1.984,1.984,0,0,0-.711.525,2.4,2.4,0,0,0-.459.848,3.746,3.746,0,0,0-.16,1.147,3.415,3.415,0,0,0,.182,1.156,2.536,2.536,0,0,0,.489.853,2.068,2.068,0,0,0,.723.525,2.22,2.22,0,0,0,.884.178,4.371,4.371,0,0,0,.493-.025,2.527,2.527,0,0,0,.42-.086,1.528,1.528,0,0,0,.363-.161,2.216,2.216,0,0,0,.347-.261.638.638,0,0,1,.152-.093.406.406,0,0,1,.173-.039Z" transform="translate(-26.489 -32.214)" fill="#fff"/>
      <path id="Path_10507" data-name="Path 10507" d="M118.874,122.877h-2.421v6.908h-2v-6.908h-2.421V121.32h6.833v1.556Z" transform="translate(-29.783 -32.251)" fill="#fff"/>
      <rect id="Rectangle_4019" data-name="Rectangle 4019" width="2.005" height="8.465" transform="translate(91.304 89.069)" fill="#fff"/>
      <path id="Path_10508" data-name="Path 10508" d="M139.528,125.51a4.539,4.539,0,0,1-.321,1.71,4.033,4.033,0,0,1-.9,1.374,4.206,4.206,0,0,1-1.407.917,5.2,5.2,0,0,1-3.655,0,4.092,4.092,0,0,1-2.321-2.291,4.454,4.454,0,0,1-.32-1.71,4.539,4.539,0,0,1,.32-1.71,4.046,4.046,0,0,1,.91-1.374,4.2,4.2,0,0,1,1.412-.913,5.186,5.186,0,0,1,3.655,0,4.183,4.183,0,0,1,1.407.917,4.037,4.037,0,0,1,.9,1.373,4.531,4.531,0,0,1,.321,1.7Zm-2.044,0a3.664,3.664,0,0,0-.164-1.13,2.352,2.352,0,0,0-.476-.853,2.068,2.068,0,0,0-.758-.533,2.65,2.65,0,0,0-1.022-.188,2.712,2.712,0,0,0-1.031.188,2.084,2.084,0,0,0-.762.533,2.419,2.419,0,0,0-.476.853,3.979,3.979,0,0,0,0,2.264,2.358,2.358,0,0,0,.476.853,2.016,2.016,0,0,0,.762.533,2.71,2.71,0,0,0,1.031.184,2.649,2.649,0,0,0,1.022-.184,2.034,2.034,0,0,0,.758-.533,2.425,2.425,0,0,0,.476-.853,3.693,3.693,0,0,0,.164-1.134" transform="translate(-34.718 -32.214)" fill="#fff"/>
      <path id="Path_10509" data-name="Path 10509" d="M153.745,121.314v8.465h-1.04a.81.81,0,0,1-.7-.324l-4.053-5.05c.018.15.026.3.035.44s.009.272.009.4v4.537H146.24v-8.465h1.053a1.1,1.1,0,0,1,.217.012.63.63,0,0,1,.16.043.53.53,0,0,1,.134.09,1.414,1.414,0,0,1,.147.158l4.088,5.083c-.021-.162-.035-.319-.043-.473s-.013-.3-.013-.431v-4.482h1.763Z" transform="translate(-38.875 -32.249)" fill="#fff"/>
      <path id="Path_10510" data-name="Path 10510" d="M177.724,121.312l-2.655,8.465h-1.805l-1.615-5.246a2.62,2.62,0,0,1-.087-.268c-.026-.1-.057-.2-.082-.312-.026.107-.057.214-.082.312s-.057.187-.087.268l-1.642,5.246h-1.805l-2.655-8.465h1.676a.768.768,0,0,1,.433.115.517.517,0,0,1,.225.307l1.183,4.418c.035.14.069.29.108.456s.069.337.108.516a6.421,6.421,0,0,1,.26-.972l1.395-4.418a.644.644,0,0,1,.225-.294.693.693,0,0,1,.42-.132h.59a.677.677,0,0,1,.42.12.747.747,0,0,1,.242.307l1.381,4.418a5.762,5.762,0,0,1,.26.925c.031-.175.065-.336.1-.49s.07-.3.1-.43l1.182-4.418a.562.562,0,0,1,.225-.3.7.7,0,0,1,.424-.128h1.559Z" transform="translate(-43.918 -32.248)" fill="#fff"/>
      <path id="Path_10511" data-name="Path 10511" d="M187.168,122.83V124.8h2.7v1.454h-2.7v2.017H190.7v1.509h-5.534v-8.465H190.7v1.509Z" transform="translate(-49.222 -32.251)" fill="#fff"/>
      <path id="Path_10512" data-name="Path 10512" d="M198.31,122.83V124.8h2.7v1.454h-2.7v2.017h3.529v1.509H196.3v-8.465h5.534v1.509Z" transform="translate(-52.184 -32.251)" fill="#fff"/>
      <path id="Path_10513" data-name="Path 10513" d="M209.443,124.743h.32a.725.725,0,0,0,.637-.273l1.935-2.768a.948.948,0,0,1,.369-.3,1.253,1.253,0,0,1,.493-.085h1.736l-2.551,3.424a1.785,1.785,0,0,1-.584.512,1.462,1.462,0,0,1,.407.226,1.758,1.758,0,0,1,.342.38l2.6,3.928h-1.784a1.867,1.867,0,0,1-.29-.021.791.791,0,0,1-.208-.068.508.508,0,0,1-.152-.115,1.163,1.163,0,0,1-.126-.153l-1.948-2.947a.6.6,0,0,0-.269-.231,1.136,1.136,0,0,0-.441-.068h-.485v3.6h-2v-8.465h2v3.424Z" transform="translate(-55.146 -32.249)" fill="#fff"/>
      <path id="Path_10514" data-name="Path 10514" d="M72.53,33.541a23.417,23.417,0,0,1,3.746-4.746L63.991,15.532a41.5,41.5,0,0,0-7.8,10l16.334,8.013Z" transform="translate(-14.938 -4.129)" fill="#fff"/>
      <path id="Path_10515" data-name="Path 10515" d="M119.463,21.226a23.563,23.563,0,0,1,5.149,3.177L136.93,11.158a42.06,42.06,0,0,0-10.916-6.709l-6.552,16.773Z" transform="translate(-31.757 -1.183)" fill="#fff"/>
      <path id="Path_10516" data-name="Path 10516" d="M151.972,32.73l-16.325,8.013a22.722,22.722,0,0,1,1.632,5.68l18.162-1.689a40.475,40.475,0,0,0-3.469-12.01" transform="translate(-36.059 -8.7)" fill="#fff"/>
      <path id="Path_10517" data-name="Path 10517" d="M132.743,33.967l16.325-8.013a41.426,41.426,0,0,0-7.629-9.974l-12.32,13.242a23.282,23.282,0,0,1,3.62,4.746" transform="translate(-34.324 -4.248)" fill="#fff"/>
      <path id="Path_10518" data-name="Path 10518" d="M67.427,55.075c0-.363.013-.725.026-1.083l-18.166-1.6c-.056.888-.091,1.783-.091,2.683a40.534,40.534,0,0,0,1.239,9.949l17.542-4.956a22.925,22.925,0,0,1-.554-4.994" transform="translate(-13.078 -13.926)" fill="#fff"/>
      <path id="Path_10519" data-name="Path 10519" d="M129.337,76.07a23.625,23.625,0,0,1-4.43,4.1L134.5,95.465a41.86,41.86,0,0,0,9.392-8.589Z" transform="translate(-33.204 -20.222)" fill="#fff"/>
      <path id="Path_10520" data-name="Path 10520" d="M138.023,55.134a22.657,22.657,0,0,1-.541,4.934l17.542,4.964a40.379,40.379,0,0,0,1.225-9.9c0-.849-.03-1.689-.082-2.525L138.005,54.3c.009.282.018.559.018.836" transform="translate(-36.547 -13.985)" fill="#fff"/>
      <path id="Path_10521" data-name="Path 10521" d="M76.457,76.541,61.937,87.407a41.947,41.947,0,0,0,9.483,8.461l9.587-15.276a23.5,23.5,0,0,1-4.551-4.051" transform="translate(-16.465 -20.347)" fill="#fff"/>
      <path id="Path_10522" data-name="Path 10522" d="M67.846,46.066A22.57,22.57,0,0,1,69.587,40.3L53.266,32.3a40.449,40.449,0,0,0-3.6,12.162Z" transform="translate(-13.202 -8.585)" fill="#fff"/>
      <path id="Path_10523" data-name="Path 10523" d="M129.436,98.846l-9.579-15.271a23.564,23.564,0,0,1-5.59,2.235l3.382,17.668a41.764,41.764,0,0,0,11.787-4.631" transform="translate(-30.376 -22.217)" fill="#fff"/>
      <path id="Path_10524" data-name="Path 10524" d="M135.608,66.178a23.054,23.054,0,0,1-2.55,5.169l14.563,10.819a40.769,40.769,0,0,0,5.512-11.028L135.6,66.178Z" transform="translate(-35.371 -17.592)" fill="#fff"/>
      <path id="Path_10525" data-name="Path 10525" d="M107.311,87.322a24.1,24.1,0,0,1-3.4.243,23.129,23.129,0,0,1-2.741-.162l-3.377,17.668a42.58,42.58,0,0,0,12.9-.1l-3.378-17.651Z" transform="translate(-25.997 -23.213)" fill="#fff"/>
      <path id="Path_10526" data-name="Path 10526" d="M108.179,18a23.753,23.753,0,0,1,5.833,1.109l6.552-16.768A42.025,42.025,0,0,0,108.179.029Z" transform="translate(-28.758 -0.008)" fill="#fff"/>
      <path id="Path_10527" data-name="Path 10527" d="M93.285,86.054A23.622,23.622,0,0,1,87.5,83.9L77.9,99.185a42.019,42.019,0,0,0,12,4.52L93.28,86.059Z" transform="translate(-20.709 -22.304)" fill="#fff"/>
      <path id="Path_10528" data-name="Path 10528" d="M94.089,19.011a23.811,23.811,0,0,1,5.954-1.045V0A42.08,42.08,0,0,0,87.494,2.252l6.6,16.755Z" transform="translate(-23.259)" fill="#fff"/>
      <path id="Path_10529" data-name="Path 10529" d="M72.182,71.737a23.026,23.026,0,0,1-2.78-5.489L51.868,71.2a40.823,40.823,0,0,0,5.79,11.4l14.52-10.866Z" transform="translate(-13.788 -17.611)" fill="#fff"/>
      <path id="Path_10530" data-name="Path 10530" d="M81.788,24.1a23.638,23.638,0,0,1,5.053-3.011L80.251,4.339A41.846,41.846,0,0,0,69.5,10.825L81.793,24.1Z" transform="translate(-18.475 -1.153)" fill="#fff"/>
    </g>
  </g>
</svg>
