<svg id="Group_3694" data-name="Group 3694" xmlns="http://www.w3.org/2000/svg" xmlns:xlink="http://www.w3.org/1999/xlink" width="312" height="91.777" viewBox="0 0 312 91.777">
  <defs>
    <clipPath id="clip-path">
      <rect id="Rectangle_4017" data-name="Rectangle 4017" width="312" height="91.777" fill="none"/>
    </clipPath>
  </defs>
  <g id="Group_3693" data-name="Group 3693" transform="translate(0 0)" clip-path="url(#clip-path)">
    <path id="Path_10463" data-name="Path 10463" d="M58.275,49.709a6.7,6.7,0,0,1-4.1-1.218,7.3,7.3,0,0,1-2.462-3.4,14.542,14.542,0,0,1-.821-5.122,14.137,14.137,0,0,1,.834-5.082,7.326,7.326,0,0,1,2.5-3.389,6.82,6.82,0,0,1,4.129-1.216,6.419,6.419,0,0,1,3.758.913,2.628,2.628,0,0,1,1.27,2.157,1.919,1.919,0,0,1-.7,1.509,3.091,3.091,0,0,1-2.078.609,6.524,6.524,0,0,0-.225-1.707,2.921,2.921,0,0,0-.768-1.363,2.013,2.013,0,0,0-1.469-.529,2.766,2.766,0,0,0-2.7,2.144,18.307,18.307,0,0,0-.768,5.955,14.154,14.154,0,0,0,.953,5.916,3.332,3.332,0,0,0,3.256,1.971,4.325,4.325,0,0,0,1.919-.383,4.4,4.4,0,0,0,1.323-.979,7.881,7.881,0,0,0,.913-1.2,1.1,1.1,0,0,1,.251.463,2.039,2.039,0,0,1,.093.6,2.964,2.964,0,0,1-.45,1.469,3.557,3.557,0,0,1-1.575,1.337,7.059,7.059,0,0,1-3.084.556" transform="translate(5.233 3.114)" fill="#fff"/>
    <path id="Path_10464" data-name="Path 10464" d="M63.371,49.533v-1.3h.265a1.506,1.506,0,0,0,1.072-.384,2.143,2.143,0,0,0,.41-1.548V32.381a1.857,1.857,0,0,0-.251-1.085,1.232,1.232,0,0,0-.609-.463,2.011,2.011,0,0,0-.622-.119h-.265v-1.3h5.188V46.3a2.1,2.1,0,0,0,.423,1.548,1.554,1.554,0,0,0,1.085.384h.238v1.3Z" transform="translate(6.517 3.025)" fill="#fff"/>
    <path id="Path_10465" data-name="Path 10465" d="M69.852,49.543v-1.3h.238a1.592,1.592,0,0,0,1.112-.384,2.05,2.05,0,0,0,.424-1.522V38.479a2,2,0,0,0-.4-1.456,1.49,1.49,0,0,0-1.059-.372h-.344v-1.3H75.04V46.313a2.143,2.143,0,0,0,.41,1.548,1.543,1.543,0,0,0,1.1.384h.238v1.3Zm3.361-16.728a2.093,2.093,0,0,1-1.35-.423,1.935,1.935,0,0,1,0-2.66,2.139,2.139,0,0,1,1.35-.41,2.268,2.268,0,0,1,1.363.41,1.839,1.839,0,0,1,0,2.66,2.219,2.219,0,0,1-1.363.423" transform="translate(7.181 3.015)" fill="#fff"/>
    <path id="Path_10466" data-name="Path 10466" d="M77.866,49.009v-1.3h.185a1.794,1.794,0,0,0,1.125-.318q.41-.318.41-1.535V37.84c0-.776-.137-1.265-.41-1.469a1.851,1.851,0,0,0-1.125-.3h-.079V34.823H82.63l.291,1.985h.132a3.8,3.8,0,0,1,1.244-1.72,3.651,3.651,0,0,1,2.2-.582,3.414,3.414,0,0,1,1.945.543,3.156,3.156,0,0,1,1.178,1.84h.106a3.614,3.614,0,0,1,6.114-1.151,6.267,6.267,0,0,1,.979,3.9v6.194a2.308,2.308,0,0,0,.344,1.548,1.474,1.474,0,0,0,1.059.331H98.3v1.3H93.376V40.143a7.683,7.683,0,0,0-.357-2.634,1.337,1.337,0,0,0-2.342-.41,3.549,3.549,0,0,0-.582,1.4,9.187,9.187,0,0,0-.185,1.906v5.426a2.379,2.379,0,0,0,.331,1.548,1.424,1.424,0,0,0,1.045.331h.106v1.3h-4.9V40.143a7.957,7.957,0,0,0-.344-2.634,1.254,1.254,0,0,0-1.244-.94,1.289,1.289,0,0,0-1.085.582,3.838,3.838,0,0,0-.609,1.535,10.673,10.673,0,0,0-.185,2.038v5.241q0,1.138.384,1.443a1.781,1.781,0,0,0,1.125.3h.053v1.3Z" transform="translate(8.007 3.548)" fill="#fff"/>
    <path id="Path_10467" data-name="Path 10467" d="M101.1,49.274a3.142,3.142,0,0,1-2.382-1.045,4.612,4.612,0,0,1-.979-3.243,3.938,3.938,0,0,1,1.191-3.162,5.883,5.883,0,0,1,3.626-1.125l1.773-.079V39.137a6.853,6.853,0,0,0-.3-2.316,1.2,1.2,0,0,0-2.25-.04,5.481,5.481,0,0,0-.331,2.117q-2.806,0-2.806-1.747a2.121,2.121,0,0,1,1.3-1.985,7.062,7.062,0,0,1,3.229-.662,5.088,5.088,0,0,1,3.441,1.019,4.473,4.473,0,0,1,1.165,3.507v6.8a2.775,2.775,0,0,0,.278,1.482,1.162,1.162,0,0,0,1.019.4h.079v1.3H104.99l-.45-1.959h-.212a9.3,9.3,0,0,1-1.35,1.641,2.7,2.7,0,0,1-1.879.582m1.3-1.694a1.6,1.6,0,0,0,1.429-1.019,5.638,5.638,0,0,0,.529-2.607V41.916l-.9.079a2.085,2.085,0,0,0-1.72.873,4.312,4.312,0,0,0-.476,2.25,4.743,4.743,0,0,0,.278,1.8.914.914,0,0,0,.86.663" transform="translate(10.051 3.548)" fill="#fff"/>
    <path id="Path_10468" data-name="Path 10468" d="M112.148,49.548a3.325,3.325,0,0,1-2.5-.913,4.631,4.631,0,0,1-.887-3.243v-8.76h-1.615V35.494a2.937,2.937,0,0,0,1.323-.371,3.293,3.293,0,0,0,.873-.741,5.009,5.009,0,0,0,.543-.98,6.751,6.751,0,0,0,.41-1.562H112.2V35.1h2.753v1.535H112.2v8.549a4.121,4.121,0,0,0,.3,1.84,1.11,1.11,0,0,0,1.072.569,5.032,5.032,0,0,0,1.588-.238v1.615a6.1,6.1,0,0,1-1.138.383,7.614,7.614,0,0,1-1.879.2" transform="translate(11.018 3.274)" fill="#fff"/>
    <path id="Path_10469" data-name="Path 10469" d="M121.354,49.274a4.951,4.951,0,0,1-4.248-1.906,8.817,8.817,0,0,1-1.416-5.347,9.323,9.323,0,0,1,1.416-5.624,4.714,4.714,0,0,1,4.01-1.894,4.646,4.646,0,0,1,3.758,1.642,7.236,7.236,0,0,1,1.376,4.764v1.218h-7.093a8.6,8.6,0,0,0,.82,4.076,2.441,2.441,0,0,0,2.223,1.3,2.518,2.518,0,0,0,1.8-.648,4.352,4.352,0,0,0,1.059-1.575,1.245,1.245,0,0,1,.543.357,1.015,1.015,0,0,1,.225.7,2.4,2.4,0,0,1-.45,1.337,3.4,3.4,0,0,1-1.442,1.138,6.158,6.158,0,0,1-2.581.463m-2.144-8.682h3.626a10.946,10.946,0,0,0-.357-3.3q-.384-1.231-1.284-1.231t-1.429,1.178a8.677,8.677,0,0,0-.556,3.348" transform="translate(11.897 3.548)" fill="#fff"/>
    <path id="Path_10470" data-name="Path 10470" d="M131.673,49.419v-1.3h.662a1.655,1.655,0,0,0,.926-.278q.423-.278.423-1.363v-13q0-1.084-.45-1.376a1.646,1.646,0,0,0-.9-.291h-.662v-1.3h7.093q3.388,0,4.777,1.27a4.769,4.769,0,0,1,1.39,3.706,6.405,6.405,0,0,1-.423,2.5,4.2,4.2,0,0,1-1.125,1.588,4.753,4.753,0,0,1-1.548.887l2.647,5.452a7.77,7.77,0,0,0,.993,1.654,1.356,1.356,0,0,0,1.045.543h.132v1.3h-.768a8.207,8.207,0,0,1-2.951-.45,3.233,3.233,0,0,1-1.76-1.932l-2.514-5.849h-1.4v5.294q0,1.085.344,1.363a1.432,1.432,0,0,0,.926.278h.423v1.3Zm5.585-9.687h1.032a2.46,2.46,0,0,0,2.2-1.019,5.382,5.382,0,0,0,.688-3q0-3.734-2.806-3.733h-1.112Z" transform="translate(13.541 3.138)" fill="#fff"/>
    <path id="Path_10471" data-name="Path 10471" d="M151.762,49.274a4.951,4.951,0,0,1-4.248-1.906,8.817,8.817,0,0,1-1.416-5.347,9.323,9.323,0,0,1,1.416-5.624,4.714,4.714,0,0,1,4.01-1.894,4.646,4.646,0,0,1,3.758,1.642,7.236,7.236,0,0,1,1.376,4.764v1.218h-7.093a8.6,8.6,0,0,0,.821,4.076,2.441,2.441,0,0,0,2.223,1.3,2.518,2.518,0,0,0,1.8-.648,4.353,4.353,0,0,0,1.059-1.575,1.245,1.245,0,0,1,.543.357,1.015,1.015,0,0,1,.225.7,2.4,2.4,0,0,1-.45,1.337,3.4,3.4,0,0,1-1.443,1.138,6.158,6.158,0,0,1-2.581.463m-2.144-8.682h3.626a10.947,10.947,0,0,0-.357-3.3q-.384-1.231-1.284-1.231t-1.429,1.178a8.677,8.677,0,0,0-.556,3.348" transform="translate(15.024 3.548)" fill="#fff"/>
    <path id="Path_10472" data-name="Path 10472" d="M161.432,49.272a5.583,5.583,0,0,1-3.348-.781,2.54,2.54,0,0,1-1.019-2.132,1.652,1.652,0,0,1,.582-1.429,2.284,2.284,0,0,1,1.376-.422,4,4,0,0,0,.648,2.447,2.139,2.139,0,0,0,1.813.861,1.93,1.93,0,0,0,1.562-.569,2.211,2.211,0,0,0,.476-1.469,1.846,1.846,0,0,0-.582-1.416,7.461,7.461,0,0,0-1.906-1.151,12.017,12.017,0,0,1-2.117-1.178,3.907,3.907,0,0,1-1.231-1.417,4.51,4.51,0,0,1-.41-2.037,3.653,3.653,0,0,1,1.27-3.031,5.213,5.213,0,0,1,3.361-1.019,4.519,4.519,0,0,1,2.911.753,2.246,2.246,0,0,1,.9,1.761q0,1.667-2.012,1.667a3.145,3.145,0,0,0-.582-2.052,1.872,1.872,0,0,0-1.509-.7,1.664,1.664,0,0,0-1.231.463,1.735,1.735,0,0,0-.463,1.284,1.906,1.906,0,0,0,.556,1.469,7.971,7.971,0,0,0,2.038,1.178,11.217,11.217,0,0,1,1.959,1.085,4.043,4.043,0,0,1,1.257,1.4,4.876,4.876,0,0,1-.781,5.241,4.83,4.83,0,0,1-3.52,1.191" transform="translate(16.152 3.55)" fill="#fff"/>
    <path id="Path_10473" data-name="Path 10473" d="M166.236,49.543v-1.3h.238a1.592,1.592,0,0,0,1.112-.384,2.05,2.05,0,0,0,.423-1.522V38.479a2,2,0,0,0-.4-1.456,1.49,1.49,0,0,0-1.059-.372h-.344v-1.3h5.214V46.313a2.143,2.143,0,0,0,.41,1.548,1.543,1.543,0,0,0,1.1.384h.238v1.3ZM169.6,32.815a2.093,2.093,0,0,1-1.35-.423,1.935,1.935,0,0,1,0-2.66,2.139,2.139,0,0,1,1.35-.41,2.268,2.268,0,0,1,1.363.41,1.839,1.839,0,0,1,0,2.66,2.219,2.219,0,0,1-1.363.423" transform="translate(17.092 3.015)" fill="#fff"/>
    <path id="Path_10474" data-name="Path 10474" d="M173.217,49.533v-1.3h.265a1.506,1.506,0,0,0,1.072-.384,2.143,2.143,0,0,0,.41-1.548V32.381a1.858,1.858,0,0,0-.251-1.085,1.232,1.232,0,0,0-.609-.463,2.011,2.011,0,0,0-.622-.119h-.265v-1.3H178.4V46.3a2.1,2.1,0,0,0,.423,1.548,1.554,1.554,0,0,0,1.085.384h.238v1.3Z" transform="translate(17.813 3.025)" fill="#fff"/>
    <path id="Path_10475" data-name="Path 10475" d="M180.156,49.543v-1.3h.238a1.592,1.592,0,0,0,1.112-.384,2.05,2.05,0,0,0,.423-1.522V38.479a2,2,0,0,0-.4-1.456,1.49,1.49,0,0,0-1.059-.372h-.344v-1.3h5.214V46.313a2.143,2.143,0,0,0,.41,1.548,1.543,1.543,0,0,0,1.1.384h.238v1.3Zm3.361-16.728a2.093,2.093,0,0,1-1.35-.423,1.935,1.935,0,0,1,0-2.66,2.139,2.139,0,0,1,1.35-.41,2.269,2.269,0,0,1,1.363.41,1.839,1.839,0,0,1,0,2.66,2.219,2.219,0,0,1-1.363.423" transform="translate(18.524 3.015)" fill="#fff"/>
    <path id="Path_10476" data-name="Path 10476" d="M193.353,49.274a4.951,4.951,0,0,1-4.248-1.906,8.817,8.817,0,0,1-1.416-5.347,9.323,9.323,0,0,1,1.416-5.624,4.714,4.714,0,0,1,4.01-1.894,4.646,4.646,0,0,1,3.759,1.642,7.236,7.236,0,0,1,1.376,4.764v1.218h-7.093a8.6,8.6,0,0,0,.821,4.076,2.441,2.441,0,0,0,2.223,1.3,2.518,2.518,0,0,0,1.8-.648,4.352,4.352,0,0,0,1.059-1.575,1.244,1.244,0,0,1,.543.357,1.015,1.015,0,0,1,.225.7,2.4,2.4,0,0,1-.45,1.337,3.4,3.4,0,0,1-1.443,1.138,6.157,6.157,0,0,1-2.581.463m-2.144-8.682h3.626a10.947,10.947,0,0,0-.357-3.3q-.384-1.231-1.284-1.231t-1.429,1.178a8.677,8.677,0,0,0-.556,3.348" transform="translate(19.301 3.548)" fill="#fff"/>
    <path id="Path_10477" data-name="Path 10477" d="M198.417,49.009v-1.3h.131a1.9,1.9,0,0,0,1.165-.318q.425-.318.425-1.535V37.866q0-1.138-.41-1.443a1.8,1.8,0,0,0-1.1-.3h-.107v-1.3h4.685l.266,1.985h.1a4.141,4.141,0,0,1,1.232-1.72,3.322,3.322,0,0,1,2.077-.582,3.046,3.046,0,0,1,2.621,1.231,6.69,6.69,0,0,1,.9,3.9v6.194a2.307,2.307,0,0,0,.345,1.548,1.474,1.474,0,0,0,1.059.331h.106v1.3h-4.923V40.143a8.744,8.744,0,0,0-.318-2.647,1.215,1.215,0,0,0-1.217-.953,1.326,1.326,0,0,0-1.138.6,3.8,3.8,0,0,0-.6,1.548,11.47,11.47,0,0,0-.172,2.038v5.241q0,1.138.384,1.443a1.728,1.728,0,0,0,1.1.3h.1v1.3Z" transform="translate(20.404 3.548)" fill="#fff"/>
    <path id="Path_10478" data-name="Path 10478" d="M217.474,49.274a5.488,5.488,0,0,1-2.832-.715,4.737,4.737,0,0,1-1.906-2.3,10.905,10.905,0,0,1-.688-4.262,11.415,11.415,0,0,1,.715-4.485,4.741,4.741,0,0,1,1.919-2.317,5.37,5.37,0,0,1,2.713-.688,5.455,5.455,0,0,1,3.322.8,2.436,2.436,0,0,1,.794,3,1.621,1.621,0,0,1-.847.741,4.614,4.614,0,0,1-1.813.278,8.241,8.241,0,0,0-.291-2.33q-.291-.978-1.059-.978a1.316,1.316,0,0,0-1.045.529,4.228,4.228,0,0,0-.688,1.825,19.969,19.969,0,0,0-.251,3.6,10.932,10.932,0,0,0,.609,4.142,2.073,2.073,0,0,0,2.012,1.416,2.76,2.76,0,0,0,1.84-.635,3.917,3.917,0,0,0,1.125-1.562,1.506,1.506,0,0,1,.463.45,1.187,1.187,0,0,1,.172.662,2.536,2.536,0,0,1-.384,1.27,2.926,2.926,0,0,1-1.31,1.112,6,6,0,0,1-2.567.45" transform="translate(21.806 3.548)" fill="#fff"/>
    <path id="Path_10479" data-name="Path 10479" d="M228.1,49.274a4.951,4.951,0,0,1-4.248-1.906,8.817,8.817,0,0,1-1.416-5.347,9.323,9.323,0,0,1,1.416-5.624,4.714,4.714,0,0,1,4.01-1.894,4.646,4.646,0,0,1,3.758,1.642A7.236,7.236,0,0,1,233,40.91v1.218h-7.093a8.6,8.6,0,0,0,.82,4.076,2.441,2.441,0,0,0,2.223,1.3,2.517,2.517,0,0,0,1.8-.648,4.352,4.352,0,0,0,1.059-1.575,1.245,1.245,0,0,1,.543.357,1.015,1.015,0,0,1,.225.7,2.4,2.4,0,0,1-.45,1.337,3.4,3.4,0,0,1-1.442,1.138,6.158,6.158,0,0,1-2.581.463m-2.144-8.682h3.626a10.946,10.946,0,0,0-.357-3.3q-.384-1.231-1.284-1.231t-1.429,1.178a8.678,8.678,0,0,0-.556,3.348" transform="translate(22.875 3.548)" fill="#fff"/>
    <path id="Path_10480" data-name="Path 10480" d="M60.778,75.448v-1.3h.582a1.61,1.61,0,0,0,1.085-.3,1.64,1.64,0,0,0,.344-1.231V59.435a1.742,1.742,0,0,0-.344-1.257,1.175,1.175,0,0,0-.847-.331h-.821v-1.3H72.847l.132,4.791H71.418L71.312,60.1a2.956,2.956,0,0,0-.516-1.509,1.271,1.271,0,0,0-1.045-.529H66.336v7.358h5.135v1.509H66.336v5.611a1.755,1.755,0,0,0,.357,1.257,1.456,1.456,0,0,0,1.072.357H68.8v1.3Z" transform="translate(6.25 5.815)" fill="#fff"/>
    <path id="Path_10481" data-name="Path 10481" d="M72.8,75.572v-1.3h.238a1.592,1.592,0,0,0,1.112-.384,2.05,2.05,0,0,0,.423-1.522V64.508a2,2,0,0,0-.4-1.456,1.49,1.49,0,0,0-1.059-.372h-.344v-1.3h5.214V72.342a2.143,2.143,0,0,0,.41,1.548,1.543,1.543,0,0,0,1.1.384h.238v1.3Zm3.361-16.728a2.093,2.093,0,0,1-1.35-.423,1.936,1.936,0,0,1,0-2.66,2.139,2.139,0,0,1,1.35-.41,2.268,2.268,0,0,1,1.363.41,1.839,1.839,0,0,1,0,2.66,2.219,2.219,0,0,1-1.363.423" transform="translate(7.484 5.692)" fill="#fff"/>
    <path id="Path_10482" data-name="Path 10482" d="M79.81,75.038v-1.3h.132a1.9,1.9,0,0,0,1.165-.318q.423-.318.423-1.535V63.9q0-1.138-.41-1.443a1.8,1.8,0,0,0-1.1-.3h-.106v-1.3H84.6l.265,1.985h.106a4.129,4.129,0,0,1,1.231-1.72,3.323,3.323,0,0,1,2.078-.582,3.044,3.044,0,0,1,2.62,1.231,6.689,6.689,0,0,1,.9,3.9v6.194a2.308,2.308,0,0,0,.344,1.548,1.474,1.474,0,0,0,1.059.331h.106v1.3H88.386V66.172a8.709,8.709,0,0,0-.318-2.647,1.215,1.215,0,0,0-1.218-.953,1.328,1.328,0,0,0-1.138.6,3.816,3.816,0,0,0-.6,1.548,11.47,11.47,0,0,0-.172,2.038v5.241q0,1.138.384,1.443a1.732,1.732,0,0,0,1.1.3h.106v1.3Z" transform="translate(8.207 6.225)" fill="#fff"/>
    <path id="Path_10483" data-name="Path 10483" d="M96.779,75.3A3.142,3.142,0,0,1,94.4,74.258a4.612,4.612,0,0,1-.979-3.243,3.938,3.938,0,0,1,1.191-3.162,5.883,5.883,0,0,1,3.626-1.125l1.773-.079V65.166a6.853,6.853,0,0,0-.3-2.316,1.2,1.2,0,0,0-2.25-.04,5.481,5.481,0,0,0-.331,2.117q-2.806,0-2.806-1.747a2.121,2.121,0,0,1,1.3-1.985,7.062,7.062,0,0,1,3.229-.662,5.088,5.088,0,0,1,3.441,1.019,4.473,4.473,0,0,1,1.165,3.507v6.8a2.775,2.775,0,0,0,.278,1.482,1.162,1.162,0,0,0,1.019.4h.079v1.3H100.67l-.45-1.959h-.212a9.294,9.294,0,0,1-1.35,1.641,2.7,2.7,0,0,1-1.879.582m1.3-1.694a1.6,1.6,0,0,0,1.429-1.019,5.639,5.639,0,0,0,.529-2.607V67.945l-.9.079a2.085,2.085,0,0,0-1.72.873,4.312,4.312,0,0,0-.476,2.25,4.743,4.743,0,0,0,.278,1.8.914.914,0,0,0,.86.663" transform="translate(9.607 6.225)" fill="#fff"/>
    <path id="Path_10484" data-name="Path 10484" d="M104.746,75.038v-1.3h.132a1.9,1.9,0,0,0,1.165-.318q.423-.318.423-1.535V63.9q0-1.138-.41-1.443a1.8,1.8,0,0,0-1.1-.3h-.106v-1.3h4.685l.265,1.985h.106a4.13,4.13,0,0,1,1.231-1.72,3.323,3.323,0,0,1,2.078-.582,3.044,3.044,0,0,1,2.62,1.231,6.689,6.689,0,0,1,.9,3.9v6.194a2.308,2.308,0,0,0,.344,1.548,1.474,1.474,0,0,0,1.059.331h.106v1.3h-4.923V66.172A8.709,8.709,0,0,0,113,63.525a1.215,1.215,0,0,0-1.218-.953,1.328,1.328,0,0,0-1.138.6,3.817,3.817,0,0,0-.6,1.548,11.471,11.471,0,0,0-.172,2.038v5.241q0,1.138.384,1.443a1.732,1.732,0,0,0,1.1.3h.106v1.3Z" transform="translate(10.772 6.225)" fill="#fff"/>
    <path id="Path_10485" data-name="Path 10485" d="M123.8,75.3a5.488,5.488,0,0,1-2.832-.715,4.738,4.738,0,0,1-1.906-2.3,10.906,10.906,0,0,1-.688-4.262,11.415,11.415,0,0,1,.715-4.485,4.741,4.741,0,0,1,1.919-2.317,5.37,5.37,0,0,1,2.713-.688,5.454,5.454,0,0,1,3.322.8,2.436,2.436,0,0,1,.794,3,1.621,1.621,0,0,1-.847.741,4.614,4.614,0,0,1-1.813.278,8.242,8.242,0,0,0-.291-2.33q-.291-.978-1.059-.978a1.316,1.316,0,0,0-1.046.529A4.227,4.227,0,0,0,122.1,64.4a19.961,19.961,0,0,0-.251,3.6,10.932,10.932,0,0,0,.609,4.142,2.073,2.073,0,0,0,2.012,1.416,2.76,2.76,0,0,0,1.84-.635,3.916,3.916,0,0,0,1.125-1.562,1.506,1.506,0,0,1,.463.45,1.188,1.188,0,0,1,.172.662,2.537,2.537,0,0,1-.384,1.27,2.927,2.927,0,0,1-1.31,1.112,6,6,0,0,1-2.567.45" transform="translate(12.174 6.225)" fill="#fff"/>
    <path id="Path_10486" data-name="Path 10486" d="M134.434,75.3a4.951,4.951,0,0,1-4.248-1.906,8.817,8.817,0,0,1-1.416-5.347,9.323,9.323,0,0,1,1.416-5.624,4.714,4.714,0,0,1,4.01-1.894,4.646,4.646,0,0,1,3.758,1.642,7.236,7.236,0,0,1,1.376,4.764v1.218h-7.093a8.6,8.6,0,0,0,.82,4.076,2.441,2.441,0,0,0,2.223,1.3,2.517,2.517,0,0,0,1.8-.648,4.353,4.353,0,0,0,1.059-1.575,1.245,1.245,0,0,1,.543.357,1.015,1.015,0,0,1,.225.7,2.4,2.4,0,0,1-.45,1.337,3.4,3.4,0,0,1-1.442,1.138,6.158,6.158,0,0,1-2.581.463m-2.144-8.682h3.626a10.945,10.945,0,0,0-.357-3.3q-.384-1.231-1.284-1.231t-1.429,1.178a8.677,8.677,0,0,0-.556,3.348" transform="translate(13.242 6.225)" fill="#fff"/>
    <path id="Path_10487" data-name="Path 10487" d="M150.167,75.738a7.9,7.9,0,0,1-3.2-.529,3.357,3.357,0,0,1-1.628-1.363,3.526,3.526,0,0,1-.463-1.734,2.043,2.043,0,0,1,.728-1.773,2.783,2.783,0,0,1,1.681-.529,5.275,5.275,0,0,0,1.006,3.348,2.845,2.845,0,0,0,2.223,1.125,2.262,2.262,0,0,0,1.879-.834,3.322,3.322,0,0,0,.662-2.131,2.977,2.977,0,0,0-.966-2.342,13.789,13.789,0,0,0-2.739-1.787,7.942,7.942,0,0,1-3.123-2.514,6.052,6.052,0,0,1-.9-3.388,4.662,4.662,0,0,1,2.647-4.367,6.071,6.071,0,0,1,2.753-.609,6.424,6.424,0,0,1,2.62.463,3.69,3.69,0,0,1,1.548,1.191,2.557,2.557,0,0,1,.516,1.5,1.754,1.754,0,0,1-.609,1.415,3.1,3.1,0,0,1-2.012.517,5.326,5.326,0,0,0-.278-1.72,3.35,3.35,0,0,0-.82-1.35,2.042,2.042,0,0,0-2.911.171,3.056,3.056,0,0,0-.569,1.972,3.329,3.329,0,0,0,.291,1.4,3.494,3.494,0,0,0,1.072,1.244,13.233,13.233,0,0,0,2.237,1.323,8.712,8.712,0,0,1,3.2,2.46,5.569,5.569,0,0,1,.953,3.336,5.21,5.21,0,0,1-1.6,4.036,5.964,5.964,0,0,1-4.2,1.469" transform="translate(14.898 5.79)" fill="#fff"/>
    <path id="Path_10488" data-name="Path 10488" d="M161.213,75.274a3.143,3.143,0,0,1-2.779-1.258,7.045,7.045,0,0,1-.873-3.957V63.972a2.581,2.581,0,0,0-.291-1.5,1.346,1.346,0,0,0-1.085-.358H156.1v-1.3H161V69.53a9.108,9.108,0,0,0,.318,2.792,1.222,1.222,0,0,0,1.244.912,1.5,1.5,0,0,0,1.443-1.124,8.483,8.483,0,0,0,.437-3V63.892c0-.794-.125-1.288-.371-1.482a1.541,1.541,0,0,0-.979-.292h-.079v-1.3h4.844V71.99c0,.778.136,1.258.41,1.444a1.776,1.776,0,0,0,1.019.278h.185v1.3h-4.394l-.5-1.985h-.106a3.8,3.8,0,0,1-1.323,1.734,3.472,3.472,0,0,1-1.932.516" transform="translate(16.053 6.254)" fill="#fff"/>
    <path id="Path_10489" data-name="Path 10489" d="M169.113,75.038v-1.3h.185a1.794,1.794,0,0,0,1.125-.318q.41-.318.41-1.535v-8.02c0-.776-.137-1.265-.41-1.469a1.851,1.851,0,0,0-1.125-.3h-.079V60.852h4.658l.291,1.985h.132a3.8,3.8,0,0,1,1.244-1.72,3.651,3.651,0,0,1,2.2-.582,3.414,3.414,0,0,1,1.945.543,3.156,3.156,0,0,1,1.178,1.84h.106a3.614,3.614,0,0,1,6.114-1.151,6.267,6.267,0,0,1,.979,3.9v6.194a2.308,2.308,0,0,0,.344,1.548,1.474,1.474,0,0,0,1.059.331h.079v1.3h-4.923V66.172a7.683,7.683,0,0,0-.357-2.634,1.337,1.337,0,0,0-2.342-.41,3.549,3.549,0,0,0-.582,1.4,9.188,9.188,0,0,0-.185,1.906v5.426a2.379,2.379,0,0,0,.331,1.548,1.425,1.425,0,0,0,1.046.331h.106v1.3h-4.9V66.172a7.957,7.957,0,0,0-.344-2.634,1.254,1.254,0,0,0-1.244-.94,1.289,1.289,0,0,0-1.085.582,3.838,3.838,0,0,0-.609,1.535,10.672,10.672,0,0,0-.185,2.038v5.241q0,1.138.384,1.443a1.781,1.781,0,0,0,1.125.3h.053v1.3Z" transform="translate(17.391 6.225)" fill="#fff"/>
    <path id="Path_10490" data-name="Path 10490" d="M188.48,75.038v-1.3h.185a1.8,1.8,0,0,0,1.126-.318q.41-.318.409-1.535v-8.02c0-.776-.136-1.265-.409-1.469a1.852,1.852,0,0,0-1.126-.3h-.079V60.852h4.659l.29,1.985h.132a3.8,3.8,0,0,1,1.245-1.72,3.646,3.646,0,0,1,2.2-.582,3.41,3.41,0,0,1,1.944.543,3.152,3.152,0,0,1,1.179,1.84h.1a3.615,3.615,0,0,1,6.115-1.151,6.274,6.274,0,0,1,.979,3.9v6.194a2.3,2.3,0,0,0,.344,1.548,1.471,1.471,0,0,0,1.058.331h.079v1.3H203.99V66.172a7.713,7.713,0,0,0-.356-2.634,1.338,1.338,0,0,0-2.344-.41,3.566,3.566,0,0,0-.582,1.4,9.188,9.188,0,0,0-.185,1.906v5.426a2.377,2.377,0,0,0,.332,1.548,1.42,1.42,0,0,0,1.044.331h.107v1.3h-4.9V66.172a7.923,7.923,0,0,0-.345-2.634,1.253,1.253,0,0,0-1.243-.94,1.291,1.291,0,0,0-1.086.582,3.838,3.838,0,0,0-.608,1.535,10.586,10.586,0,0,0-.186,2.038v5.241c0,.759.129,1.24.384,1.443a1.784,1.784,0,0,0,1.126.3h.052v1.3Z" transform="translate(19.383 6.225)" fill="#fff"/>
    <path id="Path_10491" data-name="Path 10491" d="M207.8,75.572v-1.3h.238a1.592,1.592,0,0,0,1.112-.384,2.05,2.05,0,0,0,.424-1.522V64.508a2,2,0,0,0-.4-1.456,1.49,1.49,0,0,0-1.059-.372h-.344v-1.3h5.214V72.342a2.143,2.143,0,0,0,.41,1.548,1.543,1.543,0,0,0,1.1.384h.238v1.3Zm3.361-16.728a2.093,2.093,0,0,1-1.35-.423,1.935,1.935,0,0,1,0-2.66,2.139,2.139,0,0,1,1.35-.41,2.268,2.268,0,0,1,1.363.41,1.839,1.839,0,0,1,0,2.66,2.219,2.219,0,0,1-1.363.423" transform="translate(21.367 5.692)" fill="#fff"/>
    <path id="Path_10492" data-name="Path 10492" d="M219.858,75.577a3.325,3.325,0,0,1-2.5-.913,4.631,4.631,0,0,1-.887-3.243v-8.76h-1.615V61.523a2.937,2.937,0,0,0,1.323-.371,3.293,3.293,0,0,0,.873-.741,5.007,5.007,0,0,0,.543-.98,6.754,6.754,0,0,0,.41-1.562h1.906v3.257h2.753v1.535h-2.753V71.21a4.121,4.121,0,0,0,.3,1.84,1.11,1.11,0,0,0,1.072.569,5.033,5.033,0,0,0,1.588-.238v1.615a6.1,6.1,0,0,1-1.138.383,7.615,7.615,0,0,1-1.879.2" transform="translate(22.095 5.951)" fill="#fff"/>
    <path id="Path_10493" data-name="Path 10493" d="M294.806,34.087v52.22H284.385V25.24h0v-3.2H28.023v.508h0V86.307H17.194V34.1H0V89.511H312V34.087ZM45.216,25.24H267.191V86.307H45.216Z" transform="translate(0 2.266)" fill="#fff"/>
    <path id="Path_10494" data-name="Path 10494" d="M79.8,20.116v-1.3h.873a1.091,1.091,0,0,0,.794-.344,1.8,1.8,0,0,0,.344-1.27V4.182a1.8,1.8,0,0,0-.371-1.323,1.275,1.275,0,0,0-.9-.344H79.8v-1.3h7.6v1.3H86.6a1.167,1.167,0,0,0-.94.331,1.984,1.984,0,0,0-.278,1.231V18.607h4a1.329,1.329,0,0,0,1.151-.582,4.736,4.736,0,0,0,.648-1.747l.371-1.985h1.165l-.106,5.823Zm20.2.265a5.069,5.069,0,0,1-4.129-1.826Q94.355,16.728,94.355,13T95.8,7.438a5.12,5.12,0,0,1,4.275-1.826,5.033,5.033,0,0,1,4.117,1.826q1.494,1.826,1.5,5.558,0,7.385-5.691,7.385m.053-1.562q1.216,0,1.68-1.482A15.42,15.42,0,0,0,102.19,13a14.857,14.857,0,0,0-.476-4.341Q101.237,7.2,100.02,7.2q-1.191,0-1.667,1.456A14.856,14.856,0,0,0,97.876,13a14.6,14.6,0,0,0,.49,4.341q.49,1.482,1.681,1.482m7.039,1.3v-1.3h.132a1.907,1.907,0,0,0,1.166-.318q.422-.318.422-1.535V8.973q0-1.138-.41-1.443a1.8,1.8,0,0,0-1.1-.3h-.1v-1.3h4.685l.264,1.985h.107a4.131,4.131,0,0,1,1.23-1.72,3.325,3.325,0,0,1,2.079-.582,3.04,3.04,0,0,1,2.619,1.231,6.689,6.689,0,0,1,.9,3.9V16.94a2.308,2.308,0,0,0,.344,1.548,1.479,1.479,0,0,0,1.059.331h.107v1.3h-4.923V11.249a8.7,8.7,0,0,0-.318-2.647,1.216,1.216,0,0,0-1.218-.953,1.328,1.328,0,0,0-1.139.6,3.833,3.833,0,0,0-.6,1.548,11.473,11.473,0,0,0-.171,2.038v5.241q0,1.138.383,1.443a1.734,1.734,0,0,0,1.1.3h.107v1.3Zm19.4.265a3.652,3.652,0,0,1-3.256-1.76q-1.138-1.76-1.138-5.572a10.753,10.753,0,0,1,1.138-5.624,3.616,3.616,0,0,1,3.229-1.787,2.978,2.978,0,0,1,1.945.6,4.5,4.5,0,0,1,1.178,1.5h.106q-.026-.609-.04-1.363t-.013-1.522V3.017q0-1.138-.516-1.429a2.41,2.41,0,0,0-1.2-.291h-.185V0h5.347V16.807a2.3,2.3,0,0,0,.41,1.615,1.666,1.666,0,0,0,1.2.4h.185v1.3h-4.394l-.529-2.17h-.106a4.711,4.711,0,0,1-1.3,1.787,3.16,3.16,0,0,1-2.064.648m1.006-1.773q1.191,0,1.667-1.469a13.925,13.925,0,0,0,.476-4.116,14.519,14.519,0,0,0-.463-4.182q-.463-1.456-1.681-1.456-1.032,0-1.482,1.469a15.074,15.074,0,0,0-.45,4.2,14.424,14.424,0,0,0,.45,4.182q.45,1.376,1.482,1.376m14.372,1.773a5.069,5.069,0,0,1-4.129-1.826q-1.509-1.826-1.509-5.558t1.443-5.558a5.117,5.117,0,0,1,4.275-1.826,5.031,5.031,0,0,1,4.116,1.826q1.494,1.826,1.5,5.558,0,7.385-5.691,7.385m.053-1.562q1.218,0,1.681-1.482A15.428,15.428,0,0,0,144.061,13a14.856,14.856,0,0,0-.476-4.341Q143.109,7.2,141.891,7.2q-1.191,0-1.667,1.456A14.856,14.856,0,0,0,139.747,13a14.635,14.635,0,0,0,.49,4.341q.49,1.482,1.681,1.482m7.041,1.3v-1.3h.132a1.9,1.9,0,0,0,1.165-.318q.423-.318.423-1.535V8.973q0-1.138-.41-1.443a1.8,1.8,0,0,0-1.1-.3h-.106v-1.3h4.685l.265,1.985h.106a4.122,4.122,0,0,1,1.231-1.72,3.324,3.324,0,0,1,2.078-.582,3.044,3.044,0,0,1,2.62,1.231,6.689,6.689,0,0,1,.9,3.9V16.94a2.308,2.308,0,0,0,.344,1.548,1.479,1.479,0,0,0,1.059.331h.106v1.3h-4.923V11.249a8.7,8.7,0,0,0-.318-2.647A1.215,1.215,0,0,0,156,7.649a1.328,1.328,0,0,0-1.138.6,3.817,3.817,0,0,0-.6,1.548,11.47,11.47,0,0,0-.172,2.038v5.241q0,1.138.384,1.443a1.73,1.73,0,0,0,1.1.3h.106v1.3Zm20.432,0v-2.3l3.177-4.235a24.383,24.383,0,0,0,2.037-2.991,10.612,10.612,0,0,0,1.047-2.5,9.8,9.8,0,0,0,.3-2.448,4.838,4.838,0,0,0-.463-2.4,1.394,1.394,0,0,0-1.232-.781A1.616,1.616,0,0,0,172.7,3.573a8.28,8.28,0,0,0-.475,3.15,4,4,0,0,1-1.906-.45,1.766,1.766,0,0,1-.847-1.72A3.18,3.18,0,0,1,170,2.819a3.779,3.779,0,0,1,1.588-1.35A6.083,6.083,0,0,1,174.26.953a5.231,5.231,0,0,1,3.786,1.257,4.386,4.386,0,0,1,1.3,3.3,7.367,7.367,0,0,1-.557,2.832,12.186,12.186,0,0,1-1.521,2.647q-.966,1.3-2.263,2.726l-3.256,3.758h4.79a1.516,1.516,0,0,0,1.086-.463,2.755,2.755,0,0,0,.688-1.39l.185-.741h1.349l-.1,5.241Zm17.338.265a4.293,4.293,0,0,1-3.177-1.165,6.771,6.771,0,0,1-1.666-3.361,23.7,23.7,0,0,1-.5-5.241,23.733,23.733,0,0,1,.489-5.161,6.611,6.611,0,0,1,1.669-3.335A4.37,4.37,0,0,1,186.754.953,4.164,4.164,0,0,1,189.837,2.1a6.822,6.822,0,0,1,1.669,3.322,22.834,22.834,0,0,1,.515,5.214,22.316,22.316,0,0,1-.529,5.2A7.029,7.029,0,0,1,189.8,19.2a4.123,4.123,0,0,1-3.069,1.178m0-1.588q1.163,0,1.522-2.144a38.914,38.914,0,0,0,.356-6.008,38.374,38.374,0,0,0-.356-5.982q-.357-2.117-1.5-2.117-1.219,0-1.562,2.117a39.663,39.663,0,0,0-.344,5.982,40.222,40.222,0,0,0,.344,6.008q.342,2.144,1.535,2.144m6.8,1.323v-2.3l3.177-4.235a24.632,24.632,0,0,0,2.037-2.991,10.606,10.606,0,0,0,1.045-2.5,9.745,9.745,0,0,0,.3-2.448,4.826,4.826,0,0,0-.463-2.4,1.391,1.391,0,0,0-1.231-.781,1.615,1.615,0,0,0-1.562,1.112,8.281,8.281,0,0,0-.475,3.15,4,4,0,0,1-1.907-.45,1.766,1.766,0,0,1-.847-1.72,3.19,3.19,0,0,1,.529-1.734,3.779,3.779,0,0,1,1.588-1.35A6.091,6.091,0,0,1,198.4.953a5.227,5.227,0,0,1,3.785,1.257,4.383,4.383,0,0,1,1.3,3.3,7.367,7.367,0,0,1-.557,2.832,12.239,12.239,0,0,1-1.522,2.647q-.966,1.3-2.262,2.726l-3.257,3.758h4.791a1.52,1.52,0,0,0,1.086-.463,2.755,2.755,0,0,0,.688-1.39l.184-.741h1.35l-.106,5.241Zm16.6.265a6.216,6.216,0,0,1-2.62-.463,3.158,3.158,0,0,1-1.416-1.191,2.829,2.829,0,0,1-.437-1.469,1.692,1.692,0,0,1,.5-1.31,1.8,1.8,0,0,1,1.27-.463,5.607,5.607,0,0,0,.212,1.522,2.668,2.668,0,0,0,.728,1.244,1.936,1.936,0,0,0,1.39.49,2.28,2.28,0,0,0,1.3-.41,2.736,2.736,0,0,0,.966-1.376,7.818,7.818,0,0,0,.357-2.634,5.055,5.055,0,0,0-.754-3.044,2.48,2.48,0,0,0-2.1-1.006,4.491,4.491,0,0,0-1.337.185q-.6.185-1.1.371l-.794-.423.768-9.184h8.02l.079,4.526h-1.3L213.645,5a6.973,6.973,0,0,0-.318-.887q-.132-.278-.635-.278h-4.447l-.424,5.267a4.27,4.27,0,0,1,1.085-.318,6.957,6.957,0,0,1,1.244-.132,5.813,5.813,0,0,1,4.1,1.416,5.5,5.5,0,0,1,1.535,4.248,6.657,6.657,0,0,1-.516,2.739,5.41,5.41,0,0,1-1.363,1.892,5.535,5.535,0,0,1-1.84,1.085,5.918,5.918,0,0,1-1.945.344" transform="translate(8.206 0)" fill="#fff"/>
  </g>
</svg>
