<?xml version="1.0" encoding="UTF-8"?>
<svg id="logo" xmlns="http://www.w3.org/2000/svg" xmlns:xlink="http://www.w3.org/1999/xlink"
    width="283" height="88" viewBox="0 0 283 88">
    <defs>
        <style>
            .cls-1{fill:none;}.cls-2{fill:url(#linear-gradient-3);}.cls-3{fill:url(#linear-gradient-2);}.cls-4{fill:#231f20;}.cls-5{fill:url(#linear-gradient);}.cls-6{fill:#1d1d1b;}</style>
        <linearGradient id="linear-gradient" x1="25.28" y1="55.06" x2="257.73" y2="55.06"
            gradientUnits="userSpaceOnUse">
            <stop offset="0" stop-color="#9064aa" />
            <stop offset="1" stop-color="#08bcc1" />
        </linearGradient>
        <linearGradient id="linear-gradient-2" x1="49.22" y1="9.26" x2="172.53" y2="9.26"
            gradientUnits="userSpaceOnUse">
            <stop offset="0" stop-color="#9064aa" />
            <stop offset=".14" stop-color="#8a67aa" />
            <stop offset=".32" stop-color="#7b71ad" />
            <stop offset=".52" stop-color="#6181b1" />
            <stop offset=".74" stop-color="#3e98b7" />
            <stop offset=".96" stop-color="#11b6bf" />
            <stop offset="1" stop-color="#08bcc1" />
        </linearGradient>
        <linearGradient id="linear-gradient-3" x1=".04" y1="62.04" x2="282.96" y2="62.04"
            gradientUnits="userSpaceOnUse">
            <stop offset="0" stop-color="#f15f4b" />
            <stop offset=".09" stop-color="#ca6c53" />
            <stop offset=".22" stop-color="#957f5f" />
            <stop offset=".35" stop-color="#678f6a" />
            <stop offset=".48" stop-color="#429c72" />
            <stop offset=".62" stop-color="#25a679" />
            <stop offset=".75" stop-color="#10ae7e" />
            <stop offset=".88" stop-color="#04b281" />
            <stop offset="1" stop-color="#00b482" />
        </linearGradient>
    </defs>
    <path class="cls-4"
        d="M61.32,49.17c-.22.37-.5.73-.83,1.09-.32.36-.73.66-1.2.89-.47.23-1.05.35-1.74.35-1.39,0-2.37-.6-2.95-1.79-.57-1.19-.86-2.98-.86-5.37s.23-4.1.69-5.4c.47-1.29,1.28-1.94,2.45-1.94.56,0,1,.16,1.33.48.33.32.56.73.7,1.24.14.5.2,1.02.2,1.54.84,0,1.46-.18,1.89-.55.42-.37.63-.82.63-1.37,0-.75-.38-1.4-1.15-1.95-.77-.55-1.9-.83-3.41-.83s-2.73.37-3.74,1.1c-1.01.74-1.76,1.76-2.27,3.08-.5,1.31-.75,2.84-.75,4.6s.24,3.33.74,4.65c.5,1.32,1.24,2.35,2.23,3.08.99.74,2.23,1.11,3.72,1.11,1.19,0,2.12-.17,2.8-.51.68-.33,1.15-.74,1.43-1.21.27-.47.4-.92.4-1.33,0-.18-.02-.36-.08-.54-.06-.19-.13-.33-.23-.42Z" />
    <path class="cls-4"
        d="M68.85,51.76c-.4,0-.73-.12-.99-.35-.25-.23-.38-.7-.38-1.4v-15.31h-4.7v1.17h.24c.16,0,.34.04.56.11.22.07.4.21.55.42.15.21.23.54.23.98v12.63c0,.7-.12,1.17-.37,1.4-.25.23-.58.35-.97.35h-.24v1.18h6.28v-1.18h-.21Z" />
    <path class="cls-4"
        d="M73.54,34.97c-.35-.25-.76-.37-1.24-.37s-.9.12-1.22.37c-.32.25-.48.65-.48,1.21s.16.95.48,1.2c.32.26.73.39,1.22.39s.89-.13,1.24-.39c.34-.25.51-.65.51-1.2s-.17-.96-.51-1.21ZM75.34,51.76c-.42,0-.75-.12-1-.35-.25-.23-.37-.7-.37-1.4v-9.94h-4.73v1.18h.31c.4,0,.72.11.96.33.24.23.36.67.36,1.32v7.13c0,.69-.13,1.15-.38,1.38-.26.23-.59.35-1.01.35h-.22v1.18h6.29v-1.18h-.21Z" />
    <path class="cls-4"
        d="M95.73,51.76c-.44,0-.76-.1-.96-.3-.21-.2-.32-.67-.32-1.4v-5.62c0-1.62-.29-2.8-.88-3.54-.6-.74-1.41-1.12-2.45-1.12-1.57,0-2.6.72-3.1,2.16h-.09c-.23-.78-.58-1.34-1.07-1.66-.49-.33-1.08-.5-1.77-.5-.84,0-1.51.18-1.99.53-.48.35-.85.87-1.13,1.56h-.12l-.26-1.8h-4.22v1.13h.07c.43,0,.77.09,1.02.28.25.18.37.62.37,1.33v7.27c0,.74-.12,1.2-.37,1.39s-.59.29-1.02.29h-.17v1.18h6.1v-1.18h-.05c-.45,0-.79-.09-1.02-.28-.23-.18-.35-.62-.35-1.3v-4.76c0-.65.06-1.27.17-1.84.11-.58.29-1.04.55-1.4.26-.35.58-.52.98-.52.55,0,.92.28,1.13.85.21.57.31,1.36.31,2.39v8.04h4.44v-1.18h-.09c-.43,0-.75-.1-.95-.3s-.3-.67-.3-1.4v-4.92c0-.63.06-1.2.17-1.73.11-.53.29-.95.53-1.27.24-.32.56-.48.98-.48.54,0,.92.28,1.14.85.22.57.32,1.36.32,2.39v8.04h4.47v-1.18h-.07Z" />
    <path class="cls-4"
        d="M107.41,51.76c-.44,0-.75-.12-.92-.36s-.25-.69-.25-1.34v-6.17c0-1.51-.35-2.57-1.06-3.18-.7-.62-1.74-.93-3.12-.93-1.17,0-2.14.2-2.93.6-.78.4-1.17,1-1.17,1.8,0,1.06.85,1.59,2.54,1.59,0-.82.1-1.46.3-1.92.2-.47.53-.7,1-.7.51,0,.86.25,1.04.73.19.49.28,1.19.28,2.1v1.35l-1.61.07c-1.47.06-2.57.4-3.29,1.02-.72.62-1.08,1.57-1.08,2.87s.3,2.31.89,2.94c.59.63,1.31.95,2.16.95.75,0,1.32-.18,1.7-.53.39-.35.8-.85,1.23-1.49h.19l.41,1.78h3.77v-1.18h-.08ZM103.15,48.35c0,.96-.16,1.75-.48,2.37-.32.61-.75.92-1.29.92-.36,0-.62-.2-.78-.6-.17-.4-.26-.94-.26-1.63,0-.9.15-1.58.44-2.04.28-.47.8-.73,1.56-.79l.81-.08v1.85Z" />
    <path class="cls-4"
        d="M112.39,51.4c-.46,0-.79-.17-.97-.52-.18-.34-.28-.9-.28-1.66v-7.76h2.5v-1.39h-2.5v-2.95h-1.72c-.1.59-.22,1.06-.38,1.42-.15.35-.31.64-.49.88-.21.26-.47.48-.79.68-.32.19-.72.3-1.2.33v1.03h1.46v7.95c0,1.41.27,2.39.81,2.94.53.55,1.29.83,2.27.83.67,0,1.24-.06,1.7-.18.46-.12.81-.24,1.03-.35v-1.47c-.43.15-.91.22-1.44.22Z" />
    <path class="cls-4"
        d="M124.67,45.59c0-1.89-.42-3.33-1.25-4.32s-1.97-1.49-3.41-1.49c-1.56,0-2.78.58-3.63,1.72-.86,1.14-1.29,2.84-1.29,5.1,0,2.08.43,3.7,1.29,4.85.85,1.15,2.14,1.73,3.85,1.73.96,0,1.74-.14,2.34-.42.6-.28,1.04-.63,1.31-1.04.27-.4.41-.81.41-1.21,0-.27-.07-.48-.21-.63-.13-.16-.3-.26-.49-.33-.22.56-.54,1.04-.96,1.43-.42.39-.96.59-1.63.59-.88,0-1.55-.39-2.02-1.18-.46-.78-.71-2.01-.74-3.69h6.43v-1.11ZM118.29,45.3c.01-1.31.18-2.32.5-3.03s.75-1.07,1.3-1.07.93.37,1.16,1.12c.23.74.34,1.74.32,2.98h-3.28Z" />
    <path class="cls-4"
        d="M144.54,51.76c-.35,0-.67-.16-.95-.49-.28-.33-.58-.83-.9-1.5l-2.4-4.95c.52-.17.98-.44,1.41-.8.42-.36.76-.84,1.02-1.44.25-.6.38-1.36.38-2.27,0-1.47-.42-2.59-1.26-3.36-.84-.77-2.28-1.15-4.33-1.15h-6.43v1.18h.6c.27,0,.54.08.81.26.28.18.41.59.41,1.25v11.78c0,.66-.13,1.07-.38,1.24-.26.17-.54.25-.84.25h-.6v1.18h6.6v-1.18h-.39c-.35,0-.63-.08-.84-.25-.2-.17-.31-.58-.31-1.24v-4.8h1.27l2.28,5.31c.37.89.9,1.48,1.6,1.75.7.27,1.59.41,2.68.41h.69v-1.18h-.12ZM139.08,43.23c-.42.61-1.08.92-1.99.92h-.94v-7.03h1.01c1.7,0,2.54,1.13,2.54,3.38,0,1.2-.2,2.11-.62,2.73Z" />
    <path class="cls-4"
        d="M155.09,45.59c0-1.89-.42-3.33-1.25-4.32-.83-.99-1.97-1.49-3.41-1.49-1.57,0-2.78.58-3.63,1.72-.86,1.14-1.29,2.84-1.29,5.1,0,2.08.43,3.7,1.29,4.85.85,1.15,2.14,1.73,3.85,1.73.96,0,1.74-.14,2.34-.42.6-.28,1.03-.63,1.31-1.04.27-.4.4-.81.4-1.21,0-.27-.06-.48-.2-.63-.14-.16-.3-.26-.49-.33-.23.56-.55,1.04-.96,1.43-.42.39-.96.59-1.63.59-.88,0-1.56-.39-2.02-1.18-.46-.78-.71-2.01-.74-3.69h6.43v-1.11ZM148.7,45.3c.02-1.31.19-2.32.51-3.03s.75-1.07,1.29-1.07.94.37,1.17,1.12c.23.74.34,1.74.32,2.98h-3.29Z" />
    <path class="cls-4"
        d="M164.34,47.34c-.26-.49-.64-.92-1.14-1.27-.5-.35-1.09-.68-1.78-.98-.89-.4-1.51-.76-1.84-1.07-.34-.31-.51-.76-.51-1.33,0-.5.14-.89.42-1.17s.65-.42,1.12-.42c.56,0,1.01.22,1.37.64.35.42.52,1.04.52,1.86,1.22,0,1.83-.5,1.83-1.51,0-.61-.27-1.14-.82-1.6-.54-.45-1.42-.68-2.64-.68s-2.28.31-3.05.92c-.76.62-1.15,1.53-1.15,2.75,0,.74.13,1.35.37,1.85.25.49.62.92,1.12,1.28.5.36,1.14.72,1.92,1.07.8.37,1.38.72,1.73,1.04.35.33.53.76.53,1.29s-.15.99-.44,1.33c-.28.34-.76.52-1.41.52-.71,0-1.25-.26-1.65-.78-.39-.52-.58-1.26-.58-2.22-.48,0-.9.12-1.25.38-.35.26-.53.69-.53,1.3,0,.81.31,1.46.92,1.93.62.47,1.63.71,3.04.71s2.46-.36,3.19-1.08c.74-.72,1.11-1.69,1.11-2.91,0-.73-.14-1.35-.4-1.85Z" />
    <path class="cls-4"
        d="M169.92,34.97c-.34-.25-.75-.37-1.23-.37s-.91.12-1.23.37c-.32.25-.48.65-.48,1.21s.16.95.48,1.2c.32.26.73.39,1.23.39s.89-.13,1.23-.39c.35-.25.52-.65.52-1.2s-.17-.96-.52-1.21ZM171.72,51.76c-.42,0-.75-.12-1-.35-.24-.23-.37-.7-.37-1.4v-9.94h-4.73v1.18h.32c.4,0,.72.11.96.33.24.23.36.67.36,1.32v7.13c0,.69-.13,1.15-.39,1.38-.25.23-.59.35-1.01.35h-.21v1.18h6.29v-1.18h-.22Z" />
    <path class="cls-4"
        d="M178.7,51.76c-.4,0-.72-.12-.98-.35-.26-.23-.38-.7-.38-1.4v-15.31h-4.71v1.17h.24c.16,0,.35.04.57.11.21.07.4.21.55.42.15.21.23.54.23.98v12.63c0,.7-.13,1.17-.38,1.4-.24.23-.57.35-.97.35h-.24v1.18h6.29v-1.18h-.22Z" />
    <path class="cls-4"
        d="M183.84,34.97c-.34-.25-.75-.37-1.23-.37s-.91.12-1.23.37-.48.65-.48,1.21.16.95.48,1.2c.32.26.73.39,1.23.39s.89-.13,1.23-.39c.35-.25.52-.65.52-1.2s-.17-.96-.52-1.21ZM185.64,51.76c-.42,0-.75-.12-1-.35-.24-.23-.37-.7-.37-1.4v-9.94h-4.73v1.18h.32c.4,0,.72.11.96.33.24.23.36.67.36,1.32v7.13c0,.69-.13,1.15-.39,1.38-.25.23-.59.35-1.01.35h-.21v1.18h6.29v-1.18h-.22Z" />
    <path class="cls-4"
        d="M196.67,45.59c0-1.89-.42-3.33-1.25-4.32s-1.97-1.49-3.41-1.49c-1.56,0-2.78.58-3.63,1.72-.86,1.14-1.29,2.84-1.29,5.1,0,2.08.43,3.7,1.29,4.85.85,1.15,2.14,1.73,3.85,1.73.96,0,1.74-.14,2.34-.42.6-.28,1.04-.63,1.31-1.04.27-.4.41-.81.41-1.21,0-.27-.07-.48-.21-.63-.13-.16-.3-.26-.49-.33-.22.56-.54,1.04-.96,1.43-.42.39-.96.59-1.63.59-.88,0-1.55-.39-2.02-1.18-.46-.78-.71-2.01-.74-3.69h6.43v-1.11ZM190.29,45.3c.01-1.31.18-2.32.5-3.03s.75-1.07,1.3-1.07.93.37,1.16,1.12c.23.74.34,1.74.32,2.98h-3.28Z" />
    <path class="cls-4"
        d="M209.97,51.76c-.44,0-.76-.1-.96-.3-.21-.2-.32-.67-.32-1.4v-5.62c0-1.62-.27-2.8-.81-3.54-.55-.74-1.34-1.12-2.38-1.12-.8,0-1.43.18-1.88.53-.46.35-.83.87-1.12,1.56h-.09l-.24-1.8h-4.25v1.18h.09c.42,0,.75.09,1,.27.25.19.37.62.37,1.31v7.25c0,.74-.13,1.2-.38,1.39-.26.19-.61.29-1.06.29h-.12v1.18h6.1v-1.18h-.1c-.43,0-.76-.09-.99-.28-.24-.18-.35-.62-.35-1.3v-4.76c0-.65.05-1.27.15-1.84.11-.58.29-1.05.54-1.41.26-.36.6-.54,1.04-.54.54,0,.91.29,1.1.87.19.57.29,1.37.29,2.4v8.04h4.46v-1.18h-.09Z" />
    <path class="cls-4"
        d="M219.66,49.6c-.22.56-.56,1.03-1.02,1.42-.45.38-1.01.57-1.67.57-.85,0-1.45-.43-1.82-1.28-.37-.86-.55-2.11-.55-3.76,0-1.39.07-2.48.22-3.26.16-.79.37-1.34.63-1.66s.58-.48.95-.48c.46,0,.78.3.96.89.17.59.26,1.3.26,2.11.72,0,1.27-.08,1.65-.25.37-.17.63-.39.76-.67.14-.28.21-.6.21-.95,0-.7-.31-1.3-.93-1.78-.61-.48-1.62-.72-3.01-.72-.91,0-1.73.21-2.46.63-.73.41-1.31,1.11-1.74,2.1-.43.98-.65,2.34-.65,4.07,0,1.61.21,2.9.63,3.86.41.96.99,1.66,1.73,2.09.73.43,1.59.65,2.56.65s1.77-.14,2.33-.41.96-.61,1.19-1.01c.23-.4.35-.78.35-1.15,0-.24-.05-.44-.16-.6-.1-.16-.24-.3-.42-.41Z" />
    <path class="cls-4"
        d="M231.42,45.59c0-1.89-.42-3.33-1.25-4.32s-1.96-1.49-3.4-1.49c-1.57,0-2.79.58-3.64,1.72-.86,1.14-1.28,2.84-1.28,5.1,0,2.08.42,3.7,1.28,4.85.85,1.15,2.14,1.73,3.85,1.73.96,0,1.74-.14,2.34-.42.6-.28,1.04-.63,1.31-1.04.27-.4.41-.81.41-1.21,0-.27-.07-.48-.21-.63-.13-.16-.3-.26-.49-.33-.22.56-.54,1.04-.96,1.43-.42.39-.96.59-1.63.59-.88,0-1.55-.39-2.02-1.18-.46-.78-.71-2.01-.74-3.69h6.43v-1.11ZM225.04,45.3c.01-1.31.18-2.32.5-3.03s.75-1.07,1.3-1.07.93.37,1.16,1.12c.23.74.34,1.74.33,2.98h-3.29Z" />
    <path class="cls-4"
        d="M54.78,63.17h3.1c.38,0,.7.16.95.48s.4.77.47,1.37l.09,1.12h1.42l-.12-4.34h-10.95v1.18h.75c.3,0,.56.1.77.3.2.2.31.58.31,1.14v11.95c0,.56-.11.93-.31,1.11-.21.19-.54.28-.99.28h-.53v1.18h7.28v-1.18h-.94c-.43,0-.76-.11-.97-.32s-.33-.6-.33-1.14v-5.09h4.66v-1.37h-4.66v-6.67Z" />
    <path class="cls-4"
        d="M66.05,60.97c-.34-.25-.76-.37-1.24-.37s-.9.12-1.22.37c-.32.25-.48.65-.48,1.21s.16.95.48,1.2c.32.26.73.39,1.22.39s.9-.13,1.24-.39c.34-.25.52-.65.52-1.2s-.18-.96-.52-1.21ZM67.84,77.76c-.42,0-.75-.12-1-.35-.25-.23-.37-.7-.37-1.4v-9.94h-4.73v1.18h.32c.39,0,.71.11.96.33.23.23.35.67.35,1.32v7.13c0,.69-.12,1.15-.38,1.38-.26.23-.59.35-1.01.35h-.21v1.18h6.29v-1.18h-.22Z" />
    <path class="cls-4"
        d="M80.92,77.76c-.43,0-.75-.1-.96-.3-.21-.2-.31-.67-.31-1.4v-5.62c0-1.62-.28-2.8-.82-3.54-.54-.74-1.33-1.12-2.37-1.12-.81,0-1.43.18-1.89.53-.45.35-.83.87-1.11,1.56h-.1l-.24-1.8h-4.25v1.18h.1c.41,0,.74.09.99.27.25.19.37.62.37,1.31v7.25c0,.74-.12,1.2-.38,1.39s-.61.29-1.06.29h-.12v1.18h6.1v-1.18h-.1c-.43,0-.76-.09-.99-.28-.23-.18-.35-.62-.35-1.3v-4.76c0-.65.05-1.27.16-1.84.1-.58.28-1.05.54-1.41.25-.36.6-.54,1.03-.54.54,0,.91.29,1.1.87.2.57.29,1.37.29,2.4v8.04h4.47v-1.18h-.1Z" />
    <path class="cls-4"
        d="M92.65,77.76c-.44,0-.75-.12-.92-.36s-.25-.69-.25-1.34v-6.17c0-1.51-.35-2.57-1.06-3.18-.7-.62-1.74-.93-3.12-.93-1.17,0-2.14.2-2.93.6-.78.4-1.17,1-1.17,1.8,0,1.06.85,1.59,2.54,1.59,0-.82.1-1.46.3-1.92.2-.47.53-.7,1-.7.51,0,.86.25,1.04.73.19.49.28,1.19.28,2.1v1.35l-1.61.07c-1.47.06-2.57.4-3.29,1.02-.72.62-1.08,1.57-1.08,2.87s.3,2.31.89,2.94c.59.63,1.31.95,2.16.95.75,0,1.32-.18,1.7-.53.39-.35.8-.85,1.23-1.49h.19l.41,1.78h3.77v-1.18h-.08ZM88.39,74.35c0,.96-.16,1.75-.48,2.37-.32.61-.75.92-1.29.92-.36,0-.62-.2-.78-.6-.17-.4-.26-.94-.26-1.63,0-.9.15-1.58.44-2.04.28-.47.8-.73,1.56-.79l.81-.08v1.85Z" />
    <path class="cls-4"
        d="M105.85,77.76c-.43,0-.75-.1-.96-.3-.2-.2-.31-.67-.31-1.4v-5.62c0-1.62-.27-2.8-.81-3.54-.55-.74-1.34-1.12-2.38-1.12-.8,0-1.43.18-1.88.53-.46.35-.83.87-1.12,1.56h-.1l-.24-1.8h-4.24v1.18h.09c.42,0,.75.09,1,.27.25.19.37.62.37,1.31v7.25c0,.74-.13,1.2-.38,1.39-.26.19-.61.29-1.06.29h-.12v1.18h6.1v-1.18h-.1c-.43,0-.76-.09-1-.28-.23-.18-.34-.62-.34-1.3v-4.76c0-.65.05-1.27.15-1.84.11-.58.29-1.05.54-1.41.26-.36.6-.54,1.03-.54.55,0,.92.29,1.11.87.19.57.29,1.37.29,2.4v8.04h4.46v-1.18h-.1Z" />
    <path class="cls-4"
        d="M115.55,75.6c-.22.56-.56,1.03-1.02,1.42-.46.38-1.01.57-1.67.57-.85,0-1.45-.43-1.82-1.28-.37-.86-.55-2.11-.55-3.76,0-1.39.07-2.48.22-3.26.16-.79.36-1.34.63-1.66.26-.32.58-.48.95-.48.46,0,.78.3.96.89.17.59.26,1.3.26,2.11.72,0,1.27-.08,1.64-.25.38-.17.64-.39.77-.67.14-.28.21-.6.21-.95,0-.7-.31-1.3-.93-1.78-.61-.48-1.62-.72-3.01-.72-.91,0-1.73.21-2.46.63-.73.41-1.31,1.11-1.74,2.1-.43.98-.65,2.34-.65,4.07,0,1.61.21,2.9.63,3.86.41.96.99,1.66,1.72,2.09.74.43,1.6.65,2.57.65s1.77-.14,2.33-.41.96-.61,1.19-1.01c.23-.4.35-.78.35-1.15,0-.24-.06-.44-.16-.6-.1-.16-.24-.3-.42-.41Z" />
    <path class="cls-4"
        d="M127.32,71.59c0-1.89-.42-3.33-1.25-4.32s-1.97-1.49-3.41-1.49c-1.56,0-2.78.58-3.63,1.72-.86,1.14-1.29,2.84-1.29,5.1,0,2.08.43,3.7,1.29,4.85.85,1.15,2.14,1.73,3.85,1.73.96,0,1.74-.14,2.34-.42.6-.28,1.04-.63,1.31-1.04.27-.4.41-.81.41-1.21,0-.27-.07-.48-.21-.63-.13-.16-.3-.26-.49-.33-.22.56-.54,1.04-.96,1.43-.42.39-.96.59-1.63.59-.88,0-1.55-.39-2.02-1.18-.46-.78-.71-2.01-.74-3.69h6.43v-1.11ZM120.93,71.3c.01-1.31.18-2.32.5-3.03s.75-1.07,1.3-1.07.93.37,1.16,1.12c.23.74.34,1.74.32,2.98h-3.28Z" />
    <path class="cls-6"
        d="M143.03,71.16c-.58-.8-1.54-1.54-2.9-2.23-.88-.43-1.56-.83-2.03-1.2-.47-.37-.8-.75-.97-1.13-.18-.38-.27-.81-.27-1.27,0-.77.17-1.37.52-1.79.34-.42.81-.64,1.4-.64.5,0,.91.16,1.24.48.33.32.57.73.74,1.23.17.49.25,1.01.25,1.56.85,0,1.46-.16,1.83-.47.37-.31.55-.74.55-1.28,0-.47-.16-.92-.47-1.36s-.78-.8-1.4-1.08c-.63-.28-1.42-.42-2.38-.42s-1.76.18-2.49.55c-.74.37-1.32.89-1.76,1.56-.43.67-.64,1.47-.64,2.4,0,1.22.27,2.24.81,3.07.55.84,1.49,1.6,2.83,2.28,1.08.56,1.9,1.1,2.49,1.62.58.52.87,1.23.87,2.13,0,.78-.2,1.43-.6,1.93-.4.5-.96.76-1.7.76s-1.44-.34-2.02-1.02c-.57-.68-.88-1.7-.91-3.04-.57,0-1.08.16-1.52.48s-.66.86-.66,1.61c0,.54.14,1.07.42,1.57.28.5.77.92,1.47,1.24.71.32,1.68.48,2.91.48,1.57,0,2.83-.45,3.8-1.34.97-.88,1.45-2.1,1.45-3.66,0-1.21-.28-2.22-.86-3.02Z" />
    <path class="cls-6"
        d="M157.03,77.76c-.37,0-.67-.08-.92-.25s-.37-.61-.37-1.31v-10.13h-4.4v1.18h.08c.36,0,.66.09.88.26.23.18.34.63.34,1.35v4.72c0,1.14-.13,2.05-.4,2.73-.26.68-.7,1.02-1.3,1.02-.56,0-.94-.28-1.13-.83s-.29-1.4-.29-2.53v-7.9h-4.44v1.18h.07c.48,0,.81.11.99.32.17.22.26.67.26,1.36v5.52c0,1.63.26,2.83.79,3.59.53.76,1.37,1.14,2.52,1.14.69,0,1.27-.16,1.75-.47.48-.31.88-.84,1.2-1.57h.1l.46,1.8h3.98v-1.18h-.17Z" />
    <path class="cls-6"
        d="M176.53,77.76c-.43,0-.75-.1-.96-.3-.2-.2-.31-.67-.31-1.4v-5.62c0-1.62-.29-2.8-.89-3.54-.59-.74-1.4-1.12-2.44-1.12-1.57,0-2.6.72-3.1,2.16h-.1c-.22-.78-.58-1.34-1.06-1.66-.49-.33-1.08-.5-1.77-.5-.85,0-1.51.18-1.99.53-.48.35-.86.87-1.13,1.56h-.12l-.26-1.8h-4.23v1.13h.08c.43,0,.77.09,1.02.28.24.18.37.62.37,1.33v7.27c0,.74-.13,1.2-.37,1.39-.25.19-.59.29-1.02.29h-.17v1.18h6.09v-1.18h-.04c-.45,0-.79-.09-1.02-.28-.24-.18-.35-.62-.35-1.3v-4.76c0-.65.05-1.27.17-1.84.11-.58.29-1.04.55-1.4.25-.35.58-.52.98-.52.55,0,.92.28,1.13.85.21.57.31,1.36.31,2.39v8.04h4.44v-1.18h-.09c-.44,0-.75-.1-.95-.3s-.3-.67-.3-1.4v-4.92c0-.63.05-1.2.17-1.73.11-.53.28-.95.52-1.27s.57-.48.99-.48c.54,0,.92.28,1.14.85.21.57.32,1.36.32,2.39v8.04h4.47v-1.18h-.08Z" />
    <path class="cls-6"
        d="M195.9,77.76c-.43,0-.75-.1-.96-.3-.21-.2-.31-.67-.31-1.4v-5.62c0-1.62-.3-2.8-.89-3.54s-1.41-1.12-2.45-1.12c-1.56,0-2.6.72-3.09,2.16h-.1c-.22-.78-.58-1.34-1.07-1.66-.48-.33-1.07-.5-1.76-.5-.85,0-1.51.18-1.99.53-.48.35-.86.87-1.13,1.56h-.12l-.26-1.8h-4.23v1.13h.07c.44,0,.78.09,1.02.28.25.18.38.62.38,1.33v7.27c0,.74-.13,1.2-.38,1.39-.24.19-.58.29-1.02.29h-.16v1.18h6.09v-1.18h-.05c-.44,0-.78-.09-1.02-.28-.23-.18-.34-.62-.34-1.3v-4.76c0-.65.05-1.27.16-1.84.12-.58.3-1.04.56-1.4.25-.35.58-.52.98-.52.54,0,.92.28,1.13.85.2.57.31,1.36.31,2.39v8.04h4.44v-1.18h-.1c-.43,0-.74-.1-.94-.3s-.3-.67-.3-1.4v-4.92c0-.63.05-1.2.16-1.73.11-.53.29-.95.53-1.27s.57-.48.99-.48c.54,0,.92.28,1.14.85.21.57.32,1.36.32,2.39v8.04h4.46v-1.18h-.07Z" />
    <path class="cls-6"
        d="M201.05,60.97c-.34-.25-.76-.37-1.24-.37s-.9.12-1.22.37c-.32.25-.48.65-.48,1.21s.16.95.48,1.2c.32.26.73.39,1.22.39s.9-.13,1.24-.39c.34-.25.51-.65.51-1.2s-.17-.96-.51-1.21ZM202.84,77.76c-.42,0-.75-.12-1-.35-.25-.23-.37-.7-.37-1.4v-9.94h-4.73v1.18h.31c.4,0,.72.11.96.33.24.23.36.67.36,1.32v7.13c0,.69-.12,1.15-.38,1.38-.26.23-.59.35-1.01.35h-.21v1.18h6.28v-1.18h-.21Z" />
    <path class="cls-6"
        d="M209.65,77.4c-.46,0-.79-.17-.97-.52-.18-.34-.27-.9-.27-1.66v-7.76h2.49v-1.39h-2.49v-2.95h-1.73c-.1.59-.22,1.06-.37,1.42-.16.35-.32.64-.5.88-.21.26-.47.48-.79.68-.32.19-.72.3-1.2.33v1.03h1.47v7.95c0,1.41.26,2.39.8,2.94.53.55,1.29.83,2.27.83.67,0,1.24-.06,1.7-.18s.81-.24,1.03-.35v-1.47c-.43.15-.91.22-1.44.22Z" />
    <path class="cls-1"
        d="M57.03,78.94h-7.28v-1.18h.53c.45,0,.78-.09.99-.28.2-.18.31-.55.31-1.11v-11.95c0-.56-.11-.94-.31-1.14-.21-.2-.47-.3-.77-.3h-.75v-1.18h10.95l.12,4.34h-1.42l-.09-1.12c-.07-.6-.22-1.05-.47-1.37s-.57-.48-.95-.48h-3.1v6.67h4.66v1.37h-4.66v5.09c0,.54.11.92.33,1.14s.54.32.97.32h.94v1.18Z" />
    <path class="cls-1"
        d="M51.04,48.99c-.5-1.32-.74-2.87-.74-4.65s.25-3.29.75-4.6c.51-1.32,1.26-2.34,2.27-3.08,1.01-.73,2.26-1.1,3.74-1.1s2.64.28,3.41.83c.77.55,1.15,1.2,1.15,1.95,0,.55-.21,1-.63,1.37-.43.37-1.05.55-1.89.55,0-.52-.06-1.04-.2-1.54-.14-.51-.37-.92-.7-1.24-.33-.32-.77-.48-1.33-.48-1.17,0-1.98.65-2.45,1.94-.46,1.3-.69,3.1-.69,5.4s.29,4.18.86,5.37c.58,1.19,1.56,1.79,2.95,1.79.69,0,1.27-.12,1.74-.35.47-.23.88-.53,1.2-.89.33-.36.61-.72.83-1.09.1.09.17.23.23.42.06.18.08.36.08.54,0,.41-.13.86-.4,1.33-.28.47-.75.88-1.43,1.21-.68.34-1.61.51-2.8.51-1.49,0-2.73-.37-3.72-1.11-.99-.73-1.73-1.76-2.23-3.08Z" />
    <path class="cls-1"
        d="M66.05,60.97c.34.25.52.65.52,1.21s-.18.95-.52,1.2c-.34.26-.76.39-1.24.39s-.9-.13-1.22-.39c-.32-.25-.48-.65-.48-1.2s.16-.96.48-1.21c.32-.25.73-.37,1.22-.37s.9.12,1.24.37Z" />
    <path class="cls-1"
        d="M62.07,67.25h-.32v-1.18h4.73v9.94c0,.7.12,1.17.37,1.4.25.23.58.35,1,.35h.22v1.18h-6.29v-1.18h.21c.42,0,.75-.12,1.01-.35.26-.23.38-.69.38-1.38v-7.13c0-.65-.12-1.09-.35-1.32-.25-.22-.57-.33-.96-.33Z" />
    <path class="cls-1"
        d="M69.07,52.94h-6.28v-1.18h.24c.39,0,.72-.12.97-.35.25-.23.37-.7.37-1.4v-12.63c0-.44-.08-.77-.23-.98-.15-.21-.33-.35-.55-.42-.22-.07-.4-.11-.56-.11h-.24v-1.17h4.7v15.31c0,.7.13,1.17.38,1.4.26.23.59.35.99.35h.21v1.18Z" />
    <path class="cls-1"
        d="M71.09,37.38c-.32-.25-.48-.65-.48-1.2s.16-.96.48-1.21c.32-.25.73-.37,1.22-.37s.89.12,1.24.37c.34.25.51.65.51,1.21s-.17.95-.51,1.2c-.35.26-.76.39-1.24.39s-.9-.13-1.22-.39Z" />
    <path class="cls-1"
        d="M69.54,41.25h-.31v-1.18h4.73v9.94c0,.7.12,1.17.37,1.4.25.23.58.35,1,.35h.21v1.18h-6.29v-1.18h.22c.42,0,.75-.12,1.01-.35.25-.23.38-.69.38-1.38v-7.13c0-.65-.12-1.09-.36-1.32-.24-.22-.56-.33-.96-.33Z" />
    <path class="cls-1"
        d="M74.58,66.31c.46-.35,1.08-.53,1.89-.53,1.04,0,1.83.38,2.37,1.12.54.74.82,1.92.82,3.54v5.62c0,.73.1,1.2.31,1.4.21.2.53.3.96.3h.1v1.18h-4.47v-8.04c0-1.03-.09-1.83-.29-2.4-.19-.58-.56-.87-1.1-.87-.43,0-.78.18-1.03.54-.26.36-.44.83-.54,1.41-.11.57-.16,1.19-.16,1.84v4.76c0,.68.12,1.12.35,1.3.23.19.56.28.99.28h.1v1.18h-6.1v-1.18h.12c.45,0,.8-.1,1.06-.29s.38-.65.38-1.39v-7.25c0-.69-.12-1.12-.37-1.31-.25-.18-.58-.27-.99-.27h-.1v-1.18h4.25l.24,1.8h.1c.28-.69.66-1.21,1.11-1.56Z" />
    <path class="cls-1"
        d="M88.36,71.33v-1.35c0-.91-.09-1.61-.28-2.1-.18-.48-.53-.73-1.04-.73-.47,0-.8.23-1,.7-.2.46-.3,1.1-.3,1.92-1.69,0-2.54-.53-2.54-1.59,0-.8.39-1.4,1.17-1.8.79-.4,1.76-.6,2.93-.6,1.38,0,2.42.31,3.12.93.71.61,1.06,1.67,1.06,3.18v6.17c0,.65.08,1.1.25,1.34s.48.36.92.36h.08v1.18h-3.77l-.41-1.78h-.19c-.43.64-.84,1.14-1.23,1.49-.38.35-.95.53-1.7.53-.85,0-1.57-.32-2.16-.95-.59-.63-.89-1.61-.89-2.94s.36-2.25,1.08-2.87c.72-.62,1.82-.96,3.29-1.02l1.61-.07Z" />
    <path class="cls-1"
        d="M83.38,52.94h-6.1v-1.18h.17c.43,0,.77-.1,1.02-.29s.37-.65.37-1.39v-7.27c0-.71-.12-1.15-.37-1.33-.25-.19-.59-.28-1.02-.28h-.07v-1.13h4.22l.26,1.8h.12c.28-.69.65-1.21,1.13-1.56.48-.35,1.15-.53,1.99-.53.69,0,1.28.17,1.77.5.49.32.84.88,1.07,1.66h.09c.5-1.44,1.53-2.16,3.1-2.16,1.04,0,1.85.38,2.45,1.12.59.74.88,1.92.88,3.54v5.62c0,.73.11,1.2.32,1.4.2.2.52.3.96.3h.07v1.18h-4.47v-8.04c0-1.03-.1-1.82-.32-2.39-.22-.57-.6-.85-1.14-.85-.42,0-.74.16-.98.48-.24.32-.42.74-.53,1.27-.11.53-.17,1.1-.17,1.73v4.92c0,.73.1,1.2.3,1.4s.52.3.95.3h.09v1.18h-4.44v-8.04c0-1.03-.1-1.82-.31-2.39-.21-.57-.58-.85-1.13-.85-.4,0-.72.17-.98.52-.26.36-.44.82-.55,1.4-.11.57-.17,1.19-.17,1.84v4.76c0,.68.12,1.12.35,1.3.23.19.57.28,1.02.28h.05v1.18Z" />
    <path class="cls-1"
        d="M101.49,78.94v-8.04c0-1.03-.1-1.83-.29-2.4-.19-.58-.56-.87-1.11-.87-.43,0-.77.18-1.03.54-.25.36-.43.83-.54,1.41-.1.57-.15,1.19-.15,1.84v4.76c0,.68.11,1.12.34,1.3.24.19.57.28,1,.28h.1v1.18h-6.1v-1.18h.12c.45,0,.8-.1,1.06-.29.25-.19.38-.65.38-1.39v-7.25c0-.69-.12-1.12-.37-1.31-.25-.18-.58-.27-1-.27h-.09v-1.18h4.24l.24,1.8h.1c.29-.69.66-1.21,1.12-1.56.45-.35,1.08-.53,1.88-.53,1.04,0,1.83.38,2.38,1.12.54.74.81,1.92.81,3.54v5.62c0,.73.11,1.2.31,1.4.21.2.53.3.96.3h.1v1.18h-4.46Z" />
    <path class="cls-1"
        d="M103.12,45.33v-1.35c0-.91-.09-1.61-.28-2.1-.18-.48-.53-.73-1.04-.73-.47,0-.8.23-1,.7-.2.46-.3,1.1-.3,1.92-1.69,0-2.54-.53-2.54-1.59,0-.8.39-1.4,1.17-1.8.79-.4,1.76-.6,2.93-.6,1.38,0,2.42.31,3.12.93.71.61,1.06,1.67,1.06,3.18v6.17c0,.65.08,1.1.25,1.34s.48.36.92.36h.08v1.18h-3.77l-.41-1.78h-.19c-.43.64-.84,1.14-1.23,1.49-.38.35-.95.53-1.7.53-.85,0-1.57-.32-2.16-.95-.59-.63-.89-1.61-.89-2.94s.36-2.25,1.08-2.87c.72-.62,1.82-.96,3.29-1.02l1.61-.07Z" />
    <path class="cls-1"
        d="M108.02,41.46h-1.46v-1.03c.48-.03.88-.14,1.2-.33.32-.2.58-.42.79-.68.18-.24.34-.53.49-.88.16-.36.28-.83.38-1.42h1.72v2.95h2.5v1.39h-2.5v7.76c0,.76.1,1.32.28,1.66.18.35.51.52.97.52.53,0,1.01-.07,1.44-.22v1.47c-.22.11-.57.23-1.03.35-.46.12-1.03.18-1.7.18-.98,0-1.74-.28-2.27-.83-.54-.55-.81-1.53-.81-2.94v-7.95Z" />
    <path class="cls-1"
        d="M110.72,69.29c-.15.78-.22,1.87-.22,3.26,0,1.65.18,2.9.55,3.76.37.85.97,1.28,1.82,1.28.66,0,1.21-.19,1.67-.57.46-.39.8-.86,1.02-1.42.18.11.32.25.42.41.1.16.16.36.16.6,0,.37-.12.75-.35,1.15-.23.4-.63.74-1.19,1.01s-1.34.41-2.33.41-1.83-.22-2.57-.65c-.73-.43-1.31-1.13-1.72-2.09-.42-.96-.63-2.25-.63-3.86,0-1.73.22-3.09.65-4.07.43-.99,1.01-1.69,1.74-2.1.73-.42,1.55-.63,2.46-.63,1.39,0,2.4.24,3.01.72.62.48.93,1.08.93,1.78,0,.35-.07.67-.21.95-.13.28-.39.5-.77.67-.37.17-.92.25-1.64.25,0-.81-.09-1.52-.26-2.11-.18-.59-.5-.89-.96-.89-.37,0-.69.16-.95.48-.27.32-.47.87-.63,1.66Z" />
    <path class="cls-1"
        d="M116.39,51.45c-.86-1.15-1.29-2.77-1.29-4.85,0-2.26.43-3.96,1.29-5.1.85-1.14,2.07-1.72,3.63-1.72,1.44,0,2.58.5,3.41,1.49s1.25,2.43,1.25,4.32v1.11h-6.43c.03,1.68.28,2.91.74,3.69.47.79,1.14,1.18,2.02,1.18.67,0,1.21-.2,1.63-.59.42-.39.74-.87.96-1.43.19.07.36.17.49.33.14.15.21.36.21.63,0,.4-.14.81-.41,1.21-.27.41-.71.76-1.31,1.04-.6.28-1.38.42-2.34.42-1.71,0-3-.58-3.85-1.73Z" />
    <path class="cls-1"
        d="M122.65,65.78c1.44,0,2.58.5,3.41,1.49s1.25,2.43,1.25,4.32v1.11h-6.43c.03,1.68.28,2.91.74,3.69.47.79,1.14,1.18,2.02,1.18.67,0,1.21-.2,1.63-.59.42-.39.74-.87.96-1.43.19.07.36.17.49.33.14.15.21.36.21.63,0,.4-.14.81-.41,1.21-.27.41-.71.76-1.31,1.04-.6.28-1.38.42-2.34.42-1.71,0-3-.58-3.85-1.73-.86-1.15-1.29-2.77-1.29-4.85,0-2.26.43-3.96,1.29-5.1.85-1.14,2.07-1.72,3.63-1.72Z" />
    <path class="cls-1"
        d="M140.65,77.1c.4-.5.6-1.15.6-1.93,0-.9-.29-1.61-.87-2.13-.59-.52-1.41-1.06-2.49-1.62-1.34-.68-2.28-1.44-2.83-2.28-.54-.83-.81-1.85-.81-3.07,0-.93.21-1.73.64-2.4.44-.67,1.02-1.19,1.76-1.56.73-.37,1.56-.55,2.49-.55s1.75.14,2.38.42c.62.28,1.09.64,1.4,1.08s.47.89.47,1.36c0,.54-.18.97-.55,1.28-.37.31-.98.47-1.83.47,0-.55-.08-1.07-.25-1.56-.17-.5-.41-.91-.74-1.23-.33-.32-.74-.48-1.24-.48-.59,0-1.06.22-1.4.64-.35.42-.52,1.02-.52,1.79,0,.46.09.89.27,1.27.17.38.5.76.97,1.13.47.37,1.15.77,2.03,1.2,1.36.69,2.32,1.43,2.9,2.23.58.8.86,1.81.86,3.02,0,1.56-.48,2.78-1.45,3.66-.97.89-2.23,1.34-3.8,1.34-1.23,0-2.2-.16-2.91-.48-.7-.32-1.19-.74-1.47-1.24-.28-.5-.42-1.03-.42-1.57,0-.75.22-1.29.66-1.61s.95-.48,1.52-.48c.03,1.34.34,2.36.91,3.04.58.68,1.25,1.02,2.02,1.02s1.3-.26,1.7-.76Z" />
    <path class="cls-1"
        d="M137.68,52.94h-6.6v-1.18h.6c.3,0,.58-.08.84-.25.25-.17.38-.58.38-1.24v-11.78c0-.66-.13-1.07-.41-1.25-.27-.18-.54-.26-.81-.26h-.6v-1.18h6.43c2.05,0,3.49.38,4.33,1.15.84.77,1.26,1.89,1.26,3.36,0,.91-.13,1.67-.38,2.27-.26.6-.6,1.08-1.02,1.44-.43.36-.89.63-1.41.8l2.4,4.95c.32.67.62,1.17.9,1.5.28.33.6.49.95.49h.12v1.18h-.69c-1.09,0-1.98-.14-2.68-.41-.7-.27-1.23-.86-1.6-1.75l-2.28-5.31h-1.27v4.8c0,.66.11,1.07.31,1.24.21.17.49.25.84.25h.39v1.18Z" />
    <path class="cls-1"
        d="M146.79,51.45c-.86-1.15-1.29-2.77-1.29-4.85,0-2.26.43-3.96,1.29-5.1.85-1.14,2.06-1.72,3.63-1.72,1.44,0,2.58.5,3.41,1.49.83.99,1.25,2.43,1.25,4.32v1.11h-6.43c.03,1.68.28,2.91.74,3.69.46.79,1.14,1.18,2.02,1.18.67,0,1.21-.2,1.63-.59.41-.39.73-.87.96-1.43.19.07.35.17.49.33.14.15.2.36.2.63,0,.4-.13.81-.4,1.21-.28.41-.71.76-1.31,1.04-.6.28-1.38.42-2.34.42-1.71,0-3-.58-3.85-1.73Z" />
    <path class="cls-1"
        d="M145.15,67.25h-.07v-1.18h4.44v7.9c0,1.13.1,1.98.29,2.53s.57.83,1.13.83c.6,0,1.04-.34,1.3-1.02.27-.68.4-1.59.4-2.73v-4.72c0-.72-.11-1.17-.34-1.35-.22-.17-.52-.26-.88-.26h-.08v-1.18h4.4v10.13c0,.7.12,1.14.37,1.31s.55.25.92.25h.17v1.18h-3.98l-.46-1.8h-.1c-.32.73-.72,1.26-1.2,1.57-.48.31-1.06.47-1.75.47-1.15,0-1.99-.38-2.52-1.14-.53-.76-.79-1.96-.79-3.59v-5.52c0-.69-.09-1.14-.26-1.36-.18-.21-.51-.32-.99-.32Z" />
    <path class="cls-1"
        d="M161.9,51.34c.29-.34.44-.79.44-1.33s-.18-.96-.53-1.29c-.35-.32-.93-.67-1.73-1.04-.78-.35-1.42-.71-1.92-1.07-.5-.36-.87-.79-1.12-1.28-.24-.5-.37-1.11-.37-1.85,0-1.22.39-2.13,1.15-2.75.77-.61,1.79-.92,3.05-.92s2.1.23,2.64.68c.55.46.82.99.82,1.6,0,1.01-.61,1.51-1.83,1.51,0-.82-.17-1.44-.52-1.86-.36-.42-.81-.64-1.37-.64-.47,0-.84.14-1.12.42s-.42.67-.42,1.17c0,.57.17,1.02.51,1.33.33.31.95.67,1.84,1.07.69.3,1.28.63,1.78.98.5.35.88.78,1.14,1.27.26.5.4,1.12.4,1.85,0,1.22-.37,2.19-1.11,2.91-.73.72-1.8,1.08-3.19,1.08s-2.42-.24-3.04-.71c-.61-.47-.92-1.12-.92-1.93,0-.61.18-1.04.53-1.3.35-.26.77-.38,1.25-.38,0,.96.19,1.7.58,2.22.4.52.94.78,1.65.78.65,0,1.13-.18,1.41-.52Z" />
    <path class="cls-1"
        d="M167.47,37.38c-.32-.25-.48-.65-.48-1.2s.16-.96.48-1.21c.32-.25.73-.37,1.23-.37s.89.12,1.23.37c.35.25.52.65.52,1.21s-.17.95-.52,1.2c-.34.26-.75.39-1.23.39s-.91-.13-1.23-.39Z" />
    <path class="cls-1"
        d="M165.93,41.25h-.32v-1.18h4.73v9.94c0,.7.13,1.17.37,1.4.25.23.58.35,1,.35h.22v1.18h-6.29v-1.18h.21c.42,0,.76-.12,1.01-.35.26-.23.39-.69.39-1.38v-7.13c0-.65-.12-1.09-.36-1.32-.24-.22-.56-.33-.96-.33Z" />
    <path class="cls-1"
        d="M172.15,78.94v-8.04c0-1.03-.11-1.82-.32-2.39-.22-.57-.6-.85-1.14-.85-.42,0-.75.16-.99.48s-.41.74-.52,1.27c-.12.53-.17,1.1-.17,1.73v4.92c0,.73.1,1.2.3,1.4s.51.3.95.3h.09v1.18h-4.44v-8.04c0-1.03-.1-1.82-.31-2.39-.21-.57-.58-.85-1.13-.85-.4,0-.73.17-.98.52-.26.36-.44.82-.55,1.4-.12.57-.17,1.19-.17,1.84v4.76c0,.68.11,1.12.35,1.3.23.19.57.28,1.02.28h.04v1.18h-6.09v-1.18h.17c.43,0,.77-.1,1.02-.29.24-.19.37-.65.37-1.39v-7.27c0-.71-.13-1.15-.37-1.33-.25-.19-.59-.28-1.02-.28h-.08v-1.13h4.23l.26,1.8h.12c.27-.69.65-1.21,1.13-1.56.48-.35,1.14-.53,1.99-.53.69,0,1.28.17,1.77.5.48.32.84.88,1.06,1.66h.1c.5-1.44,1.53-2.16,3.1-2.16,1.04,0,1.85.38,2.44,1.12.6.74.89,1.92.89,3.54v5.62c0,.73.11,1.2.31,1.4.21.2.53.3.96.3h.08v1.18h-4.47Z" />
    <path class="cls-1"
        d="M178.91,52.94h-6.29v-1.18h.24c.4,0,.73-.12.97-.35.25-.23.38-.7.38-1.4v-12.63c0-.44-.08-.77-.23-.98-.15-.21-.34-.35-.55-.42-.22-.07-.41-.11-.57-.11h-.24v-1.17h4.71v15.31c0,.7.12,1.17.38,1.4.26.23.58.35.98.35h.22v1.18Z" />
    <path class="cls-1"
        d="M181.39,37.38c-.32-.25-.48-.65-.48-1.2s.16-.96.48-1.21.73-.37,1.23-.37.89.12,1.23.37c.35.25.52.65.52,1.21s-.17.95-.52,1.2c-.34.26-.75.39-1.23.39s-.91-.13-1.23-.39Z" />
    <path class="cls-1"
        d="M179.85,41.25h-.32v-1.18h4.73v9.94c0,.7.13,1.17.37,1.4.25.23.58.35,1,.35h.22v1.18h-6.29v-1.18h.21c.42,0,.76-.12,1.01-.35.26-.23.39-.69.39-1.38v-7.13c0-.65-.12-1.09-.36-1.32-.24-.22-.56-.33-.96-.33Z" />
    <path class="cls-1"
        d="M185.28,65.78c.69,0,1.28.17,1.76.5.49.32.85.88,1.07,1.66h.1c.49-1.44,1.53-2.16,3.09-2.16,1.04,0,1.86.38,2.45,1.12s.89,1.92.89,3.54v5.62c0,.73.1,1.2.31,1.4.21.2.53.3.96.3h.07v1.18h-4.46v-8.04c0-1.03-.11-1.82-.32-2.39-.22-.57-.6-.85-1.14-.85-.42,0-.75.16-.99.48s-.42.74-.53,1.27c-.11.53-.16,1.1-.16,1.73v4.92c0,.73.1,1.2.3,1.4s.51.3.94.3h.1v1.18h-4.44v-8.04c0-1.03-.11-1.82-.31-2.39-.21-.57-.59-.85-1.13-.85-.4,0-.73.17-.98.52-.26.36-.44.82-.56,1.4-.11.57-.16,1.19-.16,1.84v4.76c0,.68.11,1.12.34,1.3.24.19.58.28,1.02.28h.05v1.18h-6.09v-1.18h.16c.44,0,.78-.1,1.02-.29.25-.19.38-.65.38-1.39v-7.27c0-.71-.13-1.15-.38-1.33-.24-.19-.58-.28-1.02-.28h-.07v-1.13h4.23l.26,1.8h.12c.27-.69.65-1.21,1.13-1.56.48-.35,1.14-.53,1.99-.53Z" />
    <path class="cls-1"
        d="M188.39,51.45c-.86-1.15-1.29-2.77-1.29-4.85,0-2.26.43-3.96,1.29-5.1.85-1.14,2.07-1.72,3.63-1.72,1.44,0,2.58.5,3.41,1.49s1.25,2.43,1.25,4.32v1.11h-6.43c.03,1.68.28,2.91.74,3.69.47.79,1.14,1.18,2.02,1.18.67,0,1.21-.2,1.63-.59.42-.39.74-.87.96-1.43.19.07.36.17.49.33.14.15.21.36.21.63,0,.4-.14.81-.41,1.21-.27.41-.71.76-1.31,1.04-.6.28-1.38.42-2.34.42-1.71,0-3-.58-3.85-1.73Z" />
    <path class="cls-1"
        d="M201.05,60.97c.34.25.51.65.51,1.21s-.17.95-.51,1.2c-.34.26-.76.39-1.24.39s-.9-.13-1.22-.39c-.32-.25-.48-.65-.48-1.2s.16-.96.48-1.21c.32-.25.73-.37,1.22-.37s.9.12,1.24.37Z" />
    <path class="cls-1"
        d="M197.05,67.25h-.31v-1.18h4.73v9.94c0,.7.12,1.17.37,1.4.25.23.58.35,1,.35h.21v1.18h-6.28v-1.18h.21c.42,0,.75-.12,1.01-.35.26-.23.38-.69.38-1.38v-7.13c0-.65-.12-1.09-.36-1.32-.24-.22-.56-.33-.96-.33Z" />
    <path class="cls-1"
        d="M203.92,52.94h-6.1v-1.18h.12c.45,0,.8-.1,1.06-.29.25-.19.38-.65.38-1.39v-7.25c0-.69-.12-1.12-.37-1.31-.25-.18-.58-.27-1-.27h-.09v-1.18h4.25l.24,1.8h.09c.29-.69.66-1.21,1.12-1.56.45-.35,1.08-.53,1.88-.53,1.04,0,1.83.38,2.38,1.12.54.74.81,1.92.81,3.54v5.62c0,.73.11,1.2.32,1.4.2.2.52.3.96.3h.09v1.18h-4.46v-8.04c0-1.03-.1-1.83-.29-2.4-.19-.58-.56-.87-1.1-.87-.44,0-.78.18-1.04.54-.25.36-.43.83-.54,1.41-.1.57-.15,1.19-.15,1.84v4.76c0,.68.11,1.12.35,1.3.23.19.56.28.99.28h.1v1.18Z" />
    <path class="cls-1"
        d="M208.41,67.46v7.76c0,.76.09,1.32.27,1.66.18.35.51.52.97.52.53,0,1.01-.07,1.44-.22v1.47c-.22.11-.57.23-1.03.35s-1.03.18-1.7.18c-.98,0-1.74-.28-2.27-.83-.54-.55-.8-1.53-.8-2.94v-7.95h-1.47v-1.03c.48-.03.88-.14,1.2-.33.32-.2.58-.42.79-.68.18-.24.34-.53.5-.88.15-.36.27-.83.37-1.42h1.73v2.95h2.49v1.39h-2.49Z" />
    <path class="cls-1"
        d="M212.09,50.44c-.42-.96-.63-2.25-.63-3.86,0-1.73.22-3.09.65-4.07.43-.99,1.01-1.69,1.74-2.1.73-.42,1.55-.63,2.46-.63,1.39,0,2.4.24,3.01.72.62.48.93,1.08.93,1.78,0,.35-.07.67-.21.95-.13.28-.39.5-.76.67-.38.17-.93.25-1.65.25,0-.81-.09-1.52-.26-2.11-.18-.59-.5-.89-.96-.89-.37,0-.69.16-.95.48s-.47.87-.63,1.66c-.15.78-.22,1.87-.22,3.26,0,1.65.18,2.9.55,3.76.37.85.97,1.28,1.82,1.28.66,0,1.22-.19,1.67-.57.46-.39.8-.86,1.02-1.42.18.11.32.25.42.41.11.16.16.36.16.6,0,.37-.12.75-.35,1.15-.23.4-.63.74-1.19,1.01s-1.34.41-2.33.41-1.83-.22-2.56-.65c-.74-.43-1.32-1.13-1.73-2.09Z" />
    <path class="cls-1"
        d="M223.14,51.45c-.86-1.15-1.28-2.77-1.28-4.85,0-2.26.42-3.96,1.28-5.1.85-1.14,2.07-1.72,3.64-1.72,1.44,0,2.57.5,3.4,1.49s1.25,2.43,1.25,4.32v1.11h-6.43c.03,1.68.28,2.91.74,3.69.47.79,1.14,1.18,2.02,1.18.67,0,1.21-.2,1.63-.59.42-.39.74-.87.96-1.43.19.07.36.17.49.33.14.15.21.36.21.63,0,.4-.14.81-.41,1.21-.27.41-.71.76-1.31,1.04-.6.28-1.38.42-2.34.42-1.71,0-3-.58-3.85-1.73Z" />
    <polygon class="cls-1"
        points="242.23 27.96 242.23 85.15 40.96 85.15 40.96 84.99 242.15 84.99 242.15 27.96 242.23 27.96" />
    <polygon class="cls-5"
        points="257.73 24.96 257.73 85.15 242.15 85.15 242.15 27.96 40.86 27.96 40.86 85.15 25.28 85.15 25.28 24.96 257.73 24.96" />
    <path class="cls-3"
        d="M171.14,9.15c-.92-.86-2.16-1.29-3.72-1.29-.32,0-.69.04-1.12.12-.44.08-.76.18-.99.29l.39-4.77h4.03c.3,0,.49.08.57.25.08.17.18.43.29.8l.19.67h1.18l-.07-4.1h-7.27l-.7,8.33.72.38c.3-.11.64-.22,1-.33.36-.12.76-.17,1.21-.17.81,0,1.45.3,1.91.91.45.61.68,1.53.68,2.76,0,1.01-.11,1.8-.32,2.39-.22.58-.51,1-.88,1.24-.37.25-.76.38-1.18.38-.52,0-.94-.15-1.26-.45-.31-.29-.53-.67-.66-1.12-.12-.46-.19-.92-.19-1.39-.46,0-.85.15-1.15.43-.3.27-.46.67-.46,1.18,0,.45.14.9.4,1.34s.69.79,1.28,1.07c.6.28,1.39.43,2.38.43.58,0,1.16-.11,1.76-.32.6-.2,1.16-.53,1.67-.98s.93-1.02,1.24-1.72c.31-.69.47-1.52.47-2.48,0-1.71-.47-3-1.4-3.85ZM160.6,13.5l-.17.67c-.13.57-.34.99-.62,1.27-.29.27-.62.42-.99.42h-4.34l2.95-3.41c.78-.87,1.47-1.69,2.05-2.47.59-.79,1.05-1.59,1.38-2.41.34-.81.51-1.67.51-2.56,0-1.24-.4-2.23-1.18-2.99-.78-.76-1.93-1.14-3.43-1.14-.98,0-1.79.15-2.43.47-.64.31-1.12.72-1.44,1.22s-.48,1.03-.48,1.57c0,.77.26,1.29.77,1.56.51.28,1.09.41,1.73.41,0-1.23.14-2.18.43-2.86.29-.67.76-1,1.42-1,.46,0,.83.23,1.11.71.28.47.42,1.19.42,2.17,0,.77-.09,1.51-.27,2.22-.19.71-.5,1.46-.95,2.26-.45.81-1.06,1.71-1.85,2.72l-2.88,3.84v2.08h9.39l.09-4.75h-1.22ZM150.52,4.94c-.32-1.32-.82-2.32-1.52-3.02-.69-.69-1.62-1.04-2.79-1.04-1.23,0-2.21.35-2.92,1.06-.71.7-1.21,1.71-1.51,3.02-.3,1.31-.44,2.87-.44,4.68s.15,3.42.45,4.75c.31,1.33.81,2.34,1.51,3.05.71.7,1.67,1.06,2.88,1.06s2.08-.36,2.79-1.07c.7-.71,1.21-1.73,1.53-3.05s.48-2.89.48-4.72-.15-3.41-.46-4.72ZM147.55,15.11c-.21,1.3-.67,1.94-1.38,1.94s-1.18-.64-1.39-1.94c-.21-1.3-.31-3.11-.31-5.45s.1-4.14.31-5.42c.21-1.28.68-1.92,1.42-1.92.69,0,1.14.64,1.35,1.92.22,1.28.33,3.09.33,5.42s-.11,4.15-.33,5.45ZM138.72,13.5l-.17.67c-.13.57-.33.99-.62,1.27-.29.27-.62.42-.99.42h-4.34l2.95-3.41c.79-.87,1.47-1.69,2.05-2.47.59-.79,1.05-1.59,1.38-2.41.34-.81.51-1.67.51-2.56,0-1.24-.39-2.23-1.18-2.99-.78-.76-1.93-1.14-3.43-1.14-.98,0-1.78.15-2.42.47-.64.31-1.12.72-1.44,1.22s-.48,1.03-.48,1.57c0,.77.25,1.29.76,1.56.52.28,1.09.41,1.73.41,0-1.23.15-2.18.43-2.86.29-.67.76-1,1.42-1,.46,0,.84.23,1.12.71.28.47.42,1.19.42,2.17,0,.77-.1,1.51-.28,2.22-.18.71-.5,1.46-.95,2.26-.45.81-1.06,1.71-1.85,2.72l-2.88,3.84v2.08h9.39l.09-4.75h-1.22ZM124.08,17.08c-.43,0-.75-.1-.96-.3s-.31-.67-.31-1.4v-5.62c0-1.62-.27-2.8-.82-3.54-.54-.74-1.33-1.12-2.37-1.12-.8,0-1.43.18-1.89.53-.45.35-.83.87-1.11,1.56h-.1l-.24-1.8h-4.25v1.18h.1c.41,0,.75.09.99.27.25.19.38.62.38,1.31v7.25c0,.73-.13,1.2-.39,1.39-.25.19-.61.29-1.05.29h-.12v1.17h6.09v-1.17h-.09c-.44,0-.77-.09-1-.28-.23-.18-.35-.62-.35-1.3v-4.76c0-.65.05-1.27.16-1.84.1-.58.28-1.05.54-1.41.25-.36.6-.54,1.03-.54.54,0,.91.29,1.1.86.2.58.29,1.38.29,2.4v8.04h4.47v-1.17h-.1ZM109.3,6.76c-.91-1.11-2.15-1.66-3.73-1.66-1.72,0-3.01.55-3.88,1.66-.87,1.1-1.31,2.78-1.31,5.04s.46,3.93,1.37,5.04c.91,1.1,2.16,1.66,3.74,1.66,3.44,0,5.16-2.24,5.16-6.7,0-2.26-.45-3.94-1.35-5.04ZM107.08,15.73c-.28.9-.79,1.35-1.53,1.35s-1.23-.45-1.52-1.35c-.3-.89-.45-2.2-.45-3.93s.15-3.06.44-3.94c.28-.88.79-1.32,1.51-1.32s1.25.44,1.53,1.32c.29.88.44,2.2.44,3.94s-.14,3.04-.42,3.93ZM98.99,17.08c-.48,0-.84-.12-1.09-.36s-.37-.73-.37-1.47V.01h-4.85v1.18h.17c.41,0,.78.09,1.09.27.31.17.47.6.47,1.29v1.66c0,.46,0,.92.01,1.38.01.45.02.86.03,1.23h-.09c-.27-.54-.63-.99-1.07-1.35-.44-.36-1.03-.54-1.76-.54-1.27,0-2.24.54-2.93,1.62-.69,1.08-1.03,2.78-1.03,5.1s.34,3.98,1.03,5.05c.69,1.06,1.67,1.6,2.95,1.6.77,0,1.39-.2,1.87-.59.48-.39.87-.93,1.18-1.62h.09l.48,1.96h3.99v-1.17h-.17ZM93.97,15.55c-.28.89-.79,1.34-1.51,1.34-.62,0-1.07-.42-1.34-1.25s-.41-2.1-.41-3.79.14-2.92.41-3.81c.27-.89.72-1.33,1.34-1.33.74,0,1.25.44,1.53,1.32.28.88.42,2.15.42,3.79s-.15,2.85-.44,3.73ZM86.1,17.08c-.43,0-.75-.1-.96-.3-.2-.2-.31-.67-.31-1.4v-5.62c0-1.62-.27-2.8-.81-3.54-.55-.74-1.34-1.12-2.38-1.12-.8,0-1.43.18-1.89.53-.45.35-.82.87-1.11,1.56h-.1l-.24-1.8h-4.24v1.18h.09c.42,0,.75.09,1,.27.24.19.37.62.37,1.31v7.25c0,.73-.13,1.2-.38,1.39-.26.19-.61.29-1.06.29h-.12v1.17h6.1v-1.17h-.1c-.43,0-.77-.09-1-.28-.23-.18-.34-.62-.34-1.3v-4.76c0-.65.05-1.27.15-1.84.1-.58.29-1.05.54-1.41.26-.36.6-.54,1.03-.54.55,0,.91.29,1.11.86.19.58.29,1.38.29,2.4v8.04h4.46v-1.17h-.1ZM71.34,6.76c-.9-1.11-2.15-1.66-3.73-1.66-1.71,0-3,.55-3.88,1.66-.87,1.1-1.3,2.78-1.3,5.04s.45,3.93,1.36,5.04c.92,1.1,2.16,1.66,3.75,1.66,3.44,0,5.16-2.24,5.16-6.7,0-2.26-.46-3.94-1.36-5.04ZM69.1,15.73c-.28.9-.79,1.35-1.52,1.35s-1.23-.45-1.53-1.35c-.3-.89-.44-2.2-.44-3.93s.14-3.06.43-3.94c.29-.88.79-1.32,1.51-1.32s1.25.44,1.54,1.32c.29.88.43,2.2.43,3.94s-.14,3.04-.42,3.93ZM59.88,12.98l-.33,1.79c-.15.71-.34,1.24-.59,1.59-.25.35-.6.53-1.05.53h-3.62V3.71c0-.54.08-.92.25-1.12.17-.19.45-.3.85-.3h.72v-1.17h-6.88v1.17h.67c.32,0,.59.11.81.32.23.2.34.61.34,1.2v11.8c0,.57-.1.95-.31,1.16-.21.21-.45.31-.72.31h-.79v1.17h11.61l.1-5.27h-1.06Z" />
    <polygon class="cls-2"
        points="282.96 36.09 282.96 87.99 .04 87.99 .04 36.1 15.64 36.1 15.64 84.99 267.36 84.99 267.36 36.09 282.96 36.09" />
</svg>