<?xml version="1.0" encoding="UTF-8"?><svg id="Layer_1" xmlns="http://www.w3.org/2000/svg" viewBox="0 0 296 92"><defs><style>.cls-1{fill:#fff;}</style></defs><path class="cls-1" d="M178.99,9.56c-.96-.9-2.26-1.35-3.89-1.35-.33,0-.72.04-1.17.13-.46.08-.79.19-1.04.3l.41-4.99h4.21c.31,0,.51.08.6.26.08.18.19.45.3.84l.2.7h1.23l-.07-4.29h-7.6l-.73,8.71.75.4c.31-.12.67-.23,1.05-.35.38-.13.79-.18,1.27-.18.85,0,1.52.31,2,.95.47.64.71,1.6.71,2.89,0,1.06-.12,1.88-.33,2.5-.23.61-.53,1.05-.92,1.3-.39.26-.79.4-1.23.4-.54,0-.98-.16-1.32-.47-.32-.3-.55-.7-.69-1.17-.13-.48-.2-.96-.2-1.45-.48,0-.89.16-1.2.45-.31.28-.48.7-.48,1.23,0,.47.15.94.42,1.4s.72.83,1.34,1.12c.63.29,1.45.45,2.49.45.61,0,1.21-.12,1.84-.33.63-.21,1.21-.55,1.75-1.02s.97-1.07,1.3-1.8c.32-.72.49-1.59.49-2.59,0-1.79-.49-3.14-1.46-4.03ZM167.98,14.11l-.18.7c-.14.6-.36,1.04-.65,1.33-.3.28-.65.44-1.04.44h-4.54l3.08-3.57c.82-.91,1.54-1.77,2.14-2.58.62-.83,1.1-1.66,1.44-2.52.36-.85.53-1.75.53-2.68,0-1.3-.42-2.33-1.23-3.13-.82-.79-2.02-1.19-3.59-1.19-1.02,0-1.87.16-2.54.49-.67.32-1.17.75-1.51,1.28s-.5,1.08-.5,1.64c0,.81.27,1.35.81,1.63.53.29,1.14.43,1.81.43,0-1.29.15-2.28.45-2.99.3-.7.79-1.05,1.48-1.05.48,0,.87.24,1.16.74.29.49.44,1.24.44,2.27,0,.81-.09,1.58-.28,2.32-.2.74-.52,1.53-.99,2.36-.47.85-1.11,1.79-1.93,2.84l-3.01,4.02v2.17h9.82l.09-4.97h-1.28ZM157.43,5.16c-.33-1.38-.86-2.43-1.59-3.16-.72-.72-1.69-1.09-2.92-1.09-1.29,0-2.31.37-3.05,1.11-.74.73-1.27,1.79-1.58,3.16-.31,1.37-.46,3-.46,4.89s.16,3.58.47,4.97c.32,1.39.85,2.45,1.58,3.19.74.73,1.75,1.11,3.01,1.11s2.18-.38,2.92-1.12c.73-.74,1.27-1.81,1.6-3.19s.5-3.02.5-4.94-.16-3.57-.48-4.94ZM154.33,15.79c-.22,1.36-.7,2.03-1.44,2.03s-1.23-.67-1.45-2.03c-.22-1.36-.32-3.25-.32-5.7s.1-4.33.32-5.67c.22-1.34.71-2.01,1.48-2.01.72,0,1.19.67,1.41,2.01.23,1.34.35,3.23.35,5.67s-.12,4.34-.35,5.7ZM145.09,14.11l-.18.7c-.14.6-.35,1.04-.65,1.33-.3.28-.65.44-1.04.44h-4.54l3.08-3.57c.83-.91,1.54-1.77,2.14-2.58.62-.83,1.1-1.66,1.44-2.52.36-.85.53-1.75.53-2.68,0-1.3-.41-2.33-1.23-3.13-.82-.79-2.02-1.19-3.59-1.19-1.02,0-1.86.16-2.53.49-.67.32-1.17.75-1.51,1.28s-.5,1.08-.5,1.64c0,.81.26,1.35.79,1.63.54.29,1.14.43,1.81.43,0-1.29.16-2.28.45-2.99.3-.7.79-1.05,1.48-1.05.48,0,.88.24,1.17.74.29.49.44,1.24.44,2.27,0,.81-.1,1.58-.29,2.32-.19.74-.52,1.53-.99,2.36-.47.85-1.11,1.79-1.93,2.84l-3.01,4.02v2.17h9.82l.09-4.97h-1.28ZM129.78,17.85c-.45,0-.78-.1-1-.31s-.32-.7-.32-1.46v-5.88c0-1.69-.28-2.93-.86-3.7-.56-.77-1.39-1.17-2.48-1.17-.84,0-1.5.19-1.98.55-.47.37-.87.91-1.16,1.63h-.1l-.25-1.88h-4.44v1.23h.1c.43,0,.78.09,1.04.28.26.2.4.65.4,1.37v7.58c0,.76-.14,1.25-.41,1.45-.26.2-.64.3-1.1.3h-.13v1.22h6.37v-1.22h-.09c-.46,0-.81-.09-1.05-.29-.24-.19-.37-.65-.37-1.36v-4.98c0-.68.05-1.33.17-1.92.1-.61.29-1.1.56-1.47.26-.38.63-.56,1.08-.56.56,0,.95.3,1.15.9.21.61.3,1.44.3,2.51v8.41h4.67v-1.22h-.1ZM114.33,7.06c-.95-1.16-2.25-1.74-3.9-1.74-1.8,0-3.15.58-4.06,1.74-.91,1.15-1.37,2.91-1.37,5.27s.48,4.11,1.43,5.27c.95,1.15,2.26,1.74,3.91,1.74,3.6,0,5.4-2.34,5.4-7.01,0-2.36-.47-4.12-1.41-5.27ZM112,16.44c-.29.94-.83,1.41-1.6,1.41s-1.29-.47-1.59-1.41c-.31-.93-.47-2.3-.47-4.11s.16-3.2.46-4.12c.29-.92.83-1.38,1.58-1.38s1.31.46,1.6,1.38c.3.92.46,2.3.46,4.12s-.15,3.18-.44,4.11ZM103.55,17.85c-.5,0-.88-.13-1.14-.38s-.39-.76-.39-1.54V0h-5.07v1.23h.18c.43,0,.82.09,1.14.28.32.18.49.63.49,1.35v1.74c0,.48,0,.96.01,1.44.01.47.02.9.03,1.29h-.09c-.28-.56-.66-1.04-1.12-1.41-.46-.38-1.08-.56-1.84-.56-1.33,0-2.34.56-3.06,1.69-.72,1.13-1.08,2.91-1.08,5.33s.36,4.16,1.08,5.28c.72,1.11,1.75,1.67,3.08,1.67.81,0,1.45-.21,1.96-.62.5-.41.91-.97,1.23-1.69h.09l.5,2.05h4.17v-1.22h-.18ZM98.3,16.25c-.29.93-.83,1.4-1.58,1.4-.65,0-1.12-.44-1.4-1.31s-.43-2.2-.43-3.96.15-3.05.43-3.98c.28-.93.75-1.39,1.4-1.39.77,0,1.31.46,1.6,1.38.29.92.44,2.25.44,3.96s-.16,2.98-.46,3.9ZM90.07,17.85c-.45,0-.78-.1-1-.31-.21-.21-.32-.7-.32-1.46v-5.88c0-1.69-.28-2.93-.85-3.7-.58-.77-1.4-1.17-2.49-1.17-.84,0-1.5.19-1.98.55-.47.37-.86.91-1.16,1.63h-.1l-.25-1.88h-4.43v1.23h.09c.44,0,.78.09,1.05.28.25.2.39.65.39,1.37v7.58c0,.76-.14,1.25-.4,1.45-.27.2-.64.3-1.11.3h-.13v1.22h6.38v-1.22h-.1c-.45,0-.81-.09-1.05-.29-.24-.19-.36-.65-.36-1.36v-4.98c0-.68.05-1.33.16-1.92.1-.61.3-1.1.56-1.47.27-.38.63-.56,1.08-.56.58,0,.95.3,1.16.9.2.61.3,1.44.3,2.51v8.41h4.66v-1.22h-.1ZM74.63,7.06c-.94-1.16-2.25-1.74-3.9-1.74-1.79,0-3.14.58-4.06,1.74-.91,1.15-1.36,2.91-1.36,5.27s.47,4.11,1.42,5.27c.96,1.15,2.26,1.74,3.92,1.74,3.6,0,5.4-2.34,5.4-7.01,0-2.36-.48-4.12-1.42-5.27ZM72.3,16.44c-.29.94-.83,1.41-1.59,1.41s-1.29-.47-1.6-1.41c-.31-.93-.46-2.3-.46-4.11s.15-3.2.45-4.12c.3-.92.83-1.38,1.58-1.38s1.31.46,1.61,1.38c.3.92.45,2.3.45,4.12s-.15,3.18-.44,4.11ZM62.65,13.56l-.35,1.87c-.16.74-.36,1.3-.62,1.66-.26.37-.63.55-1.1.55h-3.79V3.87c0-.56.08-.96.26-1.17.18-.2.47-.31.89-.31h.75v-1.22h-7.19v1.22h.7c.33,0,.62.12.85.33.24.21.36.64.36,1.25v12.34c0,.6-.1.99-.32,1.21-.22.22-.47.32-.75.32h-.83v1.22h12.14l.1-5.51h-1.11Z"/><path class="cls-1" d="M279.62,37.73v51.13h-10.07V26.09H26.46v62.77h-10.08v-51.12H.08v54.26h295.84v-54.27h-16.3ZM42.77,29.23h210.48v59.64H42.77V29.23Z"/><path class="cls-1" d="M64.15,51.41c-.23.39-.52.76-.87,1.14-.33.38-.76.69-1.25.93-.49.24-1.1.37-1.82.37-1.45,0-2.48-.63-3.08-1.87-.6-1.24-.9-3.12-.9-5.62s.24-4.29.72-5.65c.49-1.35,1.34-2.03,2.56-2.03.59,0,1.05.17,1.39.5.35.33.59.76.73,1.3.15.52.21,1.07.21,1.61.88,0,1.53-.19,1.98-.58.44-.39.66-.86.66-1.43,0-.78-.4-1.46-1.2-2.04-.81-.58-1.99-.87-3.57-.87s-2.85.39-3.91,1.15c-1.06.77-1.84,1.84-2.37,3.22-.52,1.37-.78,2.97-.78,4.81s.25,3.48.77,4.86c.52,1.38,1.3,2.46,2.33,3.22,1.04.77,2.33,1.16,3.89,1.16,1.24,0,2.22-.18,2.93-.53.71-.35,1.2-.77,1.5-1.27.28-.49.42-.96.42-1.39,0-.19-.02-.38-.08-.56-.06-.2-.14-.35-.24-.44Z"/><path class="cls-1" d="M72.04,54.11c-.42,0-.76-.13-1.04-.37-.26-.24-.4-.73-.4-1.46v-16.01h-4.91v1.22h.25c.17,0,.36.04.59.12.23.07.42.22.58.44.16.22.24.56.24,1.02v13.21c0,.73-.13,1.22-.39,1.46-.26.24-.61.37-1.01.37h-.25v1.23h6.57v-1.23h-.22Z"/><path class="cls-1" d="M76.94,36.56c-.37-.26-.79-.39-1.3-.39s-.94.13-1.28.39c-.33.26-.5.68-.5,1.27s.17.99.5,1.25c.33.27.76.41,1.28.41s.93-.14,1.3-.41c.36-.26.53-.68.53-1.25s-.18-1-.53-1.27ZM78.81,54.11c-.44,0-.78-.13-1.05-.37-.26-.24-.39-.73-.39-1.46v-10.39h-4.95v1.23h.32c.42,0,.75.12,1,.35.25.24.38.7.38,1.38v7.46c0,.72-.14,1.2-.4,1.44-.27.24-.62.37-1.06.37h-.23v1.23h6.58v-1.23h-.22Z"/><path class="cls-1" d="M100.14,54.11c-.46,0-.79-.1-1-.31-.22-.21-.33-.7-.33-1.46v-5.88c0-1.69-.3-2.93-.92-3.7-.63-.77-1.47-1.17-2.56-1.17-1.64,0-2.72.75-3.24,2.26h-.09c-.24-.82-.61-1.4-1.12-1.74-.51-.35-1.13-.52-1.85-.52-.88,0-1.58.19-2.08.55-.5.37-.89.91-1.18,1.63h-.13l-.27-1.88h-4.41v1.18h.07c.45,0,.81.09,1.07.29.26.19.39.65.39,1.39v7.6c0,.77-.13,1.25-.39,1.45s-.62.3-1.07.3h-.18v1.23h6.38v-1.23h-.05c-.47,0-.83-.09-1.07-.29-.24-.19-.37-.65-.37-1.36v-4.98c0-.68.06-1.33.18-1.92.12-.61.3-1.09.58-1.46.27-.37.61-.54,1.02-.54.58,0,.96.29,1.18.89.22.6.32,1.42.32,2.5v8.41h4.64v-1.23h-.09c-.45,0-.78-.1-.99-.31s-.31-.7-.31-1.46v-5.14c0-.66.06-1.25.18-1.81.12-.55.3-.99.55-1.33.25-.33.59-.5,1.02-.5.56,0,.96.29,1.19.89.23.6.33,1.42.33,2.5v8.41h4.67v-1.23h-.07Z"/><path class="cls-1" d="M112.36,54.11c-.46,0-.78-.13-.96-.38s-.26-.72-.26-1.4v-6.45c0-1.58-.37-2.69-1.11-3.33-.73-.65-1.82-.97-3.26-.97-1.22,0-2.24.21-3.06.63-.82.42-1.22,1.05-1.22,1.88,0,1.11.89,1.66,2.66,1.66,0-.86.1-1.53.31-2.01.21-.49.55-.73,1.05-.73.53,0,.9.26,1.09.76.2.51.29,1.24.29,2.2v1.41l-1.68.07c-1.54.06-2.69.42-3.44,1.07-.75.65-1.13,1.64-1.13,3s.31,2.42.93,3.07c.62.66,1.37.99,2.26.99.78,0,1.38-.19,1.78-.55.41-.37.84-.89,1.29-1.56h.2l.43,1.86h3.94v-1.23h-.08ZM107.89,50.55c0,1-.17,1.83-.5,2.48-.33.64-.78.96-1.35.96-.38,0-.65-.21-.82-.63-.18-.42-.27-.98-.27-1.7,0-.94.16-1.65.46-2.13.29-.49.84-.76,1.63-.83l.85-.08v1.93Z"/><path class="cls-1" d="M117.55,53.74c-.48,0-.83-.18-1.01-.54-.19-.36-.29-.94-.29-1.74v-8.11h2.61v-1.45h-2.61v-3.08h-1.8c-.1.62-.23,1.11-.4,1.48-.16.37-.32.67-.51.92-.22.27-.49.5-.83.71-.33.2-.75.31-1.25.35v1.08h1.53v8.31c0,1.47.28,2.5.85,3.07.55.58,1.35.87,2.37.87.7,0,1.3-.06,1.78-.19.48-.13.85-.25,1.08-.37v-1.54c-.45.16-.95.23-1.51.23Z"/><path class="cls-1" d="M130.41,47.66c0-1.98-.44-3.48-1.31-4.52s-2.06-1.56-3.57-1.56c-1.63,0-2.91.61-3.8,1.8-.9,1.19-1.35,2.97-1.35,5.33,0,2.17.45,3.87,1.35,5.07.89,1.2,2.24,1.81,4.03,1.81,1,0,1.82-.15,2.45-.44.63-.29,1.09-.66,1.37-1.09.28-.42.43-.85.43-1.27,0-.28-.07-.5-.22-.66-.14-.17-.31-.27-.51-.35-.23.59-.56,1.09-1,1.5-.44.41-1,.62-1.7.62-.92,0-1.62-.41-2.11-1.23-.48-.82-.74-2.1-.77-3.86h6.72v-1.16ZM123.73,47.36c.01-1.37.19-2.43.52-3.17s.78-1.12,1.36-1.12.97.39,1.21,1.17c.24.77.36,1.82.33,3.12h-3.43Z"/><path class="cls-1" d="M151.18,54.11c-.37,0-.7-.17-.99-.51-.29-.35-.61-.87-.94-1.57l-2.51-5.18c.54-.18,1.02-.46,1.47-.84.44-.38.79-.88,1.07-1.51.26-.63.4-1.42.4-2.37,0-1.54-.44-2.71-1.32-3.51-.88-.81-2.38-1.2-4.53-1.2h-6.72v1.23h.63c.28,0,.56.08.85.27.29.19.43.62.43,1.31v12.32c0,.69-.14,1.12-.4,1.3-.27.18-.56.26-.88.26h-.63v1.23h6.9v-1.23h-.41c-.37,0-.66-.08-.88-.26-.21-.18-.32-.61-.32-1.3v-5.02h1.33l2.38,5.55c.39.93.94,1.55,1.67,1.83.73.28,1.66.43,2.8.43h.72v-1.23h-.13ZM145.46,45.19c-.44.64-1.13.96-2.08.96h-.98v-7.35h1.06c1.78,0,2.66,1.18,2.66,3.53,0,1.25-.21,2.21-.65,2.85Z"/><path class="cls-1" d="M162.21,47.66c0-1.98-.44-3.48-1.31-4.52-.87-1.04-2.06-1.56-3.57-1.56-1.64,0-2.91.61-3.8,1.8-.9,1.19-1.35,2.97-1.35,5.33,0,2.17.45,3.87,1.35,5.07.89,1.2,2.24,1.81,4.03,1.81,1,0,1.82-.15,2.45-.44.63-.29,1.08-.66,1.37-1.09.28-.42.42-.85.42-1.27,0-.28-.06-.5-.21-.66-.15-.17-.31-.27-.51-.35-.24.59-.58,1.09-1,1.5-.44.41-1,.62-1.7.62-.92,0-1.63-.41-2.11-1.23-.48-.82-.74-2.1-.77-3.86h6.72v-1.16ZM155.52,47.36c.02-1.37.2-2.43.53-3.17s.78-1.12,1.35-1.12.98.39,1.22,1.17c.24.77.36,1.82.33,3.12h-3.44Z"/><path class="cls-1" d="M171.88,49.49c-.27-.51-.67-.96-1.19-1.33-.52-.37-1.14-.71-1.86-1.02-.93-.42-1.58-.79-1.92-1.12-.36-.32-.53-.79-.53-1.39,0-.52.15-.93.44-1.22s.68-.44,1.17-.44c.59,0,1.06.23,1.43.67.37.44.54,1.09.54,1.95,1.28,0,1.91-.52,1.91-1.58,0-.64-.28-1.19-.86-1.67-.56-.47-1.48-.71-2.76-.71s-2.38.32-3.19.96c-.79.65-1.2,1.6-1.2,2.88,0,.77.14,1.41.39,1.93.26.51.65.96,1.17,1.34.52.38,1.19.75,2.01,1.12.84.39,1.44.75,1.81,1.09.37.35.55.79.55,1.35s-.16,1.04-.46,1.39c-.29.36-.79.54-1.47.54-.74,0-1.31-.27-1.73-.82-.41-.54-.61-1.32-.61-2.32-.5,0-.94.13-1.31.4-.37.27-.55.72-.55,1.36,0,.85.32,1.53.96,2.02.65.49,1.7.74,3.18.74s2.57-.38,3.34-1.13c.77-.75,1.16-1.77,1.16-3.04,0-.76-.15-1.41-.42-1.93Z"/><path class="cls-1" d="M177.72,36.56c-.36-.26-.78-.39-1.29-.39s-.95.13-1.29.39c-.33.26-.5.68-.5,1.27s.17.99.5,1.25c.33.27.76.41,1.29.41s.93-.14,1.29-.41c.37-.26.54-.68.54-1.25s-.18-1-.54-1.27ZM179.6,54.11c-.44,0-.78-.13-1.05-.37-.25-.24-.39-.73-.39-1.46v-10.39h-4.95v1.23h.33c.42,0,.75.12,1,.35.25.24.38.7.38,1.38v7.46c0,.72-.14,1.2-.41,1.44-.26.24-.62.37-1.06.37h-.22v1.23h6.58v-1.23h-.23Z"/><path class="cls-1" d="M186.89,54.11c-.42,0-.75-.13-1.02-.37-.27-.24-.4-.73-.4-1.46v-16.01h-4.93v1.22h.25c.17,0,.37.04.6.12.22.07.42.22.58.44.16.22.24.56.24,1.02v13.21c0,.73-.14,1.22-.4,1.46-.25.24-.6.37-1.01.37h-.25v1.23h6.58v-1.23h-.23Z"/><path class="cls-1" d="M192.28,36.56c-.36-.26-.78-.39-1.29-.39s-.95.13-1.29.39-.5.68-.5,1.27.17.99.5,1.25c.33.27.76.41,1.29.41s.93-.14,1.29-.41c.37-.26.54-.68.54-1.25s-.18-1-.54-1.27ZM194.15,54.11c-.44,0-.78-.13-1.05-.37-.25-.24-.39-.73-.39-1.46v-10.39h-4.95v1.23h.33c.42,0,.75.12,1,.35.25.24.38.7.38,1.38v7.46c0,.72-.14,1.2-.41,1.44-.26.24-.62.37-1.06.37h-.22v1.23h6.58v-1.23h-.23Z"/><path class="cls-1" d="M205.7,47.66c0-1.98-.44-3.48-1.31-4.52s-2.06-1.56-3.57-1.56c-1.63,0-2.91.61-3.8,1.8-.9,1.19-1.35,2.97-1.35,5.33,0,2.17.45,3.87,1.35,5.07.89,1.2,2.24,1.81,4.03,1.81,1,0,1.82-.15,2.45-.44.63-.29,1.09-.66,1.37-1.09.28-.42.43-.85.43-1.27,0-.28-.07-.5-.22-.66-.14-.17-.31-.27-.51-.35-.23.59-.56,1.09-1,1.5-.44.41-1,.62-1.7.62-.92,0-1.62-.41-2.11-1.23-.48-.82-.74-2.1-.77-3.86h6.72v-1.16ZM199.02,47.36c.01-1.37.19-2.43.52-3.17s.78-1.12,1.36-1.12.97.39,1.21,1.17c.24.77.36,1.82.33,3.12h-3.43Z"/><path class="cls-1" d="M219.6,54.11c-.46,0-.79-.1-1-.31-.22-.21-.33-.7-.33-1.46v-5.88c0-1.69-.28-2.93-.85-3.7-.58-.77-1.4-1.17-2.49-1.17-.84,0-1.5.19-1.97.55-.48.37-.87.91-1.17,1.63h-.09l-.25-1.88h-4.44v1.23h.09c.44,0,.78.09,1.05.28.26.2.39.65.39,1.37v7.58c0,.77-.14,1.25-.4,1.45-.27.2-.64.3-1.11.3h-.13v1.23h6.38v-1.23h-.1c-.45,0-.79-.09-1.04-.29-.25-.19-.37-.65-.37-1.36v-4.98c0-.68.05-1.33.16-1.92.12-.61.3-1.1.56-1.47.27-.38.63-.56,1.09-.56.56,0,.95.3,1.15.91.2.6.3,1.43.3,2.51v8.41h4.66v-1.23h-.09Z"/><path class="cls-1" d="M229.74,51.86c-.23.59-.59,1.08-1.07,1.48-.47.4-1.06.6-1.75.6-.89,0-1.52-.45-1.9-1.34-.39-.9-.58-2.21-.58-3.93,0-1.45.07-2.59.23-3.41.17-.83.39-1.4.66-1.74s.61-.5.99-.5c.48,0,.82.31,1,.93.18.62.27,1.36.27,2.21.75,0,1.33-.08,1.73-.26.39-.18.66-.41.79-.7.15-.29.22-.63.22-.99,0-.73-.32-1.36-.97-1.86-.64-.5-1.69-.75-3.15-.75-.95,0-1.81.22-2.57.66-.76.43-1.37,1.16-1.82,2.2-.45,1.02-.68,2.45-.68,4.26,0,1.68.22,3.03.66,4.04.43,1,1.04,1.74,1.81,2.19.76.45,1.66.68,2.68.68s1.85-.15,2.44-.43,1-.64,1.24-1.06c.24-.42.37-.82.37-1.2,0-.25-.05-.46-.17-.63-.1-.17-.25-.31-.44-.43Z"/><path class="cls-1" d="M242.03,47.66c0-1.98-.44-3.48-1.31-4.52s-2.05-1.56-3.56-1.56c-1.64,0-2.92.61-3.81,1.8-.9,1.19-1.34,2.97-1.34,5.33,0,2.17.44,3.87,1.34,5.07.89,1.2,2.24,1.81,4.03,1.81,1,0,1.82-.15,2.45-.44.63-.29,1.09-.66,1.37-1.09.28-.42.43-.85.43-1.27,0-.28-.07-.5-.22-.66-.14-.17-.31-.27-.51-.35-.23.59-.56,1.09-1,1.5-.44.41-1,.62-1.7.62-.92,0-1.62-.41-2.11-1.23-.48-.82-.74-2.1-.77-3.86h6.72v-1.16ZM235.36,47.36c.01-1.37.19-2.43.52-3.17s.78-1.12,1.36-1.12.97.39,1.21,1.17c.24.77.36,1.82.35,3.12h-3.44Z"/><path class="cls-1" d="M57.32,66.05h3.24c.4,0,.73.17.99.5s.42.81.49,1.43l.09,1.17h1.48l-.13-4.54h-11.45v1.23h.78c.31,0,.59.1.81.31.21.21.32.61.32,1.19v12.5c0,.59-.12.97-.32,1.16-.22.2-.56.29-1.04.29h-.55v1.23h7.61v-1.23h-.98c-.45,0-.79-.12-1.01-.33s-.35-.63-.35-1.19v-5.32h4.87v-1.43h-4.87v-6.97Z"/><path class="cls-1" d="M69.11,63.75c-.36-.26-.79-.39-1.3-.39s-.94.13-1.28.39c-.33.26-.5.68-.5,1.27s.17.99.5,1.25c.33.27.76.41,1.28.41s.94-.14,1.3-.41c.36-.26.54-.68.54-1.25s-.19-1-.54-1.27ZM70.98,81.3c-.44,0-.78-.13-1.05-.37-.26-.24-.39-.73-.39-1.46v-10.39h-4.95v1.23h.33c.41,0,.74.12,1,.35.24.24.37.7.37,1.38v7.46c0,.72-.13,1.2-.4,1.44-.27.24-.62.37-1.06.37h-.22v1.23h6.58v-1.23h-.23Z"/><path class="cls-1" d="M84.66,81.3c-.45,0-.78-.1-1-.31-.22-.21-.32-.7-.32-1.46v-5.88c0-1.69-.29-2.93-.86-3.7-.56-.77-1.39-1.17-2.48-1.17-.85,0-1.5.19-1.98.55-.47.37-.87.91-1.16,1.63h-.1l-.25-1.88h-4.44v1.23h.1c.43,0,.77.09,1.04.28.26.2.39.65.39,1.37v7.58c0,.77-.13,1.25-.4,1.45s-.64.3-1.11.3h-.13v1.23h6.38v-1.23h-.1c-.45,0-.79-.09-1.04-.29-.24-.19-.37-.65-.37-1.36v-4.98c0-.68.05-1.33.17-1.92.1-.61.29-1.1.56-1.47.26-.38.63-.56,1.08-.56.56,0,.95.3,1.15.91.21.6.3,1.43.3,2.51v8.41h4.67v-1.23h-.1Z"/><path class="cls-1" d="M96.92,81.3c-.46,0-.78-.13-.96-.38s-.26-.72-.26-1.4v-6.45c0-1.58-.37-2.69-1.11-3.33-.73-.65-1.82-.97-3.26-.97-1.22,0-2.24.21-3.06.63-.82.42-1.22,1.05-1.22,1.88,0,1.11.89,1.66,2.66,1.66,0-.86.1-1.53.31-2.01.21-.49.55-.73,1.05-.73.53,0,.9.26,1.09.76.2.51.29,1.24.29,2.2v1.41l-1.68.07c-1.54.06-2.69.42-3.44,1.07-.75.65-1.13,1.64-1.13,3s.31,2.42.93,3.07c.62.66,1.37.99,2.26.99.78,0,1.38-.19,1.78-.55.41-.37.84-.89,1.29-1.56h.2l.43,1.86h3.94v-1.23h-.08ZM92.46,77.74c0,1-.17,1.83-.5,2.48-.33.64-.78.96-1.35.96-.38,0-.65-.21-.82-.63-.18-.42-.27-.98-.27-1.7,0-.94.16-1.65.46-2.13.29-.49.84-.76,1.63-.83l.85-.08v1.93Z"/><path class="cls-1" d="M110.73,81.3c-.45,0-.78-.1-1-.31-.21-.21-.32-.7-.32-1.46v-5.88c0-1.69-.28-2.93-.85-3.7-.58-.77-1.4-1.17-2.49-1.17-.84,0-1.5.19-1.97.55-.48.37-.87.91-1.17,1.63h-.1l-.25-1.88h-4.43v1.23h.09c.44,0,.78.09,1.05.28.26.2.39.65.39,1.37v7.58c0,.77-.14,1.25-.4,1.45-.27.2-.64.3-1.11.3h-.13v1.23h6.38v-1.23h-.1c-.45,0-.79-.09-1.05-.29-.24-.19-.36-.65-.36-1.36v-4.98c0-.68.05-1.33.16-1.92.12-.61.3-1.1.56-1.47.27-.38.63-.56,1.08-.56.58,0,.96.3,1.16.91.2.6.3,1.43.3,2.51v8.41h4.66v-1.23h-.1Z"/><path class="cls-1" d="M120.87,79.04c-.23.59-.59,1.08-1.07,1.48-.48.4-1.06.6-1.75.6-.89,0-1.52-.45-1.9-1.34-.39-.9-.58-2.21-.58-3.93,0-1.45.07-2.59.23-3.41.17-.83.38-1.4.66-1.74.27-.33.61-.5.99-.5.48,0,.82.31,1,.93.18.62.27,1.36.27,2.21.75,0,1.33-.08,1.71-.26.4-.18.67-.41.81-.7.15-.29.22-.63.22-.99,0-.73-.32-1.36-.97-1.86-.64-.5-1.69-.75-3.15-.75-.95,0-1.81.22-2.57.66-.76.43-1.37,1.16-1.82,2.2-.45,1.02-.68,2.45-.68,4.26,0,1.68.22,3.03.66,4.04.43,1,1.04,1.74,1.8,2.19.77.45,1.67.68,2.69.68s1.85-.15,2.44-.43,1-.64,1.24-1.06c.24-.42.37-.82.37-1.2,0-.25-.06-.46-.17-.63-.1-.17-.25-.31-.44-.43Z"/><path class="cls-1" d="M133.17,74.85c0-1.98-.44-3.48-1.31-4.52s-2.06-1.56-3.57-1.56c-1.63,0-2.91.61-3.8,1.8-.9,1.19-1.35,2.97-1.35,5.33,0,2.17.45,3.87,1.35,5.07.89,1.2,2.24,1.81,4.03,1.81,1,0,1.82-.15,2.45-.44.63-.29,1.09-.66,1.37-1.09.28-.42.43-.85.43-1.27,0-.28-.07-.5-.22-.66-.14-.17-.31-.27-.51-.35-.23.59-.56,1.09-1,1.5-.44.41-1,.62-1.7.62-.92,0-1.62-.41-2.11-1.23-.48-.82-.74-2.1-.77-3.86h6.72v-1.16ZM126.5,74.55c.01-1.37.19-2.43.52-3.17s.78-1.12,1.36-1.12.97.39,1.21,1.17c.24.77.36,1.82.33,3.12h-3.43Z"/><path class="cls-1" d="M149.61,74.4c-.61-.84-1.61-1.61-3.03-2.33-.92-.45-1.63-.87-2.12-1.25-.49-.39-.84-.78-1.01-1.18-.19-.4-.28-.85-.28-1.33,0-.81.18-1.43.54-1.87.36-.44.85-.67,1.46-.67.52,0,.95.17,1.3.5.35.33.6.76.77,1.29.18.51.26,1.06.26,1.63.89,0,1.53-.17,1.91-.49.39-.32.58-.77.58-1.34,0-.49-.17-.96-.49-1.42s-.82-.84-1.46-1.13c-.66-.29-1.48-.44-2.49-.44s-1.84.19-2.6.58c-.77.39-1.38.93-1.84,1.63-.45.7-.67,1.54-.67,2.51,0,1.28.28,2.34.85,3.21.58.88,1.56,1.67,2.96,2.38,1.13.59,1.99,1.15,2.6,1.69.61.54.91,1.29.91,2.23,0,.82-.21,1.5-.63,2.02-.42.52-1,.79-1.78.79s-1.51-.36-2.11-1.07c-.6-.71-.92-1.78-.95-3.18-.6,0-1.13.17-1.59.5s-.69.9-.69,1.68c0,.56.15,1.12.44,1.64.29.52.81.96,1.54,1.3.74.33,1.76.5,3.04.5,1.64,0,2.96-.47,3.97-1.4,1.01-.92,1.52-2.2,1.52-3.83,0-1.27-.29-2.32-.9-3.16Z"/><path class="cls-1" d="M164.23,81.3c-.39,0-.7-.08-.96-.26s-.39-.64-.39-1.37v-10.59h-4.6v1.23h.08c.38,0,.69.09.92.27.24.19.36.66.36,1.41v4.94c0,1.19-.14,2.14-.42,2.85-.27.71-.73,1.07-1.36,1.07-.59,0-.98-.29-1.18-.87s-.3-1.46-.3-2.65v-8.26h-4.64v1.23h.07c.5,0,.85.12,1.04.33.18.23.27.7.27,1.42v5.77c0,1.7.27,2.96.83,3.75.55.79,1.43,1.19,2.64,1.19.72,0,1.33-.17,1.83-.49.5-.32.92-.88,1.25-1.64h.1l.48,1.88h4.16v-1.23h-.18Z"/><path class="cls-1" d="M184.64,81.3c-.45,0-.78-.1-1-.31-.21-.21-.32-.7-.32-1.46v-5.88c0-1.69-.3-2.93-.93-3.7-.62-.77-1.46-1.17-2.55-1.17-1.64,0-2.72.75-3.24,2.26h-.1c-.23-.82-.61-1.4-1.11-1.74-.51-.35-1.13-.52-1.85-.52-.89,0-1.58.19-2.08.55-.5.37-.9.91-1.18,1.63h-.13l-.27-1.88h-4.42v1.18h.08c.45,0,.81.09,1.07.29.25.19.39.65.39,1.39v7.6c0,.77-.14,1.25-.39,1.45-.26.2-.62.3-1.07.3h-.18v1.23h6.37v-1.23h-.04c-.47,0-.83-.09-1.07-.29-.25-.19-.37-.65-.37-1.36v-4.98c0-.68.05-1.33.18-1.92.12-.61.3-1.09.58-1.46.26-.37.61-.54,1.02-.54.58,0,.96.29,1.18.89.22.6.32,1.42.32,2.5v8.41h4.64v-1.23h-.09c-.46,0-.78-.1-.99-.31s-.31-.7-.31-1.46v-5.14c0-.66.05-1.25.18-1.81.12-.55.29-.99.54-1.33s.6-.5,1.04-.5c.56,0,.96.29,1.19.89.22.6.33,1.42.33,2.5v8.41h4.67v-1.23h-.08Z"/><path class="cls-1" d="M204.89,81.3c-.45,0-.78-.1-1-.31-.22-.21-.32-.7-.32-1.46v-5.88c0-1.69-.31-2.93-.93-3.7s-1.47-1.17-2.56-1.17c-1.63,0-2.72.75-3.23,2.26h-.1c-.23-.82-.61-1.4-1.12-1.74-.5-.35-1.12-.52-1.84-.52-.89,0-1.58.19-2.08.55-.5.37-.9.91-1.18,1.63h-.13l-.27-1.88h-4.42v1.18h.07c.46,0,.82.09,1.07.29.26.19.4.65.4,1.39v7.6c0,.77-.14,1.25-.4,1.45-.25.2-.61.3-1.07.3h-.17v1.23h6.37v-1.23h-.05c-.46,0-.82-.09-1.07-.29-.24-.19-.36-.65-.36-1.36v-4.98c0-.68.05-1.33.17-1.92.13-.61.31-1.09.59-1.46.26-.37.61-.54,1.02-.54.56,0,.96.29,1.18.89.21.6.32,1.42.32,2.5v8.41h4.64v-1.23h-.1c-.45,0-.77-.1-.98-.31s-.31-.7-.31-1.46v-5.14c0-.66.05-1.25.17-1.81.12-.55.3-.99.55-1.33s.6-.5,1.04-.5c.56,0,.96.29,1.19.89.22.6.33,1.42.33,2.5v8.41h4.66v-1.23h-.07Z"/><path class="cls-1" d="M210.28,63.75c-.36-.26-.79-.39-1.3-.39s-.94.13-1.28.39c-.33.26-.5.68-.5,1.27s.17.99.5,1.25c.33.27.76.41,1.28.41s.94-.14,1.3-.41c.36-.26.53-.68.53-1.25s-.18-1-.53-1.27ZM212.15,81.3c-.44,0-.78-.13-1.05-.37-.26-.24-.39-.73-.39-1.46v-10.39h-4.95v1.23h.32c.42,0,.75.12,1,.35.25.24.38.7.38,1.38v7.46c0,.72-.13,1.2-.4,1.44-.27.24-.62.37-1.06.37h-.22v1.23h6.57v-1.23h-.22Z"/><path class="cls-1" d="M219.27,80.93c-.48,0-.83-.18-1.01-.54-.19-.36-.28-.94-.28-1.74v-8.11h2.6v-1.45h-2.6v-3.08h-1.81c-.1.62-.23,1.11-.39,1.48-.17.37-.33.67-.52.92-.22.27-.49.5-.83.71-.33.2-.75.31-1.25.35v1.08h1.54v8.31c0,1.47.27,2.5.84,3.07.55.58,1.35.87,2.37.87.7,0,1.3-.06,1.78-.19s.85-.25,1.08-.37v-1.54c-.45.16-.95.23-1.51.23Z"/></svg>